<svg width="120" height="120" viewBox="0 0 120 120" fill="none" xmlns="http://www.w3.org/2000/svg">
<path d="M60.9046 61.5419C60.9045 60.7207 60.6825 59.9148 60.262 59.2094C59.8414 58.504 59.2381 57.9254 58.5157 57.5348C57.7934 57.1442 56.9788 56.956 56.1583 56.9903C55.3378 57.0246 54.5418 57.28 53.8546 57.7296C51.3958 56.5696 48.6389 56.1971 45.9605 56.6631C43.2821 57.1291 40.8129 58.4107 38.8903 60.3329C36.9678 62.2551 35.6856 64.724 35.2192 67.4024C34.7527 70.0807 35.1247 72.8377 36.2842 75.2967C35.7134 76.1724 35.4609 77.2177 35.5691 78.2574C35.6773 79.2971 36.1396 80.268 36.8786 81.0074C37.6175 81.7467 38.5881 82.2096 39.6278 82.3185C40.6674 82.4273 41.7129 82.1755 42.5889 81.6051C45.7245 83.0807 49.3143 83.2653 52.5848 82.1193C55.8553 80.9732 58.5446 78.5882 60.0733 75.4781C60.2375 75.1432 60.262 74.7568 60.1413 74.4039C60.0206 74.0509 59.7647 73.7604 59.4298 73.5962C59.0949 73.432 58.7085 73.4075 58.3556 73.5282C58.0026 73.6488 57.7121 73.9048 57.5479 74.2397C56.4316 76.5103 54.5257 78.2961 52.1873 79.2626C49.8489 80.229 47.2384 80.3097 44.8447 79.4897L58.045 66.2892C58.5408 67.7313 58.7122 69.265 58.5468 70.781C58.5074 71.1516 58.6167 71.5227 58.8508 71.8128C59.0849 72.1028 59.4245 72.2881 59.7951 72.3279C59.8454 72.3333 59.896 72.336 59.9467 72.3361C60.2935 72.3357 60.6278 72.2072 60.8856 71.9753C61.1434 71.7433 61.3064 71.4244 61.3433 71.0796C61.6078 68.6668 61.1982 66.2278 60.16 64.0338C60.647 63.2941 60.9059 62.4276 60.9046 61.5419V61.5419ZM57.5652 62.7888L41.4222 78.934L41.3345 79.0219C41.0905 79.2661 40.7795 79.4326 40.4409 79.5001C40.1024 79.5677 39.7513 79.5333 39.4323 79.4014C39.1132 79.2694 38.8404 79.0459 38.6484 78.7589C38.4564 78.472 38.3538 78.1345 38.3535 77.7893C38.3512 77.3323 38.5305 76.893 38.852 76.5682L41.1885 74.2343C41.4522 73.9705 41.6004 73.6128 41.6003 73.2399C41.6003 72.8669 41.4521 72.5092 41.1884 72.2455C40.9246 71.9818 40.5669 71.8336 40.194 71.8336C39.821 71.8337 39.4633 71.9819 39.1996 72.2456L38.4006 73.0448C37.7678 71.205 37.6645 69.2244 38.1025 67.3287C38.5404 65.4331 39.502 63.6985 40.8776 62.3227C42.2533 60.9468 43.9877 59.985 45.8833 59.5468C47.7789 59.1086 49.7595 59.2116 51.5994 59.8441L42.0135 69.4331C41.7533 69.6975 41.6082 70.0541 41.6097 70.4251C41.6112 70.796 41.7592 71.1514 42.0216 71.4137C42.2839 71.676 42.6392 71.8241 43.0102 71.8256C43.3812 71.8271 43.7377 71.6819 44.0022 71.4218L55.0365 60.3874L55.1127 60.3091C55.4415 59.9837 55.8862 59.8023 56.3488 59.8048C56.8113 59.8072 57.254 59.9933 57.5794 60.3221C57.9048 60.6509 58.0862 61.0956 58.0838 61.5582C58.0813 62.0207 57.8952 62.4634 57.5664 62.7888H57.5652Z" fill="#5991D0" stroke="#5991D0"/>
<path d="M58.8133 86.54H37.6328C37.2599 86.54 36.9022 86.6882 36.6384 86.9519C36.3747 87.2156 36.2266 87.5733 36.2266 87.9463V94.2744C36.2266 94.6474 36.3747 95.0051 36.6384 95.2688C36.9022 95.5325 37.2599 95.6807 37.6328 95.6807H58.8133C59.1862 95.6807 59.5439 95.5325 59.8076 95.2688C60.0714 95.0051 60.2195 94.6474 60.2195 94.2744V87.9463C60.2195 87.5733 60.0714 87.2156 59.8076 86.9519C59.5439 86.6882 59.1862 86.54 58.8133 86.54ZM57.407 92.8682H39.0391V89.3525H57.407V92.8682Z" fill="#5991D0"/>
<path d="M24.9023 95.7963C23.9081 95.7951 22.955 95.3996 22.252 94.6966C21.549 93.9936 21.1535 93.0405 21.1523 92.0463V74.4541C21.1523 74.0811 21.0042 73.7235 20.7405 73.4597C20.4767 73.196 20.1191 73.0479 19.7461 73.0479C19.3731 73.0479 19.0154 73.196 18.7517 73.4597C18.488 73.7235 18.3398 74.0811 18.3398 74.4541V92.0463C18.3418 93.7862 19.0339 95.4542 20.2641 96.6845C21.4944 97.9148 23.1625 98.6068 24.9023 98.6088C25.2753 98.6088 25.633 98.4606 25.8967 98.1969C26.1604 97.9332 26.3086 97.5755 26.3086 97.2025C26.3086 96.8296 26.1604 96.4719 25.8967 96.2082C25.633 95.9445 25.2753 95.7963 24.9023 95.7963Z" fill="#5991D0"/>
<path d="M19.7461 71.7305C20.1191 71.7305 20.4767 71.5823 20.7405 71.3186C21.0042 71.0549 21.1523 70.6972 21.1523 70.3242V68.6719C21.1523 68.2989 21.0042 67.9412 20.7405 67.6775C20.4767 67.4138 20.1191 67.2656 19.7461 67.2656C19.3731 67.2656 19.0154 67.4138 18.7517 67.6775C18.488 67.9412 18.3398 68.2989 18.3398 68.6719V70.3242C18.3398 70.6972 18.488 71.0549 18.7517 71.3186C19.0154 71.5823 19.3731 71.7305 19.7461 71.7305Z" fill="#5991D0"/>
<path d="M68.5594 13.5889H36.2477C36.0631 13.5889 35.8802 13.6252 35.7096 13.6959C35.539 13.7666 35.3839 13.8702 35.2534 14.0007C35.1228 14.1313 35.0192 14.2864 34.9485 14.457C34.8779 14.6276 34.8415 14.8104 34.8415 14.9951C34.8415 15.1798 34.8779 15.3627 34.9485 15.5333C35.0192 15.7039 35.1228 15.8589 35.2534 15.9895C35.3839 16.1201 35.539 16.2237 35.7096 16.2943C35.8802 16.365 36.0631 16.4014 36.2477 16.4014H68.5594C69.6779 16.4027 70.7502 16.8476 71.541 17.6384C72.3319 18.4293 72.7768 19.5016 72.7781 20.6201V48.0059C72.0515 42.0039 69.1521 36.4757 64.6276 32.4655C60.1031 28.4554 54.2667 26.2409 48.2208 26.2405C42.1749 26.24 36.3382 28.4536 31.813 32.463C27.2879 36.4725 24.3877 42.0002 23.6602 48.0022V20.6201C23.6615 19.5016 24.1064 18.4293 24.8972 17.6384C25.6881 16.8476 26.7604 16.4027 27.8789 16.4014H31.3259C31.6988 16.4014 32.0565 16.2532 32.3202 15.9895C32.584 15.7258 32.7321 15.3681 32.7321 14.9951C32.7321 14.6222 32.584 14.2645 32.3202 14.0007C32.0565 13.737 31.6988 13.5889 31.3259 13.5889H27.8789C26.0148 13.591 24.2276 14.3324 22.9094 15.6506C21.5912 16.9688 20.8498 18.756 20.8477 20.6201V50.0412C20.8477 50.4142 20.9958 50.7719 21.2595 51.0356C21.5233 51.2993 21.8809 51.4475 22.2539 51.4475H74.1844C74.5573 51.4475 74.915 51.2993 75.1788 51.0356C75.4425 50.7719 75.5906 50.4142 75.5906 50.0412V20.6201C75.5885 18.756 74.8471 16.9688 73.5289 15.6506C72.2107 14.3324 70.4235 13.591 68.5594 13.5889V13.5889ZM44.9316 48.635C45.3057 48.1122 45.799 47.6862 46.3707 47.3923C46.9424 47.0985 47.576 46.9452 48.2188 46.9452C48.8616 46.9452 49.4952 47.0985 50.0669 47.3923C50.6386 47.6862 51.1319 48.1122 51.506 48.635H44.9316ZM54.6546 48.635C54.1016 47.1072 53.0211 45.8271 51.6077 45.0256L54.678 37.5795C54.7503 37.4084 54.788 37.2247 54.7889 37.0391C54.7897 36.8534 54.7538 36.6693 54.6832 36.4976C54.6126 36.3258 54.5087 36.1698 54.3774 36.0384C54.2462 35.907 54.0902 35.803 53.9185 35.7322C53.7469 35.6614 53.5629 35.6254 53.3772 35.6261C53.1915 35.6268 53.0077 35.6643 52.8366 35.7364C52.6655 35.8085 52.5103 35.9138 52.3801 36.0462C52.2499 36.1785 52.1472 36.3354 52.0779 36.5077L48.9195 44.1699C48.6876 44.1461 48.4548 44.1339 48.2217 44.1336C46.8158 44.1301 45.4431 44.5607 44.291 45.3665C43.1389 46.1723 42.2636 47.3141 41.7846 48.6359H26.4241C26.5891 47.0589 26.9253 45.5046 27.4268 44.0004C27.5568 44.1266 27.7101 44.2264 27.8782 44.2941L30.3673 45.2972C30.7132 45.4367 31.1003 45.433 31.4435 45.2869C31.7867 45.1409 32.0578 44.8646 32.1973 44.5186C32.3367 44.1727 32.333 43.7856 32.187 43.4424C32.041 43.0992 31.7646 42.8281 31.4187 42.6886L28.9296 41.6855C28.763 41.6184 28.5851 41.584 28.4055 41.584C29.2946 39.7118 30.4457 37.9756 31.8241 36.4278C31.8934 36.5906 31.993 36.7388 32.1176 36.8644L34.0137 38.7629C34.278 39.0232 34.6344 39.1686 35.0054 39.1673C35.3764 39.166 35.7318 39.0181 35.9943 38.756C36.2568 38.4938 36.405 38.1385 36.4068 37.7676C36.4085 37.3966 36.2635 37.04 36.0035 36.7754L34.1074 34.8769C33.9811 34.7513 33.8319 34.6509 33.668 34.5811C35.1137 33.2957 36.7233 32.2074 38.4548 31.3447C38.458 31.5242 38.4957 31.7015 38.5659 31.8668L39.6159 34.3371C39.7618 34.6804 40.0381 34.9516 40.384 35.0912C40.7298 35.2307 41.117 35.2272 41.4602 35.0813C41.8035 34.9354 42.0747 34.6591 42.2143 34.3133C42.3538 33.9674 42.3503 33.5802 42.2044 33.237L41.1544 30.7667C41.0837 30.6001 40.9813 30.4489 40.853 30.3214C42.8049 29.6276 44.8456 29.2146 46.9137 29.0949C46.8481 29.2595 46.8143 29.4351 46.8141 29.6124V32.2967C46.8141 32.6696 46.9622 33.0273 47.2259 33.2911C47.4897 33.5548 47.8474 33.7029 48.2203 33.7029C48.5933 33.7029 48.951 33.5548 49.2147 33.2911C49.4784 33.0273 49.6266 32.6696 49.6266 32.2967V29.6131C49.6264 29.4358 49.5926 29.2602 49.527 29.0956C51.4576 29.208 53.3648 29.5757 55.1988 30.1892C55.0734 30.3189 54.9742 30.4717 54.9068 30.6392L53.9039 33.128C53.8349 33.2993 53.8002 33.4825 53.802 33.6672C53.8038 33.8518 53.8419 34.0343 53.9142 34.2043C53.9865 34.3742 54.0916 34.5282 54.2234 34.6575C54.3552 34.7869 54.5112 34.889 54.6825 34.958C54.8538 35.027 55.037 35.0617 55.2217 35.0599C55.4063 35.0581 55.5888 35.02 55.7588 34.9477C55.9287 34.8754 56.0827 34.7704 56.212 34.6385C56.3414 34.5067 56.4435 34.3507 56.5125 34.1794L57.5156 31.6904C57.5829 31.5231 57.6174 31.3445 57.6171 31.1642C59.489 32.0535 61.2251 33.2042 62.7734 34.5818C62.6099 34.6514 62.4612 34.7513 62.3351 34.8764L60.4366 36.7749C60.1729 37.0386 60.0247 37.3963 60.0247 37.7693C60.0247 38.1423 60.1729 38.5 60.4366 38.7638C60.7004 39.0275 61.0581 39.1757 61.4311 39.1757C61.8041 39.1757 62.1618 39.0275 62.4256 38.7638L64.324 36.8654C64.4486 36.7399 64.5483 36.5919 64.6177 36.4292C65.9045 37.8736 66.9939 39.4824 67.8574 41.2135C67.6772 41.2164 67.4993 41.2542 67.3334 41.3246L64.8631 42.3746C64.5198 42.5205 64.2486 42.7967 64.109 43.1426C63.9695 43.4885 63.973 43.8756 64.1189 44.2189C64.2648 44.5621 64.5411 44.8334 64.8869 44.9729C65.2328 45.1125 65.62 45.1089 65.9632 44.963L68.4335 43.913C68.5985 43.8427 68.7486 43.7414 68.8756 43.6147C69.4518 45.2374 69.8343 46.9226 70.0151 48.6352L54.6546 48.635Z" fill="#5991D0" stroke="#5991D0"/>
<path d="M104.473 44.1193H102.598V34.2756C102.598 33.9026 102.449 33.5449 102.186 33.2812C101.922 33.0175 101.564 32.8693 101.191 32.8693C100.818 32.8693 100.461 33.0175 100.197 33.2812C99.9333 33.5449 99.7852 33.9026 99.7852 34.2756V44.1193H97.9102C97.5372 44.1193 97.1795 44.2675 96.9158 44.5312C96.6521 44.7949 96.5039 45.1526 96.5039 45.5256V61.4631C96.5052 62.4602 96.8239 63.4311 97.4139 64.235C98.0038 65.0389 98.8343 65.6341 99.7852 65.9345V106.463C99.7836 107.83 99.2399 109.141 98.2732 110.107C97.3066 111.074 95.996 111.618 94.6289 111.619H76.8164C76.0576 111.617 75.3086 111.447 74.6225 111.123C73.9363 110.799 73.3297 110.329 72.8456 109.744H82.9102C85.0229 109.742 87.0484 108.902 88.5423 107.408C90.0362 105.914 90.8765 103.888 90.8789 101.776V61.247C91.8297 60.9466 92.6603 60.3514 93.2502 59.5475C93.8401 58.7436 94.1588 57.7727 94.1602 56.7756V40.8381C94.1602 40.4651 94.012 40.1074 93.7483 39.8437C93.4846 39.58 93.1269 39.4318 92.7539 39.4318H90.8789V29.5881C90.8789 29.2151 90.7307 28.8574 90.467 28.5937C90.2033 28.33 89.8456 28.1818 89.4727 28.1818C89.0997 28.1818 88.742 28.33 88.4783 28.5937C88.2146 28.8574 88.0664 29.2151 88.0664 29.5881V39.4318H86.1914C85.8184 39.4318 85.4608 39.58 85.197 39.8437C84.9333 40.1074 84.7852 40.4651 84.7852 40.8381V56.7756C84.7865 57.7727 85.1052 58.7436 85.6951 59.5475C86.285 60.3514 87.1156 60.9466 88.0664 61.247V101.776C88.0649 103.143 87.5211 104.453 86.5545 105.42C85.5878 106.387 84.2772 106.93 82.9102 106.932H71.6836C71.6698 106.777 71.6602 106.621 71.6602 106.463V102.825C74.4973 102.791 77.2069 101.64 79.2022 99.6231C81.1976 97.6059 82.3184 94.8841 82.3219 92.0467V16.3506C82.3186 13.4922 81.1817 10.7518 79.1606 8.73065C77.1394 6.70948 74.399 5.57256 71.5406 5.56934H24.9023C22.0439 5.5725 19.3035 6.70939 17.2823 8.73059C15.2612 10.7518 14.1243 13.4922 14.1211 16.3506V92.0467C14.1243 94.9051 15.2612 97.6454 17.2824 99.6666C19.3036 101.688 22.044 102.825 24.9023 102.828H57.2006C57.4576 104.741 58.3995 106.496 59.8515 107.768C61.3036 109.039 63.1674 109.742 65.0977 109.744H69.5569C70.193 111.137 71.2148 112.319 72.5012 113.15C73.7877 113.98 75.2851 114.425 76.8164 114.432H94.6289C96.7416 114.429 98.7671 113.589 100.261 112.095C101.755 110.601 102.595 108.576 102.598 106.463V65.9345C103.548 65.6341 104.379 65.0389 104.969 64.235C105.559 63.4311 105.878 62.4602 105.879 61.4631V45.5256C105.879 45.1526 105.731 44.7949 105.467 44.5312C105.203 44.2675 104.846 44.1193 104.473 44.1193V44.1193ZM87.5977 42.2443H91.3477V46.2287H87.5977V42.2443ZM87.5977 56.7756V49.0412H91.3477V56.7756C91.3477 57.2729 91.1501 57.7498 90.7985 58.1014C90.4469 58.453 89.9699 58.6506 89.4727 58.6506C88.9754 58.6506 88.4985 58.453 88.1468 58.1014C87.7952 57.7498 87.5977 57.2729 87.5977 56.7756ZM65.0977 106.932C63.9132 106.93 62.7653 106.522 61.8463 105.775C60.9273 105.027 60.293 103.987 60.0497 102.828H68.8477V106.463C68.8477 106.62 68.8556 106.776 68.8645 106.932H65.0977ZM24.9023 100.015C22.7896 100.013 20.7641 99.1728 19.2702 97.6788C17.7763 96.1849 16.936 94.1594 16.9336 92.0467V16.3506C16.936 14.2379 17.7763 12.2124 19.2702 10.7184C20.7641 9.22451 22.7896 8.38419 24.9023 8.38184H71.5406C73.6533 8.38419 75.6789 9.22451 77.1728 10.7184C78.6667 12.2124 79.507 14.2379 79.5094 16.3506V92.0467C79.507 94.1594 78.6667 96.1849 77.1728 97.6788C75.6789 99.1728 73.6533 100.013 71.5406 100.015H24.9023ZM103.066 61.4631C103.066 61.9604 102.869 62.4373 102.517 62.7889C102.166 63.1405 101.689 63.3381 101.191 63.3381C100.694 63.3381 100.217 63.1405 99.8656 62.7889C99.5139 62.4373 99.3164 61.9604 99.3164 61.4631V53.7287H103.066V61.4631ZM103.066 50.9162H99.3164V46.9318H103.066V50.9162Z" fill="#5991D0" stroke="#5991D0"/>
</svg>
