<svg width="26" height="26" viewBox="0 0 26 26" fill="none" xmlns="http://www.w3.org/2000/svg">
<path d="M4.16114 4.16118L4.16113 4.16118C1.80091 6.52145 0.5 9.66208 0.5 13C0.5 16.3379 1.80091 19.4785 4.16118 21.8389L4.51473 21.4853L4.16118 21.8389C6.52145 24.1991 9.66208 25.5 13 25.5C15.0709 25.5 17.1227 24.983 18.9348 24.0037C19.5286 23.6829 19.7497 22.9416 19.4289 22.3479C19.1082 21.7541 18.3668 21.533 17.7731 21.8537L17.773 21.8537C16.3181 22.64 14.6671 23.0562 13 23.0562C7.45544 23.0562 2.9438 18.5446 2.9438 13C2.9438 7.45544 7.45544 2.94384 13 2.94384C18.5445 2.94384 23.0561 7.45548 23.0561 13C23.0561 13.6523 22.9764 14.3756 22.8595 15.0106C22.7403 15.6581 22.5913 16.1644 22.4726 16.4052C22.3749 16.6035 22.1693 16.8717 21.896 17.0869C21.6222 17.3025 21.3289 17.4278 21.0565 17.4278C20.2404 17.4278 19.5757 16.7632 19.5757 15.9472V8.33519C19.5757 7.66037 19.0286 7.11327 18.3538 7.11327C17.8168 7.11327 17.3606 7.45979 17.1967 7.94149C16.0579 6.99503 14.5946 6.4242 13 6.4242C9.37366 6.4242 6.42416 9.37365 6.42416 13C6.42416 16.6263 9.37355 19.5758 13 19.5758C14.7706 19.5758 16.3792 18.8721 17.5617 17.7317C18.2121 19.0007 19.5335 19.8716 21.0564 19.8716C22.6888 19.8716 24.0888 18.6543 24.6648 17.4854C24.9145 16.9786 25.1205 16.2348 25.2646 15.4505C25.4103 14.658 25.4999 13.7843 25.4999 13C25.5 9.66208 24.199 6.52145 21.8388 4.16118L21.4853 4.51473L21.8388 4.16118C19.4785 1.80091 16.3379 0.5 13 0.5C9.66198 0.5 6.52145 1.80092 4.16114 4.16118ZM13 17.132C10.7221 17.132 8.868 15.2779 8.868 13C8.868 10.7221 10.722 8.86805 13 8.86805C15.2779 8.86805 17.1319 10.7221 17.1319 13C17.1319 15.2779 15.2779 17.132 13 17.132Z" fill="#5991D0" stroke="#5991D0"/>
</svg>
