<svg width="120" height="120" viewBox="0 0 120 120" fill="none" xmlns="http://www.w3.org/2000/svg">
<path d="M18.8086 65.7822C18.4356 65.7822 18.0779 65.9304 17.8142 66.1941C17.5505 66.4578 17.4023 66.8155 17.4023 67.1885V91.8119C17.4023 92.1849 17.5505 92.5426 17.8142 92.8063C18.0779 93.07 18.4356 93.2182 18.8086 93.2182C19.1816 93.2182 19.5392 93.07 19.803 92.8063C20.0667 92.5426 20.2148 92.1849 20.2148 91.8119V67.1885C20.2148 66.8155 20.0667 66.4578 19.803 66.1941C19.5392 65.9304 19.1816 65.7822 18.8086 65.7822Z" fill="#5991D0"/>
<path d="M18.8086 60C18.4356 60 18.0779 60.1482 17.8142 60.4119C17.5505 60.6756 17.4023 61.0333 17.4023 61.4063V63.0586C17.4023 63.4316 17.5505 63.7892 17.8142 64.053C18.0779 64.3167 18.4356 64.4648 18.8086 64.4648C19.1816 64.4648 19.5392 64.3167 19.803 64.053C20.0667 63.7892 20.2148 63.4316 20.2148 63.0586V61.4063C20.2148 61.0333 20.0667 60.6756 19.803 60.4119C19.5392 60.1482 19.1816 60 18.8086 60V60Z" fill="#5991D0"/>
<path d="M56.4354 84.6775C56.7384 84.7657 57.0622 84.7495 57.3549 84.6314C57.6475 84.5133 57.8919 84.3002 58.0488 84.0264L69.3879 64.2381C69.5145 64.0171 69.5787 63.7657 69.5736 63.511C69.5686 63.2563 69.4944 63.0077 69.359 62.7918C69.2236 62.576 69.0321 62.401 68.805 62.2855C68.5779 62.1701 68.3237 62.1185 68.0695 62.1362L64.7803 62.3666L66.5041 57.1914C66.5747 56.98 66.594 56.7548 66.5605 56.5345C66.5269 56.3141 66.4415 56.1049 66.3112 55.924C66.1809 55.7432 66.0095 55.5959 65.8111 55.4943C65.6127 55.3928 65.3929 55.3398 65.1701 55.3398H56.1799C55.8462 55.3398 55.5234 55.4585 55.2691 55.6746C55.0149 55.8907 54.8457 56.1901 54.7919 56.5195L52.331 71.5851C52.2981 71.7861 52.3092 71.9919 52.3636 72.1882C52.4181 72.3845 52.5145 72.5667 52.6463 72.7221C52.7781 72.8774 52.9421 73.0023 53.1269 73.088C53.3117 73.1738 53.5129 73.2184 53.7166 73.2187L55.89 73.2215L55.4238 83.2619C55.4091 83.5771 55.5009 83.8881 55.6844 84.1449C55.8679 84.4017 56.1324 84.5893 56.4354 84.6775V84.6775ZM55.3727 70.4083L57.3745 58.153H63.2194L61.4475 63.4717C61.3741 63.6911 61.3561 63.9252 61.3949 64.1533C61.4336 64.3814 61.5281 64.5963 61.6699 64.7792C61.8116 64.962 61.9963 65.107 62.2075 65.2014C62.4187 65.2958 62.6499 65.3366 62.8807 65.3202L65.6383 65.1271L58.5042 77.5773L58.7686 71.8834C58.7774 71.6936 58.7476 71.504 58.6811 71.326C58.6146 71.148 58.5127 70.9854 58.3816 70.8479C58.2505 70.7103 58.0928 70.6008 57.9182 70.5259C57.7436 70.451 57.5556 70.4123 57.3656 70.412L55.3727 70.4083Z" fill="#5991D0"/>
<path d="M59.9977 91.6503C63.5275 91.6447 67.0059 90.8031 70.1478 89.1943C73.2898 87.5856 76.006 85.2555 78.0741 82.3948C78.1837 82.2451 78.2627 82.0752 78.3064 81.8949C78.35 81.7146 78.3576 81.5274 78.3286 81.3441C78.2997 81.1609 78.2347 80.9852 78.1375 80.8271C78.0403 80.6691 77.9128 80.5318 77.7623 80.4233C77.6119 80.3147 77.4414 80.237 77.2607 80.1947C77.0801 80.1523 76.8929 80.1461 76.7098 80.1764C76.5268 80.2068 76.3515 80.273 76.1942 80.3714C76.0369 80.4697 75.9006 80.5982 75.7931 80.7495C73.0835 84.514 69.1186 87.1871 64.6127 88.2875C60.1068 89.3878 55.3561 88.8429 51.2163 86.7511C47.0766 84.6592 43.8198 81.1578 42.0328 76.8776C40.2457 72.5974 40.0458 67.8198 41.469 63.4052C42.8923 58.9907 45.8451 55.2295 49.7956 52.7991C53.7462 50.3687 58.4348 49.4289 63.0168 50.1489C67.5989 50.8689 71.7732 53.2015 74.7879 56.7265C77.8026 60.2514 79.4595 64.737 79.4602 69.3753C79.4661 72.0594 78.9128 74.7154 77.8355 77.1739C77.6859 77.5155 77.6782 77.9026 77.814 78.25C77.9498 78.5974 78.218 78.8766 78.5597 79.0261C78.9014 79.1757 79.2885 79.1835 79.6358 79.0477C79.9832 78.9118 80.2624 78.6436 80.412 78.3019C82.3353 73.9061 82.7881 69.0067 81.7029 64.3328C80.6177 59.6589 78.0525 55.4603 74.3891 52.3616C70.7256 49.2629 66.1596 47.4297 61.3705 47.1349C56.5813 46.84 51.8249 48.0992 47.809 50.7251C43.7931 53.351 40.7323 57.2033 39.0819 61.7088C37.4316 66.2142 37.2799 71.1321 38.6495 75.7307C40.0191 80.3293 42.8367 84.3629 46.6832 87.2312C50.5297 90.0996 55.1994 91.6495 59.9977 91.6503V91.6503Z" fill="#5991D0"/>
<mask id="path-5-outside-1" maskUnits="userSpaceOnUse" x="5.52344" y="12.7109" width="109" height="95" fill="black">
<rect fill="white" x="5.52344" y="12.7109" width="109" height="95"/>
<path d="M112.067 29.8969H110.389V25.6031C110.389 25.2302 110.241 24.8725 109.977 24.6088C109.713 24.345 109.356 24.1969 108.983 24.1969H104.764V23.0859C104.764 21.4698 104.122 19.9198 102.979 18.777C101.836 17.6342 100.286 16.9922 98.6703 16.9922C97.0542 16.9922 95.5042 17.6342 94.3614 18.777C93.2186 19.9198 92.5766 21.4698 92.5766 23.0859V24.1969H88.3578C87.9849 24.1969 87.6272 24.345 87.3635 24.6088C87.0997 24.8725 86.9516 25.2302 86.9516 25.6031V29.8969H80.3891V15.1172C80.3891 14.7442 80.2409 14.3865 79.9772 14.1228C79.7135 13.8591 79.3558 13.7109 78.9828 13.7109H41.0141C40.6411 13.7109 40.2834 13.8591 40.0197 14.1228C39.756 14.3865 39.6078 14.7442 39.6078 15.1172V29.8969H33.0453V25.6031C33.0453 25.2302 32.8972 24.8725 32.6334 24.6088C32.3697 24.345 32.012 24.1969 31.6391 24.1969H27.4203V23.0859C27.4203 21.4698 26.7783 19.9198 25.6355 18.777C24.4927 17.6342 22.9427 16.9922 21.3266 16.9922C19.7104 16.9922 18.1604 17.6342 17.0176 18.777C15.8748 19.9198 15.2328 21.4698 15.2328 23.0859V24.1969H11.0141C10.6411 24.1969 10.2834 24.345 10.0197 24.6088C9.75597 24.8725 9.60781 25.2302 9.60781 25.6031V29.8969H7.92969C7.55673 29.8969 7.19904 30.045 6.93532 30.3088C6.6716 30.5725 6.52344 30.9302 6.52344 31.3031V42.0563C6.52344 42.4292 6.6716 42.7869 6.93532 43.0506C7.19904 43.3143 7.55673 43.4625 7.92969 43.4625H11.6V95.5359H7.92969C7.55673 95.5359 7.19904 95.6841 6.93532 95.9478C6.6716 96.2115 6.52344 96.5692 6.52344 96.9422V104.883C6.52344 105.256 6.6716 105.613 6.93532 105.877C7.19904 106.141 7.55673 106.289 7.92969 106.289H112.067C112.44 106.289 112.798 106.141 113.062 105.877C113.325 105.613 113.473 105.256 113.473 104.883V96.9422C113.473 96.5692 113.325 96.2115 113.062 95.9478C112.798 95.6841 112.44 95.5359 112.067 95.5359H108.163V43.4625H112.067C112.44 43.4625 112.798 43.3143 113.062 43.0506C113.325 42.7869 113.473 42.4292 113.473 42.0563V31.3031C113.473 30.9302 113.325 30.5725 113.062 30.3088C112.798 30.045 112.44 29.8969 112.067 29.8969V29.8969ZM95.3891 23.0859C95.3891 22.2157 95.7348 21.3811 96.3501 20.7657C96.9655 20.1504 97.8001 19.8047 98.6703 19.8047C99.5406 19.8047 100.375 20.1504 100.991 20.7657C101.606 21.3811 101.952 22.2157 101.952 23.0859V24.1969H95.3891V23.0859ZM89.7641 27.0094H107.577V29.8969H89.7641V27.0094ZM42.4203 16.5234H77.5766V29.8969H73.8266V21.6797C73.8266 21.3067 73.6784 20.949 73.4147 20.6853C73.151 20.4216 72.7933 20.2734 72.4203 20.2734H47.5766C47.2036 20.2734 46.8459 20.4216 46.5822 20.6853C46.3185 20.949 46.1703 21.3067 46.1703 21.6797V29.8969H42.4203V16.5234ZM71.0141 23.0859V29.8969H48.9828V23.0859H71.0141ZM18.0453 23.0859C18.0453 22.2157 18.391 21.3811 19.0064 20.7657C19.6217 20.1504 20.4563 19.8047 21.3266 19.8047C22.1968 19.8047 23.0314 20.1504 23.6468 20.7657C24.2621 21.3811 24.6078 22.2157 24.6078 23.0859V24.1969H18.0453V23.0859ZM12.4203 27.0094H30.2328V29.8969H12.4203V27.0094ZM110.661 40.65H30.7016C30.3286 40.65 29.9709 40.7982 29.7072 41.0619C29.4435 41.3256 29.2953 41.6833 29.2953 42.0563C29.2953 42.4292 29.4435 42.7869 29.7072 43.0506C29.9709 43.3143 30.3286 43.4625 30.7016 43.4625H105.35V95.5359H91.3267C90.9537 95.5359 90.596 95.6841 90.3323 95.9478C90.0686 96.2115 89.9204 96.5692 89.9204 96.9422C89.9204 97.3151 90.0686 97.6728 90.3323 97.9366C90.596 98.2003 90.9537 98.3484 91.3267 98.3484H110.661V103.477H9.33594V98.3484H85.6234C85.9963 98.3484 86.354 98.2003 86.6177 97.9366C86.8815 97.6728 87.0296 97.3151 87.0296 96.9422C87.0296 96.5692 86.8815 96.2115 86.6177 95.9478C86.354 95.6841 85.9963 95.5359 85.6234 95.5359H14.4125V43.4625H25.2329C25.6059 43.4625 25.9635 43.3143 26.2273 43.0506C26.491 42.7869 26.6391 42.4292 26.6391 42.0563C26.6391 41.6833 26.491 41.3256 26.2273 41.0619C25.9635 40.7982 25.6059 40.65 25.2329 40.65H9.33594V32.7094H110.661V40.65Z"/>
</mask>
<path d="M112.067 29.8969H110.389V25.6031C110.389 25.2302 110.241 24.8725 109.977 24.6088C109.713 24.345 109.356 24.1969 108.983 24.1969H104.764V23.0859C104.764 21.4698 104.122 19.9198 102.979 18.777C101.836 17.6342 100.286 16.9922 98.6703 16.9922C97.0542 16.9922 95.5042 17.6342 94.3614 18.777C93.2186 19.9198 92.5766 21.4698 92.5766 23.0859V24.1969H88.3578C87.9849 24.1969 87.6272 24.345 87.3635 24.6088C87.0997 24.8725 86.9516 25.2302 86.9516 25.6031V29.8969H80.3891V15.1172C80.3891 14.7442 80.2409 14.3865 79.9772 14.1228C79.7135 13.8591 79.3558 13.7109 78.9828 13.7109H41.0141C40.6411 13.7109 40.2834 13.8591 40.0197 14.1228C39.756 14.3865 39.6078 14.7442 39.6078 15.1172V29.8969H33.0453V25.6031C33.0453 25.2302 32.8972 24.8725 32.6334 24.6088C32.3697 24.345 32.012 24.1969 31.6391 24.1969H27.4203V23.0859C27.4203 21.4698 26.7783 19.9198 25.6355 18.777C24.4927 17.6342 22.9427 16.9922 21.3266 16.9922C19.7104 16.9922 18.1604 17.6342 17.0176 18.777C15.8748 19.9198 15.2328 21.4698 15.2328 23.0859V24.1969H11.0141C10.6411 24.1969 10.2834 24.345 10.0197 24.6088C9.75597 24.8725 9.60781 25.2302 9.60781 25.6031V29.8969H7.92969C7.55673 29.8969 7.19904 30.045 6.93532 30.3088C6.6716 30.5725 6.52344 30.9302 6.52344 31.3031V42.0563C6.52344 42.4292 6.6716 42.7869 6.93532 43.0506C7.19904 43.3143 7.55673 43.4625 7.92969 43.4625H11.6V95.5359H7.92969C7.55673 95.5359 7.19904 95.6841 6.93532 95.9478C6.6716 96.2115 6.52344 96.5692 6.52344 96.9422V104.883C6.52344 105.256 6.6716 105.613 6.93532 105.877C7.19904 106.141 7.55673 106.289 7.92969 106.289H112.067C112.44 106.289 112.798 106.141 113.062 105.877C113.325 105.613 113.473 105.256 113.473 104.883V96.9422C113.473 96.5692 113.325 96.2115 113.062 95.9478C112.798 95.6841 112.44 95.5359 112.067 95.5359H108.163V43.4625H112.067C112.44 43.4625 112.798 43.3143 113.062 43.0506C113.325 42.7869 113.473 42.4292 113.473 42.0563V31.3031C113.473 30.9302 113.325 30.5725 113.062 30.3088C112.798 30.045 112.44 29.8969 112.067 29.8969V29.8969ZM95.3891 23.0859C95.3891 22.2157 95.7348 21.3811 96.3501 20.7657C96.9655 20.1504 97.8001 19.8047 98.6703 19.8047C99.5406 19.8047 100.375 20.1504 100.991 20.7657C101.606 21.3811 101.952 22.2157 101.952 23.0859V24.1969H95.3891V23.0859ZM89.7641 27.0094H107.577V29.8969H89.7641V27.0094ZM42.4203 16.5234H77.5766V29.8969H73.8266V21.6797C73.8266 21.3067 73.6784 20.949 73.4147 20.6853C73.151 20.4216 72.7933 20.2734 72.4203 20.2734H47.5766C47.2036 20.2734 46.8459 20.4216 46.5822 20.6853C46.3185 20.949 46.1703 21.3067 46.1703 21.6797V29.8969H42.4203V16.5234ZM71.0141 23.0859V29.8969H48.9828V23.0859H71.0141ZM18.0453 23.0859C18.0453 22.2157 18.391 21.3811 19.0064 20.7657C19.6217 20.1504 20.4563 19.8047 21.3266 19.8047C22.1968 19.8047 23.0314 20.1504 23.6468 20.7657C24.2621 21.3811 24.6078 22.2157 24.6078 23.0859V24.1969H18.0453V23.0859ZM12.4203 27.0094H30.2328V29.8969H12.4203V27.0094ZM110.661 40.65H30.7016C30.3286 40.65 29.9709 40.7982 29.7072 41.0619C29.4435 41.3256 29.2953 41.6833 29.2953 42.0563C29.2953 42.4292 29.4435 42.7869 29.7072 43.0506C29.9709 43.3143 30.3286 43.4625 30.7016 43.4625H105.35V95.5359H91.3267C90.9537 95.5359 90.596 95.6841 90.3323 95.9478C90.0686 96.2115 89.9204 96.5692 89.9204 96.9422C89.9204 97.3151 90.0686 97.6728 90.3323 97.9366C90.596 98.2003 90.9537 98.3484 91.3267 98.3484H110.661V103.477H9.33594V98.3484H85.6234C85.9963 98.3484 86.354 98.2003 86.6177 97.9366C86.8815 97.6728 87.0296 97.3151 87.0296 96.9422C87.0296 96.5692 86.8815 96.2115 86.6177 95.9478C86.354 95.6841 85.9963 95.5359 85.6234 95.5359H14.4125V43.4625H25.2329C25.6059 43.4625 25.9635 43.3143 26.2273 43.0506C26.491 42.7869 26.6391 42.4292 26.6391 42.0563C26.6391 41.6833 26.491 41.3256 26.2273 41.0619C25.9635 40.7982 25.6059 40.65 25.2329 40.65H9.33594V32.7094H110.661V40.65Z" fill="#5991D0"/>
<path d="M112.067 29.8969H110.389V25.6031C110.389 25.2302 110.241 24.8725 109.977 24.6088C109.713 24.345 109.356 24.1969 108.983 24.1969H104.764V23.0859C104.764 21.4698 104.122 19.9198 102.979 18.777C101.836 17.6342 100.286 16.9922 98.6703 16.9922C97.0542 16.9922 95.5042 17.6342 94.3614 18.777C93.2186 19.9198 92.5766 21.4698 92.5766 23.0859V24.1969H88.3578C87.9849 24.1969 87.6272 24.345 87.3635 24.6088C87.0997 24.8725 86.9516 25.2302 86.9516 25.6031V29.8969H80.3891V15.1172C80.3891 14.7442 80.2409 14.3865 79.9772 14.1228C79.7135 13.8591 79.3558 13.7109 78.9828 13.7109H41.0141C40.6411 13.7109 40.2834 13.8591 40.0197 14.1228C39.756 14.3865 39.6078 14.7442 39.6078 15.1172V29.8969H33.0453V25.6031C33.0453 25.2302 32.8972 24.8725 32.6334 24.6088C32.3697 24.345 32.012 24.1969 31.6391 24.1969H27.4203V23.0859C27.4203 21.4698 26.7783 19.9198 25.6355 18.777C24.4927 17.6342 22.9427 16.9922 21.3266 16.9922C19.7104 16.9922 18.1604 17.6342 17.0176 18.777C15.8748 19.9198 15.2328 21.4698 15.2328 23.0859V24.1969H11.0141C10.6411 24.1969 10.2834 24.345 10.0197 24.6088C9.75597 24.8725 9.60781 25.2302 9.60781 25.6031V29.8969H7.92969C7.55673 29.8969 7.19904 30.045 6.93532 30.3088C6.6716 30.5725 6.52344 30.9302 6.52344 31.3031V42.0563C6.52344 42.4292 6.6716 42.7869 6.93532 43.0506C7.19904 43.3143 7.55673 43.4625 7.92969 43.4625H11.6V95.5359H7.92969C7.55673 95.5359 7.19904 95.6841 6.93532 95.9478C6.6716 96.2115 6.52344 96.5692 6.52344 96.9422V104.883C6.52344 105.256 6.6716 105.613 6.93532 105.877C7.19904 106.141 7.55673 106.289 7.92969 106.289H112.067C112.44 106.289 112.798 106.141 113.062 105.877C113.325 105.613 113.473 105.256 113.473 104.883V96.9422C113.473 96.5692 113.325 96.2115 113.062 95.9478C112.798 95.6841 112.44 95.5359 112.067 95.5359H108.163V43.4625H112.067C112.44 43.4625 112.798 43.3143 113.062 43.0506C113.325 42.7869 113.473 42.4292 113.473 42.0563V31.3031C113.473 30.9302 113.325 30.5725 113.062 30.3088C112.798 30.045 112.44 29.8969 112.067 29.8969V29.8969ZM95.3891 23.0859C95.3891 22.2157 95.7348 21.3811 96.3501 20.7657C96.9655 20.1504 97.8001 19.8047 98.6703 19.8047C99.5406 19.8047 100.375 20.1504 100.991 20.7657C101.606 21.3811 101.952 22.2157 101.952 23.0859V24.1969H95.3891V23.0859ZM89.7641 27.0094H107.577V29.8969H89.7641V27.0094ZM42.4203 16.5234H77.5766V29.8969H73.8266V21.6797C73.8266 21.3067 73.6784 20.949 73.4147 20.6853C73.151 20.4216 72.7933 20.2734 72.4203 20.2734H47.5766C47.2036 20.2734 46.8459 20.4216 46.5822 20.6853C46.3185 20.949 46.1703 21.3067 46.1703 21.6797V29.8969H42.4203V16.5234ZM71.0141 23.0859V29.8969H48.9828V23.0859H71.0141ZM18.0453 23.0859C18.0453 22.2157 18.391 21.3811 19.0064 20.7657C19.6217 20.1504 20.4563 19.8047 21.3266 19.8047C22.1968 19.8047 23.0314 20.1504 23.6468 20.7657C24.2621 21.3811 24.6078 22.2157 24.6078 23.0859V24.1969H18.0453V23.0859ZM12.4203 27.0094H30.2328V29.8969H12.4203V27.0094ZM110.661 40.65H30.7016C30.3286 40.65 29.9709 40.7982 29.7072 41.0619C29.4435 41.3256 29.2953 41.6833 29.2953 42.0563C29.2953 42.4292 29.4435 42.7869 29.7072 43.0506C29.9709 43.3143 30.3286 43.4625 30.7016 43.4625H105.35V95.5359H91.3267C90.9537 95.5359 90.596 95.6841 90.3323 95.9478C90.0686 96.2115 89.9204 96.5692 89.9204 96.9422C89.9204 97.3151 90.0686 97.6728 90.3323 97.9366C90.596 98.2003 90.9537 98.3484 91.3267 98.3484H110.661V103.477H9.33594V98.3484H85.6234C85.9963 98.3484 86.354 98.2003 86.6177 97.9366C86.8815 97.6728 87.0296 97.3151 87.0296 96.9422C87.0296 96.5692 86.8815 96.2115 86.6177 95.9478C86.354 95.6841 85.9963 95.5359 85.6234 95.5359H14.4125V43.4625H25.2329C25.6059 43.4625 25.9635 43.3143 26.2273 43.0506C26.491 42.7869 26.6391 42.4292 26.6391 42.0563C26.6391 41.6833 26.491 41.3256 26.2273 41.0619C25.9635 40.7982 25.6059 40.65 25.2329 40.65H9.33594V32.7094H110.661V40.65Z" stroke="#5991D0" stroke-width="2" mask="url(#path-5-outside-1)"/>
</svg>
