<svg width="120" height="120" viewBox="0 0 120 120" fill="none" xmlns="http://www.w3.org/2000/svg">
<g clip-path="url(#clip0)">
<path d="M78.4376 0H41.5624C18.6448 0 0 18.6448 0 41.5624V78.4376C0 101.355 18.6448 120 41.5624 120H78.4373C101.355 120 120 101.355 120 78.4376V41.5624C120 18.6448 101.355 0 78.4376 0ZM110.625 78.4376C110.625 96.1859 96.1859 110.625 78.4376 110.625H41.5624C23.8141 110.625 9.375 96.1859 9.375 78.4376V41.5624C9.375 23.8141 23.8141 9.375 41.5624 9.375H78.4373C96.1859 9.375 110.625 23.8141 110.625 41.5624V78.4376ZM101.562 60C101.562 82.9177 82.9177 101.562 60 101.562C37.0823 101.562 18.4376 82.9177 18.4376 60C18.4376 44.6998 26.7298 31.2234 39.2149 24.0009C41.4558 22.7051 44.3231 23.4703 45.6197 25.7114C46.916 27.9525 46.1503 30.8198 43.9095 32.1162C33.9806 37.8595 27.8128 48.5442 27.8128 60C27.8128 77.7483 42.252 92.1874 60.0002 92.1874C77.7485 92.1874 92.1874 77.7483 92.1874 60C92.1874 48.5442 86.0196 37.8595 76.0906 32.1157C73.8497 30.8196 73.084 27.9518 74.3803 25.7112C75.6769 23.4698 78.5445 22.7041 80.7851 24.0009C93.2616 31.2183 101.562 44.6892 101.562 60ZM55.3125 60V23.1251C55.3125 20.5362 57.4111 18.4376 60 18.4376C62.5889 18.4376 64.6875 20.5362 64.6875 23.1251V60C64.6875 62.5889 62.5889 64.6875 60 64.6875C57.4111 64.6875 55.3125 62.5889 55.3125 60Z" fill="#5991D0"/>
</g>
<defs>
<clipPath id="clip0">
<rect width="120" height="120" fill="white"/>
</clipPath>
</defs>
</svg>
