<svg width="120" height="120" viewBox="0 0 120 120" fill="none" xmlns="http://www.w3.org/2000/svg">
<g clip-path="url(#clip0)">
<path d="M118.105 0H111.79C110.743 0 109.895 0.848437 109.895 1.89469V54.9359H101.742C100.696 54.9359 99.8476 55.7843 99.8476 56.8306C99.8476 57.877 100.696 58.7252 101.742 58.7252H111.358C112.641 58.7252 113.684 57.6816 113.684 56.3991V3.78938H116.211V56.3991C116.211 59.0749 114.034 61.2516 111.358 61.2516H72.1407V58.7252H94.7951C95.8419 58.7252 96.6898 57.8768 96.6898 56.8306C96.6898 55.7841 95.8416 54.9359 94.7951 54.9359H70.246C69.1993 54.9359 68.3513 55.7843 68.3513 56.8306V58.1051H64.633C63.5862 58.1051 62.7383 58.9535 62.7383 59.9998C62.7383 61.0463 63.5862 61.8945 64.633 61.8945H68.3513V63.1463C68.3513 64.193 69.1995 65.0409 70.246 65.0409H111.358C116.123 65.0409 120 61.1641 120 56.3988V1.89469C120 0.848437 119.152 0 118.105 0Z" fill="#5991D0" stroke="#5991D0"/>
<path d="M55.3673 58.1055H51.6488V56.8537C51.6488 55.8072 50.8008 54.959 49.7541 54.959H8.64234C3.8768 54.9588 0 58.8355 0 63.6006V118.105C0 119.152 0.848203 120 1.89469 120H8.21039C9.25711 120 10.1051 119.152 10.1051 118.105V65.0641H23.1762C24.2229 65.0641 25.0709 64.2159 25.0709 63.1694C25.0709 62.1227 24.2229 61.2747 23.1762 61.2747H8.64234C7.35938 61.2747 6.31594 62.3181 6.31594 63.6006V116.211H3.78938V63.6006C3.78938 60.925 5.96625 58.7481 8.64211 58.7481H47.8594V61.2745H29.9977C28.9509 61.2745 28.103 62.1227 28.103 63.1691C28.103 64.2156 28.9512 65.0638 29.9977 65.0638H49.7541C50.8008 65.0638 51.6488 64.2156 51.6488 63.1691V61.8948H55.3673C56.4141 61.8948 57.262 61.0464 57.262 60.0002C57.262 58.9537 56.4138 58.1055 55.3673 58.1055Z" fill="#5991D0" stroke="#5991D0"/>
<path d="M48.3994 67.9602L48.3993 67.9601C47.7379 66.8149 46.2732 66.4227 45.1282 67.0836L45.1282 67.0837L38.346 70.9994C38.346 70.9994 38.346 70.9994 38.346 70.9994C37.2008 71.6606 36.8083 73.1254 37.4695 74.2706L37.4696 74.2707C37.9136 75.0392 38.7191 75.4682 39.545 75.4682C39.9515 75.4682 40.3643 75.3646 40.7407 75.1471C40.7408 75.1471 40.7408 75.1471 40.7408 75.1471C40.7408 75.1471 40.7409 75.1471 40.7409 75.147L47.5228 71.2314L47.5229 71.2314C48.668 70.57 49.0606 69.1055 48.3994 67.9602Z" fill="#5991D0" stroke="#5991D0"/>
<path d="M71.5984 52.0392L71.5985 52.0393C72.0425 52.8078 72.848 53.2368 73.6739 53.2368C74.0807 53.2368 74.4934 53.1328 74.8695 52.9158L74.8696 52.9157L81.6517 49C82.797 48.3388 83.1895 46.874 82.5283 45.7288L82.5283 45.7288C81.8668 44.5832 80.402 44.1914 79.2571 44.8523L79.2571 44.8523L72.4749 48.768L72.4749 48.768C71.3298 49.4294 70.9372 50.8939 71.5984 52.0392Z" fill="#5991D0" stroke="#5991D0"/>
<path d="M53.301 72.863L53.301 72.863C52.1562 72.2022 50.6909 72.5938 50.0298 73.7395C50.0298 73.7396 50.0297 73.7396 50.0297 73.7397L46.1141 80.5217L46.1141 80.5217C45.453 81.6668 45.8451 83.1316 46.9906 83.7929C47.3671 84.0102 47.7795 84.1139 48.1863 84.1139C49.0125 84.1139 49.8181 83.685 50.2618 82.9163C50.2618 82.9163 50.2618 82.9163 50.2618 82.9163L54.1775 76.1342L54.1776 76.1342C54.8387 74.9887 54.4463 73.5242 53.301 72.863Z" fill="#5991D0" stroke="#5991D0"/>
<path d="M66.6976 47.1363L66.6977 47.1364C67.0743 47.3537 67.4866 47.4574 67.8933 47.4574C68.7196 47.4574 69.5251 47.0281 69.9688 46.2596L73.8845 39.4772C74.5457 38.3321 74.1536 36.8672 73.0079 36.206L73.0079 36.206C71.8621 35.5447 70.3978 35.9369 69.7368 37.0825C69.7368 37.0826 69.7367 37.0826 69.7367 37.0827L65.8211 43.8649L65.821 43.865C65.16 45.0106 65.5523 46.4751 66.6976 47.1363Z" fill="#5991D0" stroke="#5991D0"/>
<path d="M60.0001 74.6582C58.6773 74.6582 57.6055 75.73 57.6055 77.0529V84.8845C57.6055 86.2074 58.6776 87.2792 60.0001 87.2792C61.323 87.2792 62.3948 86.2074 62.3948 84.8845V77.0529C62.3948 75.73 61.323 74.6582 60.0001 74.6582Z" fill="#5991D0" stroke="#5991D0"/>
<path d="M60.0001 32.7207C58.6772 32.7207 57.6055 33.7931 57.6055 35.1154V42.947C57.6055 44.2697 58.6775 45.3417 60.0001 45.3417C61.3231 45.3417 62.3948 44.2693 62.3948 42.947V35.1154C62.3948 33.7928 61.323 32.7207 60.0001 32.7207Z" fill="#5991D0" stroke="#5991D0"/>
<path d="M66.6976 72.8639L66.6976 72.8639C65.5524 73.5251 65.1599 74.9899 65.8211 76.1352L65.8211 76.1352L69.7368 82.9173L69.7368 82.9174C70.1808 83.6859 70.9863 84.1149 71.8123 84.1149C72.2188 84.1149 72.6317 84.0112 73.0081 83.7937C74.1533 83.1325 74.5457 81.6678 73.8845 80.5226L73.8845 80.5226L69.9688 73.7405C69.9688 73.7405 69.9688 73.7405 69.9688 73.7405C69.3076 72.5952 67.8425 72.203 66.6976 72.8639Z" fill="#5991D0" stroke="#5991D0"/>
<path d="M52.1053 47.4574C51.2794 47.4574 50.4735 47.0285 50.0297 46.2598L50.4628 46.0098L50.0297 46.2598L46.114 39.4772C46.114 39.4772 46.114 39.4772 46.114 39.4772C45.4529 38.332 45.8453 36.8673 46.9904 36.2061L52.1053 47.4574ZM52.1053 47.4574C52.5118 47.4574 52.9247 47.3538 53.3011 47.1362M52.1053 47.4574L53.3011 47.1362M53.3011 47.1362C54.4462 46.475 54.8386 45.0103 54.1775 43.8651M53.3011 47.1362L54.1775 43.8651M54.1775 43.8651C54.1775 43.8651 54.1775 43.8651 54.1775 43.8651M54.1775 43.8651L54.1775 43.8651M54.1775 43.8651L50.2619 37.0827L54.1775 43.8651ZM50.2618 37.0825C49.6008 35.9371 48.1353 35.5446 46.9906 36.206L50.2618 37.0825Z" fill="#5991D0" stroke="#5991D0"/>
<path d="M81.6562 70.9994L81.6562 70.9994C82.8014 71.6606 83.1939 73.1254 82.5327 74.2706C82.0889 75.0393 81.2833 75.4682 80.4572 75.4682C80.0505 75.4682 79.6382 75.3645 79.2616 75.1473L79.2615 75.1472L72.479 71.2315C72.4789 71.2315 72.4789 71.2315 72.4789 71.2315C71.3334 70.5703 70.9413 69.1055 71.6023 67.9604L81.6562 70.9994ZM81.6562 70.9994L74.8736 67.0837L74.8734 67.0836M81.6562 70.9994L74.8734 67.0836M74.8734 67.0836C73.7278 66.423 72.2635 66.8145 71.6024 67.9603L74.8734 67.0836Z" fill="#5991D0" stroke="#5991D0"/>
<path d="M38.3462 48.9999L38.3462 48.9999C37.2009 48.3386 36.8082 46.8741 37.4697 45.729L38.3462 48.9999ZM38.3462 48.9999L45.1283 52.9159L45.1283 52.9159M38.3462 48.9999L45.1283 52.9159M45.1283 52.9159C45.5048 53.1332 45.9172 53.2369 46.324 53.2369C47.1503 53.2369 47.9555 52.808 48.3995 52.0395L48.3995 52.0393M45.1283 52.9159L48.3995 52.0393M48.3995 52.0393C49.0607 50.8942 48.6686 49.4293 47.523 48.7681M48.3995 52.0393L47.523 48.7681M47.523 48.7681L40.7409 44.8525C40.7409 44.8524 40.7409 44.8524 40.7409 44.8524C39.596 44.1913 38.1313 44.5832 37.4697 45.7288L47.523 48.7681Z" fill="#5991D0" stroke="#5991D0"/>
</g>
<defs>
<clipPath id="clip0">
<rect width="120" height="120" fill="white"/>
</clipPath>
</defs>
</svg>
