<svg width="120" height="120" viewBox="0 0 120 120" fill="none" xmlns="http://www.w3.org/2000/svg">
<path d="M93.8384 39.2823V29.2199C93.8384 27.1911 92.1935 25.5465 90.165 25.5465H82.0343V23.7158C82.0343 21.6871 80.3895 20.0425 78.3609 20.0425H41.6393C39.6105 20.0425 37.9659 21.6873 37.9659 23.7158V38.9664H34.2197V10.0279C34.2197 7.9991 32.5748 6.35449 30.5463 6.35449H15.7676C13.7388 6.35449 12.0942 7.99934 12.0942 10.0279C12.0942 12.0564 13.7391 13.7012 15.7676 13.7012H26.873V39.1848C11.8596 40.9733 0 53.7458 0 69.5118C0 81.088 6.42961 91.4816 16.5851 96.6831C16.7461 106.063 24.4209 113.644 33.8379 113.644C42.093 113.644 49.0095 107.815 50.6979 100.057H74.2652L81.2677 111.846C81.9295 112.96 83.1298 113.643 84.4259 113.643H90.7184C92.7471 113.643 94.3917 111.998 94.3917 109.97V99.6606C108.686 97.3499 120 84.935 120 69.5118C120 54.1574 108.611 41.4149 93.8384 39.2823ZM82.0343 32.8935H86.4914V38.9659H82.0343V32.8935ZM45.3127 27.3894H74.6869C74.6869 28.9044 74.6869 37.3049 74.6869 38.9659H45.3127V27.3894ZM33.8381 106.297C28.3718 106.297 23.9248 101.85 23.9248 96.3838C23.9248 90.8331 28.4916 86.4732 33.8381 86.4732C39.3028 86.4732 43.7487 90.9191 43.7487 96.3838C43.7487 101.85 39.3026 106.297 33.8381 106.297ZM87.0448 106.296H86.5165L82.8108 100.057H87.0448V106.296ZM89.4544 92.7102H50.7019C48.9914 84.8561 41.9862 79.1263 33.8379 79.1263C27.1113 79.1263 20.9934 83.0359 18.1685 89.1442C11.4874 84.9491 7.34672 77.6106 7.34672 69.512C7.34672 56.694 17.7197 46.3136 30.5454 46.3136H89.4544C102.246 46.3136 112.653 56.7203 112.653 69.512C112.653 82.33 102.28 92.7102 89.4544 92.7102Z" fill="#5991D0"/>
<path d="M73.4984 57.7412H46.5017C44.473 57.7412 42.8281 59.386 42.8281 61.4146C42.8281 63.4433 44.473 65.0879 46.5017 65.0879H73.4982C75.527 65.0879 77.1716 63.4431 77.1716 61.4146C77.1716 59.386 75.5272 57.7412 73.4984 57.7412Z" fill="#5991D0"/>
</svg>
