<svg width="122" height="122" viewBox="0 0 122 122" fill="none" xmlns="http://www.w3.org/2000/svg">
<mask id="path-1-outside-1" maskUnits="userSpaceOnUse" x="0" y="0.0244141" width="122" height="122" fill="black">
<rect fill="white" y="0.0244141" width="122" height="122"/>
<path fill-rule="evenodd" clip-rule="evenodd" d="M117.782 15.7345H115.428C115.33 15.4903 115.226 15.2484 115.115 15.0089L116.789 13.3354C118.043 12.0815 118.043 10.0413 116.789 8.78738L113.236 5.23426C111.981 3.98012 109.942 3.98012 108.687 5.23426L106.923 6.99934C106.713 6.90863 106.502 6.82238 106.289 6.74059V4.24051C106.289 2.46723 104.846 1.02441 103.073 1.02441H98.0478C96.2745 1.02441 94.8317 2.46723 94.8317 4.24051V6.74059C94.6186 6.82215 94.4072 6.9084 94.1979 6.99934L92.4329 5.23426C91.1785 3.98035 89.1389 3.98059 87.8848 5.23426L84.3317 8.78738C83.0778 10.0413 83.0778 12.0815 84.3317 13.3354L86.0051 15.0086C85.8947 15.2479 85.7904 15.49 85.6922 15.7343H83.3379C81.5649 15.7343 80.1221 17.1768 80.1221 18.9504V23.9754C80.1221 25.7486 81.5646 27.1912 83.3379 27.1912H85.5092C85.6168 27.4856 85.7328 27.7771 85.8572 28.0647L84.3317 29.5903C83.7244 30.1978 83.3897 31.0054 83.3897 31.8644C83.3897 32.7234 83.7244 33.5311 84.3317 34.1386L87.8848 37.6917C89.1392 38.9454 91.1787 38.9456 92.4329 37.6917L93.8665 36.258C94.1839 36.404 94.5059 36.5397 94.8317 36.6646V38.6854C94.8317 40.4587 96.2743 41.9015 98.0478 41.9015H103.073C104.846 41.9015 106.289 40.4587 106.289 38.6854V36.6646C106.615 36.5397 106.937 36.404 107.254 36.258L108.687 37.6917C109.942 38.9458 111.982 38.9458 113.236 37.6917L116.789 34.1386C118.043 32.8846 118.043 30.8444 116.789 29.5905L115.263 28.065C115.388 27.7771 115.504 27.4861 115.611 27.1914H117.782C119.556 27.1914 120.998 25.7489 120.998 23.9756V18.9506C120.998 17.1771 119.556 15.7345 117.782 15.7345ZM117.483 23.6756H114.326C113.532 23.6756 112.837 24.2079 112.629 24.9745C112.383 25.8841 112.033 26.7658 111.589 27.5953C111.223 28.2782 111.347 29.1204 111.895 29.6683L114.091 31.8642L110.962 34.9938L108.835 32.8673C108.276 32.3079 107.412 32.1914 106.724 32.5818C105.877 33.0628 104.975 33.4434 104.042 33.7134C103.291 33.9309 102.773 34.6193 102.773 35.4021V38.3857H98.3473V35.4021C98.3473 34.6195 97.8298 33.9311 97.0782 33.7134C96.1453 33.4434 95.2428 33.0628 94.3962 32.5818C93.7085 32.1914 92.8446 32.3079 92.285 32.8673L90.1589 34.9936L87.0293 31.8642L89.225 29.6683C89.7727 29.1204 89.8971 28.2785 89.5315 27.5955C89.0869 26.7651 88.7365 25.8832 88.4911 24.9745C88.2837 24.2079 87.5881 23.6756 86.7943 23.6756H83.6377V19.2501H86.9323C87.7034 19.2501 88.3845 18.7474 88.6121 18.0105C88.8762 17.1539 89.236 16.3223 89.6813 15.539C90.072 14.8511 89.955 13.987 89.3958 13.4278L87.0296 11.0618L90.1592 7.93238L92.5943 10.3678C93.1423 10.9157 93.9846 11.0402 94.6674 10.6743C95.434 10.2637 96.2454 9.93301 97.0786 9.69207C97.8303 9.47457 98.3478 8.78621 98.3478 8.0034V4.54004H102.773V8.00293C102.773 8.78551 103.291 9.47387 104.043 9.6916C104.876 9.93254 105.687 10.263 106.454 10.6736C107.137 11.0395 107.979 10.915 108.527 10.3671L110.962 7.93168L114.092 11.0613L111.726 13.4273C111.166 13.9865 111.049 14.8504 111.44 15.5383C111.885 16.3221 112.245 17.1539 112.509 18.0103C112.737 18.7474 113.418 19.2499 114.189 19.2499H117.484V23.6756H117.483ZM80.3891 75.802C81.3538 75.802 82.1357 75.0201 82.1357 74.0554C82.1357 73.0907 81.3538 72.3088 80.3891 72.3088C79.4247 72.3088 78.6426 73.0907 78.6426 74.0554C78.6426 75.0201 79.4245 75.802 80.3891 75.802ZM94.0557 21.7023C94.0557 18.1142 96.9746 15.1953 100.563 15.1953C104.151 15.1953 107.07 18.1145 107.07 21.7023C107.07 25.2901 104.151 28.2092 100.563 28.2092C96.9746 28.2092 94.0557 25.2903 94.0557 21.7023ZM97.5713 21.7023C97.5713 23.3516 98.9133 24.6936 100.563 24.6936C102.212 24.6936 103.554 23.3518 103.554 21.7023C103.554 20.0527 102.212 18.7109 100.563 18.7109C98.9133 18.7109 97.5713 20.053 97.5713 21.7023ZM89.224 62.6968H85.5971C84.8079 60.2154 83.772 57.8154 82.5054 55.5333L85.1581 52.8806C87.349 50.6894 87.349 47.1241 85.1581 44.9327L77.0435 36.8184C74.8526 34.6272 71.2868 34.6274 69.0956 36.8184L66.2533 39.6609C64.0235 38.4921 61.6877 37.5398 59.2797 36.8186V32.7524C59.2797 29.6535 56.7585 27.1323 53.6596 27.1323H42.1845C39.0854 27.1323 36.5644 29.6535 36.5644 32.7524V36.8186C34.1567 37.54 31.8207 38.4921 29.5908 39.6609L26.7483 36.8184C24.5574 34.6272 20.9916 34.6274 18.8004 36.8184L10.6861 44.9327C8.49511 47.1239 8.49511 50.6892 10.6861 52.8806L13.3387 55.5333C12.0722 57.8154 11.0362 60.2154 10.2471 62.6968H6.6201C3.52118 62.6968 1 65.2179 1 68.3169V79.7919C1 82.8908 3.52118 85.412 6.6201 85.412H9.86808C10.6087 88.0459 11.6226 90.5957 12.8936 93.0203L10.6858 95.2281C8.49487 97.4193 8.49487 100.985 10.6861 103.176L11.8104 104.3C12.4966 104.987 13.6097 104.986 14.2961 104.3C14.9826 103.614 14.9826 102.501 14.2959 101.814L13.1718 100.69C12.3513 99.8697 12.3513 98.5345 13.1718 97.7139L16.3101 94.5756C16.8696 94.0162 16.9863 93.1516 16.5951 92.4637C14.9508 89.572 13.7184 86.4681 12.9321 83.2382C12.7404 82.4504 12.0349 81.8961 11.2242 81.8961H6.6201C5.45971 81.8961 4.51564 80.9521 4.51564 79.7917V68.3166C4.51564 67.1562 5.45947 66.2122 6.6201 66.2122H11.5554C12.3431 66.2122 13.0347 65.6881 13.2478 64.9297C14.1119 61.8525 15.3886 58.8989 17.0421 56.1504C17.4581 55.4585 17.3498 54.5721 16.7789 54.0012L13.1721 50.3948C12.3515 49.5743 12.3515 48.239 13.1721 47.4185L21.2862 39.3044C22.1067 38.4839 23.4417 38.4839 24.2623 39.3044L28.0353 43.0774C28.595 43.6371 29.4596 43.7533 30.1472 43.3624C32.8578 41.8209 35.7582 40.6394 38.7678 39.851C39.5408 39.6485 40.0801 38.9498 40.0801 38.1506V32.7524C40.0801 31.592 41.0241 30.648 42.1845 30.648H53.6596C54.82 30.648 55.764 31.592 55.764 32.7524V38.1506C55.764 38.9498 56.3033 39.6485 57.0763 39.851C60.0859 40.6396 62.9863 41.8211 65.6969 43.3624C66.3843 43.7533 67.2489 43.6368 67.8089 43.0774L71.5816 39.3044C72.4022 38.4839 73.7372 38.4839 74.5577 39.3044L82.6721 47.4185C83.4926 48.239 83.4926 49.5743 82.6721 50.3948L79.0652 54.0017C78.4943 54.5726 78.386 55.459 78.802 56.1509C80.4558 58.8992 81.7324 61.853 82.5963 64.9301C82.8094 65.6886 83.5008 66.2126 84.2888 66.2126H89.224C90.3844 66.2126 91.3285 67.1567 91.3285 68.3171V79.7921C91.3285 80.9525 90.3847 81.8966 89.224 81.8966H84.6197C83.809 81.8966 83.1035 82.4509 82.9118 83.2386C82.1253 86.4693 80.8929 89.5731 79.2487 92.4641C78.8576 93.152 78.9743 94.0167 79.5338 94.5761L82.6721 97.7142C83.4926 98.5347 83.4926 99.87 82.6721 100.691L74.558 108.805C73.7374 109.625 72.4026 109.625 71.5816 108.805L68.6095 105.833C68.039 105.262 67.1528 105.153 66.4603 105.57C63.532 107.332 60.3747 108.663 57.0763 109.528C56.3033 109.73 55.764 110.429 55.764 111.228V115.357C55.764 116.517 54.82 117.461 53.6596 117.461H42.1845C41.0241 117.461 40.0801 116.517 40.0801 115.357V111.228C40.0801 110.429 39.541 109.73 38.7678 109.528C35.4697 108.663 32.3122 107.332 29.3834 105.57C28.6915 105.153 27.8051 105.262 27.2342 105.833L24.2625 108.805C23.4417 109.625 22.107 109.625 21.2862 108.805L20.0991 107.617C19.4128 106.931 18.2998 106.931 17.6133 107.617C16.9268 108.304 16.9268 109.417 17.6135 110.104L18.8006 111.291C20.9916 113.482 24.5574 113.482 26.7485 111.291L28.766 109.273C31.2422 110.647 33.856 111.749 36.5642 112.56V115.357C36.5642 118.456 39.0854 120.977 42.1843 120.977H53.6594C56.7585 120.977 59.2795 118.456 59.2795 115.357V112.56C61.9881 111.749 64.6014 110.647 67.0774 109.273L69.0954 111.291C71.2863 113.482 74.8521 113.482 77.0433 111.291L85.1576 103.176C87.3485 100.985 87.3485 97.4198 85.1576 95.2284L82.9498 93.0206C84.2208 90.5962 85.2342 88.0469 85.9751 85.4122H89.2233C92.3222 85.4122 94.8434 82.8911 94.8434 79.7921V68.3171C94.8439 65.2179 92.3229 62.6968 89.224 62.6968ZM23.043 74.6894C23.043 62.6646 31.6157 52.3713 43.427 50.2141C44.3809 50.04 45.2976 50.6723 45.472 51.6274C45.6463 52.5827 45.0135 53.4982 44.0587 53.6726C33.9184 55.5244 26.5586 64.3633 26.5586 74.6894C26.5586 86.4703 36.1429 96.0548 47.9237 96.0548C59.7046 96.0548 69.2891 86.4703 69.2891 74.6894C69.2891 64.3523 61.9199 55.5119 51.7673 53.6686C50.8122 53.4951 50.1784 52.5804 50.3519 51.6251C50.5253 50.6697 51.4391 50.0362 52.3954 50.2094C64.2215 52.3565 72.8048 62.6519 72.8048 74.6894C72.8048 88.4088 61.6431 99.5704 47.9237 99.5704C34.2044 99.5704 23.043 88.4088 23.043 74.6894ZM47.9214 92.6919C60.3419 93.0053 69.525 79.3958 64.6317 67.9885C61.8782 61.1235 55.3193 56.6877 47.9214 56.6877C38.242 56.5058 29.7236 64.9867 29.9193 74.6898C29.9196 84.616 37.9952 92.6919 47.9214 92.6919ZM33.7499 71.6666C34.3907 68.6195 36.0457 65.7955 38.4128 63.7691L41.3871 66.0435C41.8216 66.3758 41.9854 66.9636 41.785 67.4729L41.7843 67.4746L40.2002 71.5145C40.0167 71.9828 39.5561 72.2973 39.0541 72.2973H33.6353C33.6703 72.0861 33.7061 71.8752 33.7499 71.6666ZM62.3957 75.276C62.2314 80.7008 58.7526 85.8167 53.7614 87.9524L53.9261 84.7147C54.0105 83.0385 53.1693 81.4585 51.7258 80.5888L50.8755 80.0804C50.3969 79.7931 50.2345 79.1877 50.5052 78.7013L54.8353 70.9281C55.016 70.6028 55.3593 70.4007 55.731 70.4007H61.758C62.2521 71.9717 62.46 73.6311 62.3957 75.276ZM60.1319 66.8849H55.7313C54.0839 66.8849 52.563 67.7795 51.7633 69.2185L47.4342 76.9902C46.2344 79.1434 46.9509 81.8246 49.0689 83.0959C49.1534 83.1488 49.2493 83.2031 49.3501 83.26L49.3503 83.2601C49.8601 83.5483 50.4956 83.9076 50.4152 84.5368L50.1881 88.9981C49.4409 89.1158 48.6827 89.176 47.9214 89.176C40.312 89.176 34.0586 83.2773 33.4828 75.8129H39.0543C41.0205 75.8129 42.7549 74.6296 43.4732 72.7979L45.0567 68.7596C45.8285 66.7974 45.1978 64.5325 43.5227 63.2514L41.4984 61.7035C43.4807 60.7185 45.6628 60.2035 47.9212 60.2035C52.9553 60.2031 57.506 62.7557 60.1319 66.8849ZM17.4306 74.0554C17.4306 75.02 16.6487 75.802 15.6841 75.802C14.7195 75.802 13.9375 75.02 13.9375 74.0554C13.9375 73.0908 14.7195 72.3088 15.6841 72.3088C16.6487 72.3088 17.4306 73.0908 17.4306 74.0554Z"/>
</mask>
<path fill-rule="evenodd" clip-rule="evenodd" d="M117.782 15.7345H115.428C115.33 15.4903 115.226 15.2484 115.115 15.0089L116.789 13.3354C118.043 12.0815 118.043 10.0413 116.789 8.78738L113.236 5.23426C111.981 3.98012 109.942 3.98012 108.687 5.23426L106.923 6.99934C106.713 6.90863 106.502 6.82238 106.289 6.74059V4.24051C106.289 2.46723 104.846 1.02441 103.073 1.02441H98.0478C96.2745 1.02441 94.8317 2.46723 94.8317 4.24051V6.74059C94.6186 6.82215 94.4072 6.9084 94.1979 6.99934L92.4329 5.23426C91.1785 3.98035 89.1389 3.98059 87.8848 5.23426L84.3317 8.78738C83.0778 10.0413 83.0778 12.0815 84.3317 13.3354L86.0051 15.0086C85.8947 15.2479 85.7904 15.49 85.6922 15.7343H83.3379C81.5649 15.7343 80.1221 17.1768 80.1221 18.9504V23.9754C80.1221 25.7486 81.5646 27.1912 83.3379 27.1912H85.5092C85.6168 27.4856 85.7328 27.7771 85.8572 28.0647L84.3317 29.5903C83.7244 30.1978 83.3897 31.0054 83.3897 31.8644C83.3897 32.7234 83.7244 33.5311 84.3317 34.1386L87.8848 37.6917C89.1392 38.9454 91.1787 38.9456 92.4329 37.6917L93.8665 36.258C94.1839 36.404 94.5059 36.5397 94.8317 36.6646V38.6854C94.8317 40.4587 96.2743 41.9015 98.0478 41.9015H103.073C104.846 41.9015 106.289 40.4587 106.289 38.6854V36.6646C106.615 36.5397 106.937 36.404 107.254 36.258L108.687 37.6917C109.942 38.9458 111.982 38.9458 113.236 37.6917L116.789 34.1386C118.043 32.8846 118.043 30.8444 116.789 29.5905L115.263 28.065C115.388 27.7771 115.504 27.4861 115.611 27.1914H117.782C119.556 27.1914 120.998 25.7489 120.998 23.9756V18.9506C120.998 17.1771 119.556 15.7345 117.782 15.7345ZM117.483 23.6756H114.326C113.532 23.6756 112.837 24.2079 112.629 24.9745C112.383 25.8841 112.033 26.7658 111.589 27.5953C111.223 28.2782 111.347 29.1204 111.895 29.6683L114.091 31.8642L110.962 34.9938L108.835 32.8673C108.276 32.3079 107.412 32.1914 106.724 32.5818C105.877 33.0628 104.975 33.4434 104.042 33.7134C103.291 33.9309 102.773 34.6193 102.773 35.4021V38.3857H98.3473V35.4021C98.3473 34.6195 97.8298 33.9311 97.0782 33.7134C96.1453 33.4434 95.2428 33.0628 94.3962 32.5818C93.7085 32.1914 92.8446 32.3079 92.285 32.8673L90.1589 34.9936L87.0293 31.8642L89.225 29.6683C89.7727 29.1204 89.8971 28.2785 89.5315 27.5955C89.0869 26.7651 88.7365 25.8832 88.4911 24.9745C88.2837 24.2079 87.5881 23.6756 86.7943 23.6756H83.6377V19.2501H86.9323C87.7034 19.2501 88.3845 18.7474 88.6121 18.0105C88.8762 17.1539 89.236 16.3223 89.6813 15.539C90.072 14.8511 89.955 13.987 89.3958 13.4278L87.0296 11.0618L90.1592 7.93238L92.5943 10.3678C93.1423 10.9157 93.9846 11.0402 94.6674 10.6743C95.434 10.2637 96.2454 9.93301 97.0786 9.69207C97.8303 9.47457 98.3478 8.78621 98.3478 8.0034V4.54004H102.773V8.00293C102.773 8.78551 103.291 9.47387 104.043 9.6916C104.876 9.93254 105.687 10.263 106.454 10.6736C107.137 11.0395 107.979 10.915 108.527 10.3671L110.962 7.93168L114.092 11.0613L111.726 13.4273C111.166 13.9865 111.049 14.8504 111.44 15.5383C111.885 16.3221 112.245 17.1539 112.509 18.0103C112.737 18.7474 113.418 19.2499 114.189 19.2499H117.484V23.6756H117.483ZM80.3891 75.802C81.3538 75.802 82.1357 75.0201 82.1357 74.0554C82.1357 73.0907 81.3538 72.3088 80.3891 72.3088C79.4247 72.3088 78.6426 73.0907 78.6426 74.0554C78.6426 75.0201 79.4245 75.802 80.3891 75.802ZM94.0557 21.7023C94.0557 18.1142 96.9746 15.1953 100.563 15.1953C104.151 15.1953 107.07 18.1145 107.07 21.7023C107.07 25.2901 104.151 28.2092 100.563 28.2092C96.9746 28.2092 94.0557 25.2903 94.0557 21.7023ZM97.5713 21.7023C97.5713 23.3516 98.9133 24.6936 100.563 24.6936C102.212 24.6936 103.554 23.3518 103.554 21.7023C103.554 20.0527 102.212 18.7109 100.563 18.7109C98.9133 18.7109 97.5713 20.053 97.5713 21.7023ZM89.224 62.6968H85.5971C84.8079 60.2154 83.772 57.8154 82.5054 55.5333L85.1581 52.8806C87.349 50.6894 87.349 47.1241 85.1581 44.9327L77.0435 36.8184C74.8526 34.6272 71.2868 34.6274 69.0956 36.8184L66.2533 39.6609C64.0235 38.4921 61.6877 37.5398 59.2797 36.8186V32.7524C59.2797 29.6535 56.7585 27.1323 53.6596 27.1323H42.1845C39.0854 27.1323 36.5644 29.6535 36.5644 32.7524V36.8186C34.1567 37.54 31.8207 38.4921 29.5908 39.6609L26.7483 36.8184C24.5574 34.6272 20.9916 34.6274 18.8004 36.8184L10.6861 44.9327C8.49511 47.1239 8.49511 50.6892 10.6861 52.8806L13.3387 55.5333C12.0722 57.8154 11.0362 60.2154 10.2471 62.6968H6.6201C3.52118 62.6968 1 65.2179 1 68.3169V79.7919C1 82.8908 3.52118 85.412 6.6201 85.412H9.86808C10.6087 88.0459 11.6226 90.5957 12.8936 93.0203L10.6858 95.2281C8.49487 97.4193 8.49487 100.985 10.6861 103.176L11.8104 104.3C12.4966 104.987 13.6097 104.986 14.2961 104.3C14.9826 103.614 14.9826 102.501 14.2959 101.814L13.1718 100.69C12.3513 99.8697 12.3513 98.5345 13.1718 97.7139L16.3101 94.5756C16.8696 94.0162 16.9863 93.1516 16.5951 92.4637C14.9508 89.572 13.7184 86.4681 12.9321 83.2382C12.7404 82.4504 12.0349 81.8961 11.2242 81.8961H6.6201C5.45971 81.8961 4.51564 80.9521 4.51564 79.7917V68.3166C4.51564 67.1562 5.45947 66.2122 6.6201 66.2122H11.5554C12.3431 66.2122 13.0347 65.6881 13.2478 64.9297C14.1119 61.8525 15.3886 58.8989 17.0421 56.1504C17.4581 55.4585 17.3498 54.5721 16.7789 54.0012L13.1721 50.3948C12.3515 49.5743 12.3515 48.239 13.1721 47.4185L21.2862 39.3044C22.1067 38.4839 23.4417 38.4839 24.2623 39.3044L28.0353 43.0774C28.595 43.6371 29.4596 43.7533 30.1472 43.3624C32.8578 41.8209 35.7582 40.6394 38.7678 39.851C39.5408 39.6485 40.0801 38.9498 40.0801 38.1506V32.7524C40.0801 31.592 41.0241 30.648 42.1845 30.648H53.6596C54.82 30.648 55.764 31.592 55.764 32.7524V38.1506C55.764 38.9498 56.3033 39.6485 57.0763 39.851C60.0859 40.6396 62.9863 41.8211 65.6969 43.3624C66.3843 43.7533 67.2489 43.6368 67.8089 43.0774L71.5816 39.3044C72.4022 38.4839 73.7372 38.4839 74.5577 39.3044L82.6721 47.4185C83.4926 48.239 83.4926 49.5743 82.6721 50.3948L79.0652 54.0017C78.4943 54.5726 78.386 55.459 78.802 56.1509C80.4558 58.8992 81.7324 61.853 82.5963 64.9301C82.8094 65.6886 83.5008 66.2126 84.2888 66.2126H89.224C90.3844 66.2126 91.3285 67.1567 91.3285 68.3171V79.7921C91.3285 80.9525 90.3847 81.8966 89.224 81.8966H84.6197C83.809 81.8966 83.1035 82.4509 82.9118 83.2386C82.1253 86.4693 80.8929 89.5731 79.2487 92.4641C78.8576 93.152 78.9743 94.0167 79.5338 94.5761L82.6721 97.7142C83.4926 98.5347 83.4926 99.87 82.6721 100.691L74.558 108.805C73.7374 109.625 72.4026 109.625 71.5816 108.805L68.6095 105.833C68.039 105.262 67.1528 105.153 66.4603 105.57C63.532 107.332 60.3747 108.663 57.0763 109.528C56.3033 109.73 55.764 110.429 55.764 111.228V115.357C55.764 116.517 54.82 117.461 53.6596 117.461H42.1845C41.0241 117.461 40.0801 116.517 40.0801 115.357V111.228C40.0801 110.429 39.541 109.73 38.7678 109.528C35.4697 108.663 32.3122 107.332 29.3834 105.57C28.6915 105.153 27.8051 105.262 27.2342 105.833L24.2625 108.805C23.4417 109.625 22.107 109.625 21.2862 108.805L20.0991 107.617C19.4128 106.931 18.2998 106.931 17.6133 107.617C16.9268 108.304 16.9268 109.417 17.6135 110.104L18.8006 111.291C20.9916 113.482 24.5574 113.482 26.7485 111.291L28.766 109.273C31.2422 110.647 33.856 111.749 36.5642 112.56V115.357C36.5642 118.456 39.0854 120.977 42.1843 120.977H53.6594C56.7585 120.977 59.2795 118.456 59.2795 115.357V112.56C61.9881 111.749 64.6014 110.647 67.0774 109.273L69.0954 111.291C71.2863 113.482 74.8521 113.482 77.0433 111.291L85.1576 103.176C87.3485 100.985 87.3485 97.4198 85.1576 95.2284L82.9498 93.0206C84.2208 90.5962 85.2342 88.0469 85.9751 85.4122H89.2233C92.3222 85.4122 94.8434 82.8911 94.8434 79.7921V68.3171C94.8439 65.2179 92.3229 62.6968 89.224 62.6968ZM23.043 74.6894C23.043 62.6646 31.6157 52.3713 43.427 50.2141C44.3809 50.04 45.2976 50.6723 45.472 51.6274C45.6463 52.5827 45.0135 53.4982 44.0587 53.6726C33.9184 55.5244 26.5586 64.3633 26.5586 74.6894C26.5586 86.4703 36.1429 96.0548 47.9237 96.0548C59.7046 96.0548 69.2891 86.4703 69.2891 74.6894C69.2891 64.3523 61.9199 55.5119 51.7673 53.6686C50.8122 53.4951 50.1784 52.5804 50.3519 51.6251C50.5253 50.6697 51.4391 50.0362 52.3954 50.2094C64.2215 52.3565 72.8048 62.6519 72.8048 74.6894C72.8048 88.4088 61.6431 99.5704 47.9237 99.5704C34.2044 99.5704 23.043 88.4088 23.043 74.6894ZM47.9214 92.6919C60.3419 93.0053 69.525 79.3958 64.6317 67.9885C61.8782 61.1235 55.3193 56.6877 47.9214 56.6877C38.242 56.5058 29.7236 64.9867 29.9193 74.6898C29.9196 84.616 37.9952 92.6919 47.9214 92.6919ZM33.7499 71.6666C34.3907 68.6195 36.0457 65.7955 38.4128 63.7691L41.3871 66.0435C41.8216 66.3758 41.9854 66.9636 41.785 67.4729L41.7843 67.4746L40.2002 71.5145C40.0167 71.9828 39.5561 72.2973 39.0541 72.2973H33.6353C33.6703 72.0861 33.7061 71.8752 33.7499 71.6666ZM62.3957 75.276C62.2314 80.7008 58.7526 85.8167 53.7614 87.9524L53.9261 84.7147C54.0105 83.0385 53.1693 81.4585 51.7258 80.5888L50.8755 80.0804C50.3969 79.7931 50.2345 79.1877 50.5052 78.7013L54.8353 70.9281C55.016 70.6028 55.3593 70.4007 55.731 70.4007H61.758C62.2521 71.9717 62.46 73.6311 62.3957 75.276ZM60.1319 66.8849H55.7313C54.0839 66.8849 52.563 67.7795 51.7633 69.2185L47.4342 76.9902C46.2344 79.1434 46.9509 81.8246 49.0689 83.0959C49.1534 83.1488 49.2493 83.2031 49.3501 83.26L49.3503 83.2601C49.8601 83.5483 50.4956 83.9076 50.4152 84.5368L50.1881 88.9981C49.4409 89.1158 48.6827 89.176 47.9214 89.176C40.312 89.176 34.0586 83.2773 33.4828 75.8129H39.0543C41.0205 75.8129 42.7549 74.6296 43.4732 72.7979L45.0567 68.7596C45.8285 66.7974 45.1978 64.5325 43.5227 63.2514L41.4984 61.7035C43.4807 60.7185 45.6628 60.2035 47.9212 60.2035C52.9553 60.2031 57.506 62.7557 60.1319 66.8849ZM17.4306 74.0554C17.4306 75.02 16.6487 75.802 15.6841 75.802C14.7195 75.802 13.9375 75.02 13.9375 74.0554C13.9375 73.0908 14.7195 72.3088 15.6841 72.3088C16.6487 72.3088 17.4306 73.0908 17.4306 74.0554Z" fill="#5991D0"/>
<path d="M115.428 15.7345L114.5 16.1076L114.752 16.7345H115.428V15.7345ZM115.115 15.0089L114.408 14.3018L113.916 14.7941L114.207 15.4267L115.115 15.0089ZM116.789 13.3354L116.082 12.6283L116.082 12.6283L116.789 13.3354ZM116.789 8.78738L116.082 9.49449L116.082 9.49449L116.789 8.78738ZM113.236 5.23426L113.943 4.52715L113.943 4.52708L113.236 5.23426ZM108.687 5.23426L107.98 4.52715L107.98 4.5272L108.687 5.23426ZM106.923 6.99934L106.526 7.91721L107.149 8.18686L107.63 7.70639L106.923 6.99934ZM106.289 6.74059H105.289V7.42781L105.93 7.67414L106.289 6.74059ZM94.8317 6.74059L95.1892 7.67448L95.8317 7.42852V6.74059H94.8317ZM94.1979 6.99934L93.4908 7.70644L93.9721 8.18775L94.5964 7.9165L94.1979 6.99934ZM92.4329 5.23426L93.14 4.52715L93.1398 4.52702L92.4329 5.23426ZM87.8848 5.23426L87.1778 4.52702L87.1777 4.52715L87.8848 5.23426ZM84.3317 8.78738L85.0388 9.49449L85.0388 9.49449L84.3317 8.78738ZM84.3317 13.3354L83.6246 14.0425L83.6246 14.0426L84.3317 13.3354ZM86.0051 15.0086L86.9132 15.4275L87.2052 14.7944L86.7122 14.3015L86.0051 15.0086ZM85.6922 15.7343V16.7343H86.3679L86.62 16.1073L85.6922 15.7343ZM85.5092 27.1912L86.4484 26.848L86.2084 26.1912H85.5092V27.1912ZM85.8572 28.0647L86.5643 28.7718L87.0449 28.2913L86.775 27.6676L85.8572 28.0647ZM84.3317 29.5903L83.6246 28.8832L83.6244 28.8833L84.3317 29.5903ZM84.3317 34.1386L83.6244 34.8455L83.6246 34.8457L84.3317 34.1386ZM87.8848 37.6917L87.1777 38.3988L87.1779 38.399L87.8848 37.6917ZM92.4329 37.6917L93.1399 38.3989L93.14 38.3988L92.4329 37.6917ZM93.8665 36.258L94.2845 35.3496L93.6518 35.0585L93.1594 35.5509L93.8665 36.258ZM94.8317 36.6646H95.8317V35.9771L95.1897 35.7309L94.8317 36.6646ZM106.289 36.6646L105.931 35.7309L105.289 35.9769V36.6646H106.289ZM107.254 36.258L107.961 35.5509L107.468 35.0583L106.836 35.3497L107.254 36.258ZM108.687 37.6917L107.98 38.3988L107.98 38.3989L108.687 37.6917ZM113.236 37.6917L113.943 38.3988L113.943 38.3988L113.236 37.6917ZM116.789 34.1386L116.082 33.4314L116.082 33.4314L116.789 34.1386ZM116.789 29.5905L117.496 28.8834L117.496 28.8834L116.789 29.5905ZM115.263 28.065L114.345 27.6674L114.075 28.2914L114.556 28.7721L115.263 28.065ZM115.611 27.1914V26.1914H114.911L114.672 26.8491L115.611 27.1914ZM112.629 24.9745L111.664 24.7133L111.664 24.7136L112.629 24.9745ZM111.589 27.5953L112.47 28.0679L112.471 28.0673L111.589 27.5953ZM111.895 29.6683L111.188 30.3754L111.188 30.3754L111.895 29.6683ZM114.091 31.8642L114.798 32.5713L115.505 31.8642L114.798 31.1571L114.091 31.8642ZM110.962 34.9938L110.254 35.7009L110.962 36.408L111.669 35.7009L110.962 34.9938ZM108.835 32.8673L109.542 32.1602L109.542 32.1602L108.835 32.8673ZM106.724 32.5818L106.231 31.7121L106.23 31.7123L106.724 32.5818ZM104.042 33.7134L104.32 34.674L104.32 34.674L104.042 33.7134ZM102.773 38.3857V39.3857H103.773V38.3857H102.773ZM98.3473 38.3857H97.3473V39.3857H98.3473V38.3857ZM97.0782 33.7134L97.3564 32.7529L97.3562 32.7528L97.0782 33.7134ZM94.3962 32.5818L94.8902 31.7124L94.89 31.7122L94.3962 32.5818ZM92.285 32.8673L91.578 32.1601L91.5778 32.1602L92.285 32.8673ZM90.1589 34.9936L89.4519 35.7007L90.159 36.4078L90.8661 35.7006L90.1589 34.9936ZM87.0293 31.8642L86.3222 31.1571L85.6151 31.8642L86.3222 32.5713L87.0293 31.8642ZM89.225 29.6683L89.9321 30.3754L89.9322 30.3753L89.225 29.6683ZM89.5315 27.5955L90.4131 27.1235L90.4131 27.1235L89.5315 27.5955ZM88.4911 24.9745L89.4565 24.7138L89.4564 24.7133L88.4911 24.9745ZM83.6377 23.6756H82.6377V24.6756H83.6377V23.6756ZM83.6377 19.2501V18.2501H82.6377V19.2501H83.6377ZM88.6121 18.0105L89.5675 18.3056L89.5677 18.3052L88.6121 18.0105ZM89.6813 15.539L90.5506 16.0333L90.5508 16.0329L89.6813 15.539ZM89.3958 13.4278L90.1029 12.7207L90.1029 12.7206L89.3958 13.4278ZM87.0296 11.0618L86.3225 10.3546L85.6153 11.0618L86.3225 11.7689L87.0296 11.0618ZM90.1592 7.93238L90.8663 7.22531L90.1592 6.51816L89.4521 7.22525L90.1592 7.93238ZM92.5943 10.3678L91.8872 11.0748L91.8872 11.0749L92.5943 10.3678ZM94.6674 10.6743L94.1952 9.79282L94.195 9.79291L94.6674 10.6743ZM97.0786 9.69207L97.3564 10.6527L97.3566 10.6527L97.0786 9.69207ZM98.3478 4.54004V3.54004H97.3478V4.54004H98.3478ZM102.773 4.54004H103.773V3.54004H102.773V4.54004ZM104.043 9.6916L103.765 10.6521L103.765 10.6522L104.043 9.6916ZM106.454 10.6736L105.981 11.5551L105.982 11.5552L106.454 10.6736ZM108.527 10.3671L109.234 11.0743L109.234 11.0742L108.527 10.3671ZM110.962 7.93168L111.669 7.22457L110.962 6.51747L110.255 7.22457L110.962 7.93168ZM114.092 11.0613L114.799 11.7684L115.506 11.0613L114.799 10.3542L114.092 11.0613ZM111.726 13.4273L111.019 12.7202L111.019 12.7202L111.726 13.4273ZM111.44 15.5383L112.31 15.0445L112.31 15.0444L111.44 15.5383ZM112.509 18.0103L111.554 18.305L111.554 18.3053L112.509 18.0103ZM117.484 19.2499H118.484V18.2499H117.484V19.2499ZM117.484 23.6756V24.6756H118.484V23.6756H117.484ZM85.5971 62.6968L84.6441 62.9998L84.8657 63.6968H85.5971V62.6968ZM82.5054 55.5333L81.7983 54.8262L81.2652 55.3593L81.631 56.0186L82.5054 55.5333ZM85.1581 52.8806L85.8652 53.5877L85.8652 53.5877L85.1581 52.8806ZM85.1581 44.9327L85.8653 44.2257L85.8652 44.2256L85.1581 44.9327ZM77.0435 36.8184L76.3364 37.5254L76.3364 37.5255L77.0435 36.8184ZM69.0956 36.8184L68.3885 36.1112L68.3885 36.1113L69.0956 36.8184ZM66.2533 39.6609L65.789 40.5466L66.4404 40.888L66.9604 40.368L66.2533 39.6609ZM59.2797 36.8186H58.2797V37.563L58.9928 37.7766L59.2797 36.8186ZM36.5644 36.8186L36.8515 37.7765L37.5644 37.5629V36.8186H36.5644ZM29.5908 39.6609L28.8837 40.368L29.4037 40.888L30.0551 40.5466L29.5908 39.6609ZM26.7483 36.8184L26.0412 37.5254L26.0412 37.5255L26.7483 36.8184ZM18.8004 36.8184L18.0933 36.1112L18.0933 36.1113L18.8004 36.8184ZM10.6861 44.9327L9.97895 44.2256L9.97891 44.2256L10.6861 44.9327ZM10.6861 52.8806L9.97887 53.5877L9.97895 53.5877L10.6861 52.8806ZM13.3387 55.5333L14.2131 56.0186L14.579 55.3593L14.0458 54.8262L13.3387 55.5333ZM10.2471 62.6968V63.6968H10.9784L11.2 62.9998L10.2471 62.6968ZM9.86808 85.412L10.8307 85.1413L10.6257 84.412H9.86808V85.412ZM12.8936 93.0203L13.6007 93.7274L14.1208 93.2074L13.7793 92.556L12.8936 93.0203ZM10.6858 95.2281L9.97871 94.521L9.97868 94.5211L10.6858 95.2281ZM10.6861 103.176L9.97891 103.883L9.97902 103.883L10.6861 103.176ZM11.8104 104.3L12.5176 103.593L12.5174 103.593L11.8104 104.3ZM14.2961 104.3L15.003 105.007L15.0033 105.007L14.2961 104.3ZM14.2959 101.814L13.5889 102.521L13.5889 102.521L14.2959 101.814ZM13.1718 100.69L12.4647 101.397L12.4648 101.397L13.1718 100.69ZM13.1718 97.7139L13.879 98.421L13.879 98.421L13.1718 97.7139ZM16.3101 94.5756L15.603 93.8685L15.603 93.8685L16.3101 94.5756ZM16.5951 92.4637L15.7259 92.958L15.7259 92.958L16.5951 92.4637ZM12.9321 83.2382L11.9604 83.4747L11.9605 83.4747L12.9321 83.2382ZM13.2478 64.9297L14.2105 65.2001L14.2105 65.2L13.2478 64.9297ZM17.0421 56.1504L17.899 56.6659L17.8991 56.6657L17.0421 56.1504ZM16.7789 54.0012L17.486 53.2941L17.486 53.294L16.7789 54.0012ZM13.1721 50.3948L12.465 51.1019L12.465 51.102L13.1721 50.3948ZM13.1721 47.4185L13.8792 48.1256L13.8792 48.1256L13.1721 47.4185ZM21.2862 39.3044L21.9933 40.0115L21.9933 40.0115L21.2862 39.3044ZM24.2623 39.3044L23.5552 40.0115L23.5552 40.0115L24.2623 39.3044ZM28.0353 43.0774L28.7424 42.3703L28.7424 42.3703L28.0353 43.0774ZM30.1472 43.3624L30.6414 44.2317L30.6416 44.2317L30.1472 43.3624ZM38.7678 39.851L39.0212 40.8183L39.0212 40.8183L38.7678 39.851ZM57.0763 39.851L57.3298 38.8836L57.3297 38.8836L57.0763 39.851ZM65.6969 43.3624L66.1912 42.4931L66.1912 42.4931L65.6969 43.3624ZM67.8089 43.0774L68.5157 43.7848L68.516 43.7845L67.8089 43.0774ZM71.5816 39.3044L70.8745 38.5973L70.8745 38.5973L71.5816 39.3044ZM74.5577 39.3044L73.8506 40.0115L73.8506 40.0115L74.5577 39.3044ZM82.6721 47.4185L83.3792 46.7114L83.3791 46.7114L82.6721 47.4185ZM82.6721 50.3948L83.3792 51.1019L83.3792 51.1019L82.6721 50.3948ZM79.0652 54.0017L78.3581 53.2945L78.3581 53.2945L79.0652 54.0017ZM78.802 56.1509L77.945 56.6662L77.9452 56.6665L78.802 56.1509ZM82.5963 64.9301L81.6336 65.2004L81.6336 65.2006L82.5963 64.9301ZM82.9118 83.2386L83.8834 83.4752L83.8835 83.4751L82.9118 83.2386ZM79.2487 92.4641L78.3795 91.9698L78.3795 91.9698L79.2487 92.4641ZM79.5338 94.5761L78.8266 95.2832L78.8267 95.2832L79.5338 94.5761ZM82.6721 97.7142L83.3792 97.0071L83.3791 97.007L82.6721 97.7142ZM71.5816 108.805L70.8745 109.512L70.8747 109.512L71.5816 108.805ZM68.6095 105.833L67.9021 106.54L67.9024 106.54L68.6095 105.833ZM66.4603 105.57L65.9451 104.712L65.9446 104.713L66.4603 105.57ZM57.0763 109.528L57.3297 110.495L57.3298 110.495L57.0763 109.528ZM38.7678 109.528L38.5143 110.495L38.5145 110.495L38.7678 109.528ZM29.3834 105.57L28.8675 106.426L28.8679 106.426L29.3834 105.57ZM27.2342 105.833L26.5271 105.126L26.527 105.126L27.2342 105.833ZM24.2625 108.805L24.9695 109.512L24.9696 109.512L24.2625 108.805ZM21.2862 108.805L20.5791 109.512L20.5792 109.512L21.2862 108.805ZM20.0991 107.617L19.3918 108.324L19.392 108.325L20.0991 107.617ZM17.6133 107.617L16.9063 106.91L16.9062 106.91L17.6133 107.617ZM17.6135 110.104L18.3206 109.396L18.3205 109.396L17.6135 110.104ZM18.8006 111.291L18.0935 111.998L18.0935 111.998L18.8006 111.291ZM26.7485 111.291L27.4556 111.998L27.4557 111.998L26.7485 111.291ZM28.766 109.273L29.2513 108.399L28.5921 108.033L28.0589 108.566L28.766 109.273ZM36.5642 112.56H37.5642V111.816L36.8511 111.602L36.5642 112.56ZM59.2795 112.56L58.9926 111.602L58.2795 111.816V112.56H59.2795ZM67.0774 109.273L67.7844 108.566L67.2513 108.033L66.592 108.399L67.0774 109.273ZM69.0954 111.291L69.8025 110.584L69.8024 110.583L69.0954 111.291ZM77.0433 111.291L77.7503 111.998L77.7504 111.998L77.0433 111.291ZM85.1576 103.176L85.8647 103.883L85.8648 103.883L85.1576 103.176ZM85.1576 95.2284L85.8648 94.5213L85.8647 94.5213L85.1576 95.2284ZM82.9498 93.0206L82.0641 92.5562L81.7226 93.2076L82.2427 93.7277L82.9498 93.0206ZM85.9751 85.4122V84.4122H85.2175L85.0124 85.1415L85.9751 85.4122ZM94.8434 68.3171L93.8434 68.3169V68.3171H94.8434ZM43.427 50.2141L43.2474 49.2304L43.2474 49.2304L43.427 50.2141ZM45.472 51.6274L46.4557 51.4478L46.4557 51.4478L45.472 51.6274ZM44.0587 53.6726L44.2383 54.6563L44.2383 54.6563L44.0587 53.6726ZM51.7673 53.6686L51.5886 54.6525L51.5886 54.6525L51.7673 53.6686ZM50.3519 51.6251L51.3358 51.8037L51.3358 51.8037L50.3519 51.6251ZM52.3954 50.2094L52.574 49.2255L52.5736 49.2254L52.3954 50.2094ZM64.6317 67.9885L63.7035 68.3608L63.708 68.3718L63.7127 68.3828L64.6317 67.9885ZM47.9214 92.6919L47.9467 91.6922L47.9341 91.6919H47.9214V92.6919ZM47.9214 56.6877L47.9027 57.6875L47.912 57.6877H47.9214V56.6877ZM29.9193 74.6898L30.9193 74.6898L30.9193 74.6797L30.9191 74.6696L29.9193 74.6898ZM38.4128 63.7691L39.0203 62.9747L38.3774 62.4831L37.7625 63.0094L38.4128 63.7691ZM33.7499 71.6666L32.7714 71.4608L32.7713 71.461L33.7499 71.6666ZM41.3871 66.0435L41.9946 65.2492L41.9945 65.2491L41.3871 66.0435ZM41.785 67.4729L42.7044 67.8663L42.7102 67.8528L42.7156 67.8391L41.785 67.4729ZM41.7843 67.4746L40.865 67.0812L40.8589 67.0952L40.8533 67.1095L41.7843 67.4746ZM40.2002 71.5145L39.2692 71.1494L39.2691 71.1496L40.2002 71.5145ZM33.6353 72.2973L32.6487 72.1341L32.4564 73.2973H33.6353V72.2973ZM53.7614 87.9524L52.7627 87.9015L52.6812 89.5022L54.1547 88.8717L53.7614 87.9524ZM62.3957 75.276L61.3965 75.2369L61.3962 75.2457L62.3957 75.276ZM53.9261 84.7147L54.9248 84.7655L54.9249 84.765L53.9261 84.7147ZM51.7258 80.5888L52.2419 79.7322L52.239 79.7305L51.7258 80.5888ZM50.8755 80.0804L50.3608 80.9378L50.3624 80.9387L50.8755 80.0804ZM50.5052 78.7013L49.6316 78.2147L49.6314 78.215L50.5052 78.7013ZM54.8353 70.9281L55.7089 71.4147L55.7095 71.4137L54.8353 70.9281ZM61.758 70.4007L62.7119 70.1007L62.4918 69.4007H61.758V70.4007ZM60.1319 66.8849V67.8849H61.9529L60.9757 66.3483L60.1319 66.8849ZM51.7633 69.2185L52.6369 69.7052L52.6374 69.7043L51.7633 69.2185ZM47.4342 76.9902L48.3077 77.4769L48.3078 77.4768L47.4342 76.9902ZM49.0689 83.0959L49.6002 82.2487L49.5919 82.2435L49.5836 82.2385L49.0689 83.0959ZM49.3501 83.26L48.858 84.1306L48.8687 84.1366L48.8795 84.1424L49.3501 83.26ZM49.3503 83.2601L49.8424 82.3896L49.8317 82.3836L49.8209 82.3778L49.3503 83.2601ZM50.4152 84.5368L49.4233 84.4101L49.4184 84.4479L49.4165 84.486L50.4152 84.5368ZM50.1881 88.9981L50.3436 89.986L51.1455 89.8597L51.1868 89.049L50.1881 88.9981ZM33.4828 75.8129V74.8129H32.4026L32.4857 75.8898L33.4828 75.8129ZM43.4732 72.7979L44.4042 73.163L44.4042 73.163L43.4732 72.7979ZM45.0567 68.7596L44.1261 68.3936L44.1257 68.3946L45.0567 68.7596ZM43.5227 63.2514L44.1302 62.457L44.1301 62.457L43.5227 63.2514ZM41.4984 61.7035L41.0534 60.808L39.6154 61.5226L40.891 62.4979L41.4984 61.7035ZM47.9212 60.2035L47.9212 61.2035L47.9213 61.2035L47.9212 60.2035ZM115.428 16.7345H117.782V14.7345H115.428V16.7345ZM114.207 15.4267C114.31 15.6517 114.408 15.8787 114.5 16.1076L116.356 15.3614C116.252 15.1019 116.141 14.8451 116.024 14.5911L114.207 15.4267ZM116.082 12.6283L114.408 14.3018L115.823 15.716L117.496 14.0425L116.082 12.6283ZM116.082 9.49449C116.945 10.3579 116.945 11.7649 116.082 12.6283L117.496 14.0425C119.14 12.3981 119.14 9.72471 117.496 8.08028L116.082 9.49449ZM112.529 5.94136L116.082 9.49449L117.496 8.08028L113.943 4.52715L112.529 5.94136ZM109.395 5.94137C110.258 5.07778 111.665 5.07769 112.529 5.94143L113.943 4.52708C112.298 2.88255 109.625 2.88245 107.98 4.52715L109.395 5.94137ZM107.63 7.70639L109.395 5.94132L107.98 4.5272L106.215 6.29228L107.63 7.70639ZM105.93 7.67414C106.13 7.75088 106.328 7.83189 106.526 7.91721L107.319 6.08147C107.097 5.98538 106.873 5.89389 106.647 5.80703L105.93 7.67414ZM105.289 4.24051V6.74059H107.289V4.24051H105.289ZM103.073 2.02441C104.294 2.02441 105.289 3.01946 105.289 4.24051H107.289C107.289 1.91499 105.398 0.0244141 103.073 0.0244141V2.02441ZM98.0478 2.02441H103.073V0.0244141H98.0478V2.02441ZM95.8317 4.24051C95.8317 3.01951 96.8268 2.02441 98.0478 2.02441V0.0244141C95.7222 0.0244141 93.8317 1.91494 93.8317 4.24051H95.8317ZM95.8317 6.74059V4.24051H93.8317V6.74059H95.8317ZM94.5964 7.9165C94.792 7.83155 94.9897 7.75087 95.1892 7.67448L94.4741 5.80669C94.2476 5.89343 94.0225 5.98525 93.7994 6.08217L94.5964 7.9165ZM91.7257 5.94136L93.4908 7.70644L94.905 6.29223L93.14 4.52715L91.7257 5.94136ZM88.5918 5.9415C89.4555 5.07813 90.862 5.07799 91.7259 5.9415L93.1398 4.52702C91.4949 2.88272 88.8224 2.88305 87.1778 4.52702L88.5918 5.9415ZM85.0388 9.49449L88.5919 5.94136L87.1777 4.52715L83.6246 8.08028L85.0388 9.49449ZM85.0388 12.6283C84.1754 11.7649 84.1754 10.3579 85.0388 9.49449L83.6246 8.08028C81.9801 9.72471 81.9801 12.3981 83.6246 14.0425L85.0388 12.6283ZM86.7122 14.3015L85.0387 12.6283L83.6246 14.0426L85.2981 15.7158L86.7122 14.3015ZM86.62 16.1073C86.7121 15.8782 86.8099 15.6514 86.9132 15.4275L85.0971 14.5897C84.9796 14.8445 84.8687 15.1018 84.7644 15.3612L86.62 16.1073ZM83.3379 16.7343H85.6922V14.7343H83.3379V16.7343ZM81.1221 18.9504C81.1221 17.7291 82.1172 16.7343 83.3379 16.7343V14.7343C81.0126 14.7343 79.1221 16.6246 79.1221 18.9504H81.1221ZM81.1221 23.9754V18.9504H79.1221V23.9754H81.1221ZM83.3379 26.1912C82.1169 26.1912 81.1221 25.1964 81.1221 23.9754H79.1221C79.1221 26.3009 81.0124 28.1912 83.3379 28.1912V26.1912ZM85.5092 26.1912H83.3379V28.1912H85.5092V26.1912ZM86.775 27.6676C86.6584 27.3982 86.5495 27.1246 86.4484 26.848L84.5699 27.5344C84.684 27.8466 84.8072 28.1561 84.9395 28.4619L86.775 27.6676ZM85.0388 30.2974L86.5643 28.7718L85.1501 27.3576L83.6246 28.8832L85.0388 30.2974ZM84.3897 31.8644C84.3897 31.2708 84.619 30.7174 85.0389 30.2972L83.6244 28.8833C82.8298 29.6782 82.3897 30.7401 82.3897 31.8644H84.3897ZM85.0389 33.4316C84.619 33.0115 84.3897 32.4581 84.3897 31.8644H82.3897C82.3897 32.9887 82.8298 34.0506 83.6244 34.8455L85.0389 33.4316ZM88.5919 36.9846L85.0388 33.4314L83.6246 34.8457L87.1777 38.3988L88.5919 36.9846ZM91.7258 36.9845C90.8623 37.8479 89.4557 37.8479 88.5917 36.9844L87.1779 38.399C88.8226 40.0428 91.4951 40.0433 93.1399 38.3989L91.7258 36.9845ZM93.1594 35.5509L91.7257 36.9846L93.14 38.3988L94.5736 36.9651L93.1594 35.5509ZM95.1897 35.7309C94.8843 35.6138 94.5822 35.4865 94.2845 35.3496L93.4485 37.1665C93.7855 37.3215 94.1275 37.4656 94.4736 37.5984L95.1897 35.7309ZM95.8317 38.6854V36.6646H93.8317V38.6854H95.8317ZM98.0478 40.9015C96.8266 40.9015 95.8317 39.9065 95.8317 38.6854H93.8317C93.8317 41.0109 95.7219 42.9015 98.0478 42.9015V40.9015ZM103.073 40.9015H98.0478V42.9015H103.073V40.9015ZM105.289 38.6854C105.289 39.9064 104.294 40.9015 103.073 40.9015V42.9015C105.398 42.9015 107.289 41.011 107.289 38.6854H105.289ZM105.289 36.6646V38.6854H107.289V36.6646H105.289ZM106.836 35.3497C106.538 35.4866 106.236 35.6138 105.931 35.7309L106.646 37.5984C106.993 37.4657 107.335 37.3215 107.672 37.1663L106.836 35.3497ZM109.395 36.9846L107.961 35.5509L106.547 36.9651L107.98 38.3988L109.395 36.9846ZM112.529 36.9846C111.665 37.8482 110.258 37.8482 109.394 36.9845L107.98 38.3989C109.625 40.0434 112.298 40.0435 113.943 38.3988L112.529 36.9846ZM116.082 33.4314L112.529 36.9846L113.943 38.3988L117.496 34.8457L116.082 33.4314ZM116.082 30.2976C116.945 31.161 116.945 32.5681 116.082 33.4314L117.496 34.8457C119.14 33.2012 119.14 30.5278 117.496 28.8834L116.082 30.2976ZM114.556 28.7721L116.082 30.2977L117.496 28.8834L115.97 27.3578L114.556 28.7721ZM114.672 26.8491C114.571 27.125 114.462 27.3977 114.345 27.6674L116.181 28.4625C116.313 28.1566 116.437 27.8471 116.551 27.5338L114.672 26.8491ZM117.782 26.1914H115.611V28.1914H117.782V26.1914ZM119.998 23.9756C119.998 25.1965 119.003 26.1914 117.782 26.1914V28.1914C120.108 28.1914 121.998 26.3012 121.998 23.9756H119.998ZM119.998 18.9506V23.9756H121.998V18.9506H119.998ZM117.782 16.7345C119.004 16.7345 119.998 17.7294 119.998 18.9506H121.998C121.998 16.6248 120.108 14.7345 117.782 14.7345V16.7345ZM114.326 24.6756H117.483V22.6756H114.326V24.6756ZM113.594 25.2357C113.684 24.905 113.984 24.6756 114.326 24.6756V22.6756C113.08 22.6756 111.989 23.5107 111.664 24.7133L113.594 25.2357ZM112.471 28.0673C112.951 27.171 113.329 26.2185 113.595 25.2354L111.664 24.7136C111.438 25.5497 111.116 26.3606 110.707 27.1232L112.471 28.0673ZM112.602 28.9612C112.366 28.7248 112.313 28.3619 112.47 28.0679L110.708 27.1226C110.133 28.1946 110.329 29.5159 111.188 30.3754L112.602 28.9612ZM114.798 31.1571L112.602 28.9612L111.188 30.3754L113.384 32.5713L114.798 31.1571ZM111.669 35.7009L114.798 32.5713L113.384 31.1571L110.254 34.2867L111.669 35.7009ZM108.128 33.5744L110.254 35.7009L111.669 34.2867L109.542 32.1602L108.128 33.5744ZM107.218 33.4516C107.515 33.2828 107.887 33.3334 108.128 33.5744L109.542 32.1602C108.665 31.2823 107.309 31.0999 106.231 31.7121L107.218 33.4516ZM104.32 34.674C105.328 34.3821 106.303 33.9709 107.218 33.4514L106.23 31.7123C105.451 32.1546 104.622 32.5047 103.764 32.7528L104.32 34.674ZM103.773 35.4021C103.773 35.0645 103.996 34.7678 104.32 34.674L103.764 32.7528C102.585 33.094 101.773 34.174 101.773 35.4021H103.773ZM103.773 38.3857V35.4021H101.773V38.3857H103.773ZM98.3473 39.3857H102.773V37.3857H98.3473V39.3857ZM97.3473 35.4021V38.3857H99.3473V35.4021H97.3473ZM96.7999 34.6739C97.1242 34.7679 97.3473 35.0648 97.3473 35.4021H99.3473C99.3473 34.1742 98.5354 33.0944 97.3564 32.7529L96.7999 34.6739ZM93.9022 33.4513C94.8169 33.971 95.792 34.3822 96.8001 34.674L97.3562 32.7528C96.4987 32.5046 95.6686 32.1546 94.8902 31.7124L93.9022 33.4513ZM92.9919 33.5746C93.2333 33.3333 93.6058 33.283 93.9024 33.4514L94.89 31.7122C93.8113 31.0997 92.456 31.2825 91.578 32.1601L92.9919 33.5746ZM90.8661 35.7006L92.9921 33.5744L91.5778 32.1602L89.4518 34.2865L90.8661 35.7006ZM86.3222 32.5713L89.4519 35.7007L90.866 34.2864L87.7364 31.157L86.3222 32.5713ZM88.5178 28.9613L86.3222 31.1571L87.7365 32.5713L89.9321 30.3754L88.5178 28.9613ZM88.6499 28.0675C88.8076 28.362 88.7539 28.7251 88.5177 28.9614L89.9322 30.3753C90.7915 29.5156 90.9867 28.195 90.4131 27.1235L88.6499 28.0675ZM87.5257 25.2352C87.791 26.2176 88.1696 27.1704 88.6499 28.0675L90.4131 27.1235C90.0042 26.3598 89.682 25.5487 89.4565 24.7138L87.5257 25.2352ZM86.7943 24.6756C87.1364 24.6756 87.4364 24.9051 87.5258 25.2357L89.4564 24.7133C89.131 23.5106 88.0398 22.6756 86.7943 22.6756V24.6756ZM83.6377 24.6756H86.7943V22.6756H83.6377V24.6756ZM82.6377 19.2501V23.6756H84.6377V19.2501H82.6377ZM86.9323 18.2501H83.6377V20.2501H86.9323V18.2501ZM87.6566 17.7154C87.5584 18.0335 87.2645 18.2501 86.9323 18.2501V20.2501C88.1423 20.2501 89.2106 19.4613 89.5675 18.3056L87.6566 17.7154ZM88.812 15.0448C88.3309 15.8909 87.9421 16.7894 87.6565 17.7158L89.5677 18.3052C89.8103 17.5184 90.141 16.7537 90.5506 16.0333L88.812 15.0448ZM88.6887 14.1349C88.9297 14.3759 88.9802 14.7485 88.8117 15.0452L90.5508 16.0329C91.1637 14.9537 90.9803 13.5981 90.1029 12.7207L88.6887 14.1349ZM86.3225 11.7689L88.6887 14.1349L90.1029 12.7206L87.7366 10.3546L86.3225 11.7689ZM89.4521 7.22525L86.3225 10.3546L87.7366 11.7689L90.8663 8.63952L89.4521 7.22525ZM93.3015 9.6607L90.8663 7.22531L89.452 8.63946L91.8872 11.0748L93.3015 9.6607ZM94.195 9.79291C93.901 9.9505 93.5377 9.89695 93.3014 9.66066L91.8872 11.0749C92.7469 11.9345 94.0683 12.1299 95.1397 11.5558L94.195 9.79291ZM96.8008 8.73143C95.8999 8.99195 95.0234 9.34925 94.1952 9.79282L95.1395 11.5559C95.8447 11.1782 96.5909 10.8741 97.3564 10.6527L96.8008 8.73143ZM97.3478 8.0034C97.3478 8.34101 97.1246 8.63775 96.8007 8.73148L97.3566 10.6527C98.5359 10.3114 99.3478 9.23141 99.3478 8.0034H97.3478ZM97.3478 4.54004V8.0034H99.3478V4.54004H97.3478ZM102.773 3.54004H98.3478V5.54004H102.773V3.54004ZM103.773 8.00293V4.54004H101.773V8.00293H103.773ZM104.321 8.73107C103.996 8.63709 103.773 8.34012 103.773 8.00293H101.773C101.773 9.2309 102.585 10.3106 103.765 10.6521L104.321 8.73107ZM106.926 9.79218C106.098 9.34851 105.221 8.99145 104.321 8.73096L103.765 10.6522C104.531 10.8736 105.277 11.1775 105.981 11.5551L106.926 9.79218ZM107.82 9.65981C107.583 9.89626 107.22 9.94988 106.926 9.79208L105.982 11.5552C107.053 12.1291 108.374 11.9338 109.234 11.0743L107.82 9.65981ZM110.255 7.22457L107.82 9.65996L109.234 11.0742L111.669 8.63879L110.255 7.22457ZM114.799 10.3542L111.669 7.22457L110.255 8.63879L113.385 11.7684L114.799 10.3542ZM112.433 14.1344L114.799 11.7684L113.385 10.3541L111.019 12.7202L112.433 14.1344ZM112.31 15.0444C112.141 14.7479 112.192 14.3755 112.433 14.1344L111.019 12.7202C110.141 13.5976 109.958 14.953 110.571 16.0322L112.31 15.0444ZM113.465 17.7155C113.179 16.7894 112.79 15.8909 112.31 15.0445L110.571 16.0321C110.98 16.7532 111.311 17.5183 111.554 18.305L113.465 17.7155ZM114.189 18.2499C113.857 18.2499 113.563 18.0333 113.465 17.7153L111.554 18.3053C111.911 19.4614 112.979 20.2499 114.189 20.2499V18.2499ZM117.484 18.2499H114.189V20.2499H117.484V18.2499ZM118.484 23.6756V19.2499H116.484V23.6756H118.484ZM117.483 24.6756H117.484V22.6756H117.483V24.6756ZM81.1357 74.0554C81.1357 74.4678 80.8015 74.802 80.3891 74.802V76.802C81.9061 76.802 83.1357 75.5724 83.1357 74.0554H81.1357ZM80.3891 73.3088C80.8015 73.3088 81.1357 73.643 81.1357 74.0554H83.1357C83.1357 72.5384 81.9061 71.3088 80.3891 71.3088V73.3088ZM79.6426 74.0554C79.6426 73.6431 79.9769 73.3088 80.3891 73.3088V71.3088C78.8725 71.3088 77.6426 72.5384 77.6426 74.0554H79.6426ZM80.3891 74.802C79.9767 74.802 79.6426 74.4678 79.6426 74.0554H77.6426C77.6426 75.5724 78.8722 76.802 80.3891 76.802V74.802ZM100.563 14.1953C96.4223 14.1953 93.0557 17.5619 93.0557 21.7023H95.0557C95.0557 18.6665 97.5269 16.1953 100.563 16.1953V14.1953ZM108.07 21.7023C108.07 17.5621 104.703 14.1953 100.563 14.1953V16.1953C103.598 16.1953 106.07 18.6668 106.07 21.7023H108.07ZM100.563 29.2092C104.703 29.2092 108.07 25.8424 108.07 21.7023H106.07C106.07 24.7378 103.598 27.2092 100.563 27.2092V29.2092ZM93.0557 21.7023C93.0557 25.8426 96.4223 29.2092 100.563 29.2092V27.2092C97.5269 27.2092 95.0557 24.738 95.0557 21.7023H93.0557ZM100.563 23.6936C99.4656 23.6936 98.5713 22.7993 98.5713 21.7023H96.5713C96.5713 23.9038 98.361 25.6936 100.563 25.6936V23.6936ZM102.554 21.7023C102.554 22.7994 101.66 23.6936 100.563 23.6936V25.6936C102.764 25.6936 104.554 23.9042 104.554 21.7023H102.554ZM100.563 19.7109C101.66 19.7109 102.554 20.6051 102.554 21.7023H104.554C104.554 19.5003 102.764 17.7109 100.563 17.7109V19.7109ZM98.5713 21.7023C98.5713 20.6053 99.4656 19.7109 100.563 19.7109V17.7109C98.361 17.7109 96.5713 19.5007 96.5713 21.7023H98.5713ZM85.5971 63.6968H89.224V61.6968H85.5971V63.6968ZM81.631 56.0186C82.8655 58.2429 83.8751 60.5819 84.6441 62.9998L86.55 62.3937C85.7407 59.849 84.6784 57.3879 83.3798 55.048L81.631 56.0186ZM84.451 52.1735L81.7983 54.8262L83.2125 56.2404L85.8652 53.5877L84.451 52.1735ZM84.4509 45.6397C86.2514 47.4407 86.2514 50.3729 84.4509 52.1736L85.8652 53.5877C88.4467 51.006 88.4466 46.8076 85.8653 44.2257L84.4509 45.6397ZM76.3364 37.5255L84.451 45.6398L85.8652 44.2256L77.7506 36.1113L76.3364 37.5255ZM69.8027 37.5255C71.6034 35.725 74.536 35.7249 76.3364 37.5254L77.7506 36.1113C75.1691 33.5295 70.9701 33.5299 68.3885 36.1112L69.8027 37.5255ZM66.9604 40.368L69.8027 37.5255L68.3885 36.1113L65.5462 38.9538L66.9604 40.368ZM58.9928 37.7766C61.3393 38.4793 63.6157 39.4074 65.789 40.5466L66.7176 38.7752C64.4312 37.5767 62.0361 36.6002 59.5666 35.8607L58.9928 37.7766ZM58.2797 32.7524V36.8186H60.2797V32.7524H58.2797ZM53.6596 28.1323C56.2062 28.1323 58.2797 30.2058 58.2797 32.7524H60.2797C60.2797 29.1012 57.3108 26.1323 53.6596 26.1323V28.1323ZM42.1845 28.1323H53.6596V26.1323H42.1845V28.1323ZM37.5644 32.7524C37.5644 30.2058 39.6377 28.1323 42.1845 28.1323V26.1323C38.5331 26.1323 35.5644 29.1012 35.5644 32.7524H37.5644ZM37.5644 36.8186V32.7524H35.5644V36.8186H37.5644ZM30.0551 40.5466C32.2284 39.4074 34.505 38.4796 36.8515 37.7765L36.2774 35.8607C33.8084 36.6005 31.413 37.5767 29.1266 38.7752L30.0551 40.5466ZM26.0412 37.5255L28.8837 40.368L30.2979 38.9538L27.4554 36.1113L26.0412 37.5255ZM19.5075 37.5255C21.3082 35.725 24.2408 35.7249 26.0412 37.5254L27.4555 36.1113C24.8739 33.5295 20.6749 33.5299 18.0933 36.1112L19.5075 37.5255ZM11.3932 45.6398L19.5075 37.5255L18.0933 36.1113L9.97895 44.2256L11.3932 45.6398ZM11.3932 52.1736C9.59269 50.3727 9.59275 47.4404 11.3932 45.6398L9.97891 44.2256C7.39747 46.8074 7.39752 51.0058 9.97887 53.5877L11.3932 52.1736ZM14.0458 54.8262L11.3932 52.1735L9.97895 53.5877L12.6316 56.2404L14.0458 54.8262ZM11.2 62.9998C11.969 60.5819 12.9786 58.2429 14.2131 56.0186L12.4644 55.048C11.1657 57.3879 10.1034 59.849 9.2941 62.3937L11.2 62.9998ZM6.6201 63.6968H10.2471V61.6968H6.6201V63.6968ZM2 68.3169C2 65.7702 4.07347 63.6968 6.6201 63.6968V61.6968C2.9689 61.6968 0 64.6657 0 68.3169H2ZM2 79.7919V68.3169H0V79.7919H2ZM6.6201 84.412C4.07347 84.412 2 82.3385 2 79.7919H0C0 83.4431 2.9689 86.412 6.6201 86.412V84.412ZM9.86808 84.412H6.6201V86.412H9.86808V84.412ZM13.7793 92.556C12.5406 90.1931 11.5525 87.7082 10.8307 85.1413L8.90542 85.6827C9.6649 88.3837 10.7046 90.9983 12.008 93.4846L13.7793 92.556ZM11.3929 95.9352L13.6007 93.7274L12.1865 92.3132L9.97871 94.521L11.3929 95.9352ZM11.3932 102.469C9.59246 100.668 9.59252 97.7358 11.393 95.9352L9.97868 94.5211C7.39723 97.1028 7.39728 101.301 9.97891 103.883L11.3932 102.469ZM12.5174 103.593L11.3931 102.469L9.97902 103.883L11.1033 105.007L12.5174 103.593ZM13.5893 103.593C13.2929 103.889 12.8129 103.889 12.5176 103.593L11.1031 105.007C12.1803 106.085 13.9264 106.083 15.003 105.007L13.5893 103.593ZM13.5889 102.521C13.885 102.817 13.885 103.297 13.589 103.593L15.0033 105.007C16.0803 103.93 16.0803 102.184 15.0029 101.107L13.5889 102.521ZM12.4648 101.397L13.5889 102.521L15.0029 101.107L13.8789 99.9831L12.4648 101.397ZM12.4647 97.0068C11.2537 98.2179 11.2537 100.186 12.4647 101.397L13.879 99.9832C13.4489 99.5531 13.4489 98.8511 13.879 98.421L12.4647 97.0068ZM15.603 93.8685L12.4647 97.0068L13.879 98.421L17.0172 95.2827L15.603 93.8685ZM15.7259 92.958C15.8945 93.2546 15.8441 93.6274 15.603 93.8685L17.0172 95.2827C17.895 94.4049 18.0781 93.0485 17.4644 91.9694L15.7259 92.958ZM11.9605 83.4747C12.7688 86.795 14.0356 89.9856 15.7259 92.958L17.4644 91.9694C15.8659 89.1583 14.668 86.1413 13.9037 83.0016L11.9605 83.4747ZM11.2242 82.8961C11.5737 82.8961 11.8778 83.1351 11.9604 83.4747L13.9037 83.0017C13.6029 81.7658 12.496 80.8961 11.2242 80.8961V82.8961ZM6.6201 82.8961H11.2242V80.8961H6.6201V82.8961ZM3.51564 79.7917C3.51564 81.5043 4.90742 82.8961 6.6201 82.8961V80.8961C6.01199 80.8961 5.51564 80.3998 5.51564 79.7917H3.51564ZM3.51564 68.3166V79.7917H5.51564V68.3166H3.51564ZM6.6201 65.2122C4.90711 65.2122 3.51564 66.604 3.51564 68.3166H5.51564C5.51564 67.7084 6.01183 67.2122 6.6201 67.2122V65.2122ZM11.5554 65.2122H6.6201V67.2122H11.5554V65.2122ZM12.285 64.6592C12.1932 64.9862 11.895 65.2122 11.5554 65.2122V67.2122C12.7912 67.2122 13.8763 66.39 14.2105 65.2001L12.285 64.6592ZM16.1852 55.6349C14.4858 58.4597 13.1734 61.4958 12.285 64.6593L14.2105 65.2C15.0504 62.2093 16.2914 59.3381 17.899 56.6659L16.1852 55.6349ZM16.0718 54.7083C16.3177 54.9542 16.3647 55.3364 16.1851 55.6351L17.8991 56.6657C18.5515 55.5806 18.3819 54.19 17.486 53.2941L16.0718 54.7083ZM12.465 51.102L16.0718 54.7083L17.486 53.294L13.8791 49.6877L12.465 51.102ZM12.465 46.7114C11.2539 47.9225 11.2539 49.8909 12.465 51.1019L13.8792 49.6877C13.4492 49.2577 13.4492 48.5556 13.8792 48.1256L12.465 46.7114ZM20.5791 38.5973L12.465 46.7114L13.8792 48.1256L21.9933 40.0115L20.5791 38.5973ZM24.9694 38.5973C23.7583 37.3862 21.7901 37.3862 20.5791 38.5973L21.9933 40.0115C22.4233 39.5815 23.1251 39.5815 23.5552 40.0115L24.9694 38.5973ZM28.7424 42.3703L24.9694 38.5973L23.5552 40.0115L27.3282 43.7845L28.7424 42.3703ZM29.653 42.4931C29.3563 42.6617 28.9835 42.6114 28.7424 42.3703L27.3282 43.7845C28.2064 44.6628 29.5628 44.8449 30.6414 44.2317L29.653 42.4931ZM38.5144 38.8836C35.4203 39.6942 32.4389 40.9087 29.6529 42.4931L30.6416 44.2317C33.2766 42.7331 36.0961 41.5846 39.0212 40.8183L38.5144 38.8836ZM39.0801 38.1506C39.0801 38.4951 38.8475 38.7963 38.5144 38.8836L39.0212 40.8183C40.234 40.5006 41.0801 39.4045 41.0801 38.1506H39.0801ZM39.0801 32.7524V38.1506H41.0801V32.7524H39.0801ZM42.1845 29.648C40.4719 29.648 39.0801 31.0397 39.0801 32.7524H41.0801C41.0801 32.1443 41.5764 31.648 42.1845 31.648V29.648ZM53.6596 29.648H42.1845V31.648H53.6596V29.648ZM56.764 32.7524C56.764 31.0397 55.3723 29.648 53.6596 29.648V31.648C54.2677 31.648 54.764 32.1443 54.764 32.7524H56.764ZM56.764 38.1506V32.7524H54.764V38.1506H56.764ZM57.3297 38.8836C56.9966 38.7963 56.764 38.4951 56.764 38.1506H54.764C54.764 39.4045 55.6101 40.5006 56.8229 40.8183L57.3297 38.8836ZM66.1912 42.4931C63.4052 40.9089 60.4238 39.6944 57.3298 38.8836L56.8228 40.8183C59.748 41.5849 62.5675 42.7333 65.2026 44.2317L66.1912 42.4931ZM67.1021 42.37C66.8603 42.6115 66.4873 42.6615 66.1912 42.4931L65.2025 44.2317C66.2814 44.8452 67.6375 44.6622 68.5157 43.7848L67.1021 42.37ZM70.8745 38.5973L67.1017 42.3703L68.516 43.7845L72.2887 40.0115L70.8745 38.5973ZM75.2648 38.5973C74.0538 37.3862 72.0856 37.3862 70.8745 38.5973L72.2887 40.0115C72.7187 39.5815 73.4206 39.5815 73.8506 40.0115L75.2648 38.5973ZM83.3791 46.7114L75.2648 38.5973L73.8506 40.0115L81.965 48.1256L83.3791 46.7114ZM83.3792 51.1019C84.5902 49.8909 84.5902 47.9225 83.3792 46.7114L81.9649 48.1256C82.395 48.5556 82.395 49.2577 81.9649 49.6877L83.3792 51.1019ZM79.7723 54.7088L83.3792 51.1019L81.9649 49.6877L78.3581 53.2945L79.7723 54.7088ZM79.659 55.6356C79.4794 55.3369 79.5264 54.9547 79.7723 54.7088L78.3581 53.2945C77.4622 54.1905 77.2926 55.5811 77.945 56.6662L79.659 55.6356ZM83.5591 64.6598C82.6709 61.4963 81.3586 58.46 79.6589 55.6353L77.9452 56.6665C79.553 59.3384 80.7939 62.2098 81.6336 65.2004L83.5591 64.6598ZM84.2888 65.2126C83.949 65.2126 83.651 64.9867 83.5591 64.6597L81.6336 65.2006C81.9678 66.3904 83.0526 67.2126 84.2888 67.2126V65.2126ZM89.224 65.2126H84.2888V67.2126H89.224V65.2126ZM92.3285 68.3171C92.3285 66.6044 90.9367 65.2126 89.224 65.2126V67.2126C89.8321 67.2126 90.3285 67.709 90.3285 68.3171H92.3285ZM92.3285 79.7921V68.3171H90.3285V79.7921H92.3285ZM89.224 82.8966C90.937 82.8966 92.3285 81.5047 92.3285 79.7921H90.3285C90.3285 80.4003 89.8323 80.8966 89.224 80.8966V82.8966ZM84.6197 82.8966H89.224V80.8966H84.6197V82.8966ZM83.8835 83.4751C83.9661 83.1355 84.2702 82.8966 84.6197 82.8966V80.8966C83.3479 80.8966 82.241 81.7663 81.9402 83.0022L83.8835 83.4751ZM80.118 92.9585C81.8081 89.9867 83.0749 86.7961 83.8834 83.4752L81.9402 83.0021C81.1756 86.1424 79.9777 89.1595 78.3795 91.9698L80.118 92.9585ZM80.2409 93.869C79.9998 93.6279 79.9494 93.2551 80.118 92.9585L78.3795 91.9698C77.7658 93.049 77.9488 94.4054 78.8266 95.2832L80.2409 93.869ZM83.3791 97.007L80.2408 93.869L78.8267 95.2832L81.965 98.4213L83.3791 97.007ZM83.3792 101.398C84.5902 100.187 84.5902 98.2181 83.3792 97.0071L81.9649 98.4213C82.395 98.8513 82.395 99.5534 81.9649 99.9834L83.3792 101.398ZM75.2651 109.512L83.3792 101.398L81.9649 99.9834L73.8508 108.097L75.2651 109.512ZM70.8747 109.512C72.0861 110.723 74.0539 110.723 75.2651 109.512L73.8508 108.097C73.4209 108.527 72.7192 108.528 72.2885 108.097L70.8747 109.512ZM67.9024 106.54L70.8745 109.512L72.2887 108.097L69.3166 105.126L67.9024 106.54ZM66.9754 106.427C67.275 106.247 67.6568 106.294 67.9021 106.54L69.3169 105.126C68.4212 104.229 67.0307 104.06 65.9451 104.712L66.9754 106.427ZM57.3298 110.495C60.7205 109.606 63.9661 108.238 66.9759 106.426L65.9446 104.713C63.0979 106.426 60.0288 107.72 56.8228 108.56L57.3298 110.495ZM56.764 111.228C56.764 110.884 56.9966 110.582 57.3297 110.495L56.8229 108.56C55.6101 108.878 54.764 109.974 54.764 111.228H56.764ZM56.764 115.357V111.228H54.764V115.357H56.764ZM53.6596 118.461C55.3723 118.461 56.764 117.069 56.764 115.357H54.764C54.764 115.965 54.2677 116.461 53.6596 116.461V118.461ZM42.1845 118.461H53.6596V116.461H42.1845V118.461ZM39.0801 115.357C39.0801 117.069 40.4719 118.461 42.1845 118.461V116.461C41.5764 116.461 41.0801 115.965 41.0801 115.357H39.0801ZM39.0801 111.228V115.357H41.0801V111.228H39.0801ZM38.5145 110.495C38.8476 110.582 39.0801 110.883 39.0801 111.228H41.0801C41.0801 109.974 40.2344 108.878 39.0212 108.56L38.5145 110.495ZM28.8679 106.426C31.8781 108.237 35.1238 109.606 38.5143 110.495L39.0213 108.56C35.8156 107.72 32.7462 106.426 29.8989 104.713L28.8679 106.426ZM27.9413 106.54C28.1877 106.293 28.5697 106.247 28.8675 106.426L29.8993 104.713C28.8133 104.059 27.4225 104.23 26.5271 105.126L27.9413 106.54ZM24.9696 109.512L27.9413 106.54L26.527 105.126L23.5554 108.098L24.9696 109.512ZM20.5792 109.512C21.7905 110.723 23.7582 110.723 24.9695 109.512L23.5555 108.097C23.1252 108.528 22.4235 108.528 21.9932 108.097L20.5792 109.512ZM19.392 108.325L20.5791 109.512L21.9933 108.097L20.8062 106.91L19.392 108.325ZM18.3203 108.325C18.6165 108.029 19.0963 108.029 19.3918 108.324L20.8063 106.91C19.7293 105.833 17.983 105.834 16.9063 106.91L18.3203 108.325ZM18.3205 109.396C18.0244 109.1 18.0244 108.621 18.3204 108.325L16.9062 106.91C15.8291 107.987 15.8291 109.734 16.9065 110.811L18.3205 109.396ZM19.5077 110.584L18.3206 109.396L16.9064 110.811L18.0935 111.998L19.5077 110.584ZM26.0415 110.583C24.2408 112.384 21.3081 112.384 19.5077 110.584L18.0935 111.998C20.675 114.579 24.8739 114.579 27.4556 111.998L26.0415 110.583ZM28.0589 108.566L26.0414 110.584L27.4557 111.998L29.4732 109.98L28.0589 108.566ZM36.8511 111.602C34.212 110.812 31.6647 109.738 29.2513 108.399L28.2807 110.147C30.8198 111.556 33.5 112.686 36.2773 113.518L36.8511 111.602ZM37.5642 115.357V112.56H35.5642V115.357H37.5642ZM42.1843 119.977C39.6377 119.977 37.5642 117.903 37.5642 115.357H35.5642C35.5642 119.008 38.5331 121.977 42.1843 121.977V119.977ZM53.6594 119.977H42.1843V121.977H53.6594V119.977ZM58.2795 115.357C58.2795 117.903 56.2062 119.977 53.6594 119.977V121.977C57.3108 121.977 60.2795 119.008 60.2795 115.357H58.2795ZM58.2795 112.56V115.357H60.2795V112.56H58.2795ZM66.592 108.399C64.1789 109.738 61.6321 110.812 58.9926 111.602L59.5663 113.518C62.3441 112.686 65.0239 111.556 67.5627 110.147L66.592 108.399ZM69.8024 110.583L67.7844 108.566L66.3703 109.98L68.3883 111.998L69.8024 110.583ZM76.3362 110.583C74.5355 112.384 71.6029 112.384 69.8025 110.584L68.3882 111.998C70.9697 114.579 75.1687 114.579 77.7503 111.998L76.3362 110.583ZM84.4505 102.469L76.3362 110.584L77.7504 111.998L85.8647 103.883L84.4505 102.469ZM84.4504 95.9354C86.251 97.7363 86.2509 100.669 84.4505 102.469L85.8648 103.883C88.4462 101.302 88.4461 97.1032 85.8648 94.5213L84.4504 95.9354ZM82.2427 93.7277L84.4505 95.9355L85.8647 94.5213L83.6569 92.3134L82.2427 93.7277ZM85.0124 85.1415C84.2904 87.7092 83.3028 90.1936 82.0641 92.5562L83.8354 93.4849C85.1388 90.9987 86.1781 88.3845 86.9378 85.683L85.0124 85.1415ZM89.2233 84.4122H85.9751V86.4122H89.2233V84.4122ZM93.8434 79.7921C93.8434 82.3388 91.77 84.4122 89.2233 84.4122V86.4122C92.8745 86.4122 95.8434 83.4433 95.8434 79.7921H93.8434ZM93.8434 68.3171V79.7921H95.8434V68.3171H93.8434ZM89.224 63.6968C91.7706 63.6968 93.8438 65.7701 93.8434 68.3169L95.8434 68.3172C95.844 64.6657 92.8753 61.6968 89.224 61.6968V63.6968ZM43.2474 49.2304C30.9598 51.4746 22.043 62.1827 22.043 74.6894H24.043C24.043 63.1465 32.2716 53.2681 43.6067 51.1978L43.2474 49.2304ZM46.4557 51.4478C46.182 49.9488 44.744 48.9572 43.2474 49.2304L43.6066 51.1979C44.0179 51.1228 44.4131 51.3959 44.4882 51.807L46.4557 51.4478ZM44.2383 54.6563C45.7366 54.3827 46.7292 52.9463 46.4557 51.4478L44.4882 51.807C44.5634 52.2191 44.2904 52.6137 43.879 52.6888L44.2383 54.6563ZM27.5586 74.6894C27.5586 64.845 34.5745 56.4211 44.2383 54.6563L43.879 52.6888C33.2624 54.6276 25.5586 63.8816 25.5586 74.6894H27.5586ZM47.9237 95.0548C36.6952 95.0548 27.5586 85.918 27.5586 74.6894H25.5586C25.5586 87.0226 35.5906 97.0548 47.9237 97.0548V95.0548ZM68.2891 74.6894C68.2891 85.918 59.1523 95.0548 47.9237 95.0548V97.0548C60.2569 97.0548 70.2891 87.0226 70.2891 74.6894H68.2891ZM51.5886 54.6525C61.2644 56.4093 68.2891 64.8344 68.2891 74.6894H70.2891C70.2891 63.8702 62.5754 54.6146 51.9459 52.6847L51.5886 54.6525ZM49.368 51.4464C49.0959 52.9452 50.0902 54.3804 51.5886 54.6525L51.9459 52.6847C51.5342 52.6099 51.261 52.2156 51.3358 51.8037L49.368 51.4464ZM52.5736 49.2254C51.0742 48.9539 49.64 49.9478 49.368 51.4464L51.3358 51.8037C51.4106 51.3917 51.8041 51.1186 52.2172 51.1934L52.5736 49.2254ZM73.8048 74.6894C73.8048 62.1697 64.8768 51.4592 52.574 49.2255L52.2167 51.1933C63.5661 53.2539 71.8048 63.1342 71.8048 74.6894H73.8048ZM47.9237 100.57C62.1954 100.57 73.8048 88.9611 73.8048 74.6894H71.8048C71.8048 87.8565 61.0908 98.5704 47.9237 98.5704V100.57ZM22.043 74.6894C22.043 88.9611 33.6521 100.57 47.9237 100.57V98.5704C34.7567 98.5704 24.043 87.8565 24.043 74.6894H22.043ZM63.7127 68.3828C68.3196 79.1226 59.6358 91.9871 47.9467 91.6922L47.8962 93.6916C61.048 94.0234 70.7303 79.6691 65.5507 67.5943L63.7127 68.3828ZM47.9214 57.6877C54.9108 57.6877 61.1022 61.875 63.7035 68.3608L65.5598 67.6163C62.6543 60.3719 55.7277 55.6877 47.9214 55.6877V57.6877ZM30.9191 74.6696C30.7349 65.5366 38.788 57.5162 47.9027 57.6875L47.9402 55.6879C37.696 55.4954 28.7123 64.4367 28.9195 74.71L30.9191 74.6696ZM47.9214 91.6919C38.5475 91.6919 30.9195 84.0638 30.9193 74.6898L28.9193 74.6898C28.9196 85.1683 37.4429 93.6919 47.9214 93.6919V91.6919ZM37.7625 63.0094C35.2251 65.1815 33.4568 68.2014 32.7714 71.4608L34.7285 71.8724C35.3247 69.0375 36.8662 66.4095 39.0631 64.5288L37.7625 63.0094ZM41.9945 65.2491L39.0203 62.9747L37.8054 64.5635L40.7796 66.8378L41.9945 65.2491ZM42.7156 67.8391C43.0796 66.914 42.7837 65.8527 41.9946 65.2492L40.7795 66.8378C40.8595 66.8989 40.8913 67.0132 40.8545 67.1068L42.7156 67.8391ZM42.7037 67.868L42.7044 67.8663L40.8657 67.0795L40.865 67.0812L42.7037 67.868ZM41.1312 71.8795L42.7153 67.8396L40.8533 67.1095L39.2692 71.1494L41.1312 71.8795ZM39.0541 73.2973C39.9685 73.2973 40.7979 72.7298 41.1312 71.8794L39.2691 71.1496C39.2354 71.2357 39.1437 71.2973 39.0541 71.2973V73.2973ZM33.6353 73.2973H39.0541V71.2973H33.6353V73.2973ZM32.7713 71.461C32.7226 71.6926 32.6838 71.9223 32.6487 72.1341L34.6219 72.4605C34.6568 72.2499 34.6896 72.0577 34.7286 71.8722L32.7713 71.461ZM54.1547 88.8717C59.5048 86.5826 63.2192 81.1191 63.3953 75.3062L61.3962 75.2457C61.2437 80.2825 58.0004 85.0509 53.368 87.033L54.1547 88.8717ZM52.9274 84.6639L52.7627 87.9015L54.7601 88.0032L54.9248 84.7655L52.9274 84.6639ZM51.2097 81.4453C52.3384 82.1254 52.9932 83.3573 52.9274 84.6644L54.9249 84.765C55.0278 82.7196 54.0003 80.7917 52.2419 79.7322L51.2097 81.4453ZM50.3624 80.9387L51.2127 81.4471L52.239 79.7305L51.3886 79.2221L50.3624 80.9387ZM49.6314 78.215C49.0973 79.1746 49.4215 80.3738 50.3608 80.9378L51.3902 79.2231C51.3829 79.2187 51.3799 79.2151 51.3787 79.2134C51.377 79.2113 51.3759 79.2088 51.3752 79.2062C51.3745 79.2036 51.3744 79.2013 51.3746 79.1993C51.3748 79.1978 51.3753 79.1942 51.3789 79.1877L49.6314 78.215ZM53.9617 70.4414L49.6316 78.2147L51.3788 79.188L55.7089 71.4147L53.9617 70.4414ZM55.731 69.4007C54.996 69.4007 54.318 69.7998 53.9611 70.4425L55.7095 71.4137C55.7139 71.4057 55.7227 71.4007 55.731 71.4007V69.4007ZM61.758 69.4007H55.731V71.4007H61.758V69.4007ZM63.395 75.315C63.4635 73.561 63.2421 71.7866 62.7119 70.1007L60.8041 70.7007C61.262 72.1569 61.4565 73.7012 61.3965 75.237L63.395 75.315ZM55.7313 67.8849H60.1319V65.8849H55.7313V67.8849ZM52.6374 69.7043C53.2606 68.5828 54.4468 67.8849 55.7313 67.8849V65.8849C53.7209 65.8849 51.8654 66.9762 50.8892 68.7328L52.6374 69.7043ZM48.3078 77.4768L52.6369 69.7052L50.8897 68.7319L46.5606 76.5035L48.3078 77.4768ZM49.5836 82.2385C47.9275 81.2445 47.3711 79.1578 48.3077 77.4769L46.5606 76.5034C45.0977 79.129 45.9743 82.4048 48.5543 83.9533L49.5836 82.2385ZM49.8422 82.3895C49.7364 82.3297 49.6616 82.2872 49.6002 82.2487L48.5376 83.9431C48.6452 84.0105 48.7622 84.0764 48.858 84.1306L49.8422 82.3895ZM49.8209 82.3778L49.8207 82.3777L48.8795 84.1424L48.8797 84.1425L49.8209 82.3778ZM51.4071 84.6636C51.5012 83.9275 51.1464 83.3857 50.7974 83.0499C50.4769 82.7416 50.0722 82.5195 49.8424 82.3896L48.8582 84.1307C48.9896 84.205 49.0992 84.2672 49.2002 84.3325C49.3008 84.3975 49.3678 84.4499 49.4108 84.4912C49.4534 84.5322 49.4511 84.5422 49.4404 84.5182C49.4252 84.4838 49.4194 84.4405 49.4233 84.4101L51.4071 84.6636ZM51.1868 89.049L51.4139 84.5877L49.4165 84.486L49.1894 88.9473L51.1868 89.049ZM47.9214 90.176C48.7354 90.176 49.5456 90.1116 50.3436 89.986L50.0325 88.0103C49.3362 88.12 48.63 88.176 47.9214 88.176V90.176ZM32.4857 75.8898C33.1014 83.8702 39.7846 90.176 47.9214 90.176V88.176C40.8394 88.176 35.0159 82.6844 34.4798 75.736L32.4857 75.8898ZM39.0543 74.8129H33.4828V76.8129H39.0543V74.8129ZM42.5423 72.4328C41.974 73.8818 40.6088 74.8129 39.0543 74.8129V76.8129C41.4322 76.8129 43.5358 75.3773 44.4042 73.163L42.5423 72.4328ZM44.1257 68.3946L42.5422 72.4329L44.4042 73.163L45.9877 69.1247L44.1257 68.3946ZM42.9152 64.0457C44.2356 65.0555 44.7344 66.847 44.1261 68.3936L45.9873 69.1257C46.9225 66.7479 46.1599 64.0094 44.1302 62.457L42.9152 64.0457ZM40.891 62.4979L42.9153 64.0457L44.1301 62.457L42.1058 60.9092L40.891 62.4979ZM47.9212 59.2035C45.5091 59.2035 43.1747 59.7539 41.0534 60.808L41.9434 62.5991C43.7868 61.6831 45.8164 61.2035 47.9212 61.2035V59.2035ZM60.9757 66.3483C58.1674 61.9322 53.2994 59.203 47.9211 59.2035L47.9213 61.2035C52.6113 61.2031 56.8446 63.5791 59.2881 67.4215L60.9757 66.3483ZM15.6841 76.802C17.2009 76.802 18.4306 75.5723 18.4306 74.0554H16.4306C16.4306 74.4677 16.0964 74.802 15.6841 74.802V76.802ZM12.9375 74.0554C12.9375 75.5723 14.1672 76.802 15.6841 76.802V74.802C15.2717 74.802 14.9375 74.4677 14.9375 74.0554H12.9375ZM15.6841 71.3088C14.1672 71.3088 12.9375 72.5385 12.9375 74.0554H14.9375C14.9375 73.6431 15.2718 73.3088 15.6841 73.3088V71.3088ZM18.4306 74.0554C18.4306 72.5385 17.2009 71.3088 15.6841 71.3088V73.3088C16.0964 73.3088 16.4306 73.6431 16.4306 74.0554H18.4306Z" fill="#5891D0" mask="url(#path-1-outside-1)"/>
</svg>
