<svg width="120" height="120" viewBox="0 0 120 120" fill="none" xmlns="http://www.w3.org/2000/svg">
<path d="M116.951 97.7854L63.3603 31.7317C64.1239 30.4307 63.9619 28.8505 63.0624 27.7405L58.6878 22.3448C66.6898 16.3816 72.1766 14.8052 84.1967 14.3742C87.699 14.2488 88.8737 9.60491 85.8509 7.82999C67.5294 -2.92872 50.3638 -2.5945 36.2099 8.79702L21.2743 20.8183C19.7572 22.0392 19.5221 24.2636 20.7512 25.7746C21.9531 27.2526 21.7606 29.4419 20.2166 30.6845C18.7042 31.9019 16.4813 31.6663 15.2619 30.159C14.0431 28.6527 11.8358 28.4167 10.3262 29.6301L3.92963 34.7713C-0.610677 38.4252 -1.32341 45.0528 2.35065 49.5852L11.196 60.4953C14.8534 65.0065 21.5077 65.7073 26.027 62.07L32.4217 56.93C33.9381 55.711 34.1759 53.4889 32.9499 51.9767C31.7307 50.473 31.9684 48.2804 33.4756 47.067C34.9899 45.8483 37.2156 46.0834 38.4381 47.5909C39.3981 48.7749 40.9684 49.1682 42.3296 48.692L95.7624 114.926C100.501 120.801 109.088 121.698 114.938 116.968C120.801 112.226 121.703 103.641 116.951 97.7854V97.7854ZM47.9359 44.4435L58.0292 36.3198L65.6858 45.7569L55.5603 53.8944L47.9359 44.4435ZM25.1994 48.6734C25.0309 50.2576 25.2186 51.8251 25.7352 53.2843L21.6203 56.592C20.1062 57.8105 17.8801 57.5754 16.6578 56.0679L7.81252 45.1578C6.59471 43.6557 6.82979 41.4622 8.33635 40.2496L12.4672 36.9294C16.1663 39.1996 21.0568 39.0334 24.6247 36.1614C28.266 33.231 29.3926 28.4809 27.9641 24.4588L40.6182 14.2743C49.565 7.07366 59.7533 5.23805 71.0126 8.76936C63.9596 10.334 58.5352 13.3657 51.493 19.0335C49.9775 20.253 49.7413 22.4742 50.9663 23.9856L55.3789 29.428L41.2266 40.8184C34.6009 36.7602 26.0157 40.9979 25.1994 48.6734V48.6734ZM110.517 111.501C107.685 113.79 103.531 113.359 101.235 110.512L59.9745 59.3665L70.1152 51.2166L111.491 102.215C113.791 105.049 113.356 109.205 110.517 111.501V111.501Z" fill="#5991D0"/>
</svg>
