<svg width="122" height="122" viewBox="0 0 122 122" fill="none" xmlns="http://www.w3.org/2000/svg">
<mask id="path-1-outside-1" maskUnits="userSpaceOnUse" x="0" y="0" width="122" height="122" fill="black">
<rect fill="white" width="122" height="122"/>
<path d="M76.5745 32.6406H21.7537C20.7829 32.6406 19.9959 33.4277 19.9959 34.3984C19.9959 35.3692 20.7829 36.1562 21.7537 36.1562H76.5742C77.545 36.1562 78.332 35.3692 78.332 34.3984C78.332 33.4277 77.5452 32.6406 76.5745 32.6406ZM75.4026 11.5469H63.7729C62.8021 11.5469 62.0151 12.3339 62.0151 13.3047C62.0151 14.2755 62.8021 15.0625 63.7729 15.0625H74.8166V22.0938H23.5115V15.0625H55.5695C56.5403 15.0625 57.3273 14.2755 57.3273 13.3047C57.3273 12.3339 56.5403 11.5469 55.5695 11.5469H22.9255C21.31 11.5469 19.9959 12.861 19.9959 14.4766V22.6797C19.9959 24.2952 21.31 25.6094 22.9255 25.6094H75.4023C77.0179 25.6094 78.332 24.2952 78.332 22.6797V14.4766C78.3323 12.861 77.0179 11.5469 75.4026 11.5469ZM76.5745 39.6719H21.7537C20.7829 39.6719 19.9959 40.4589 19.9959 41.4297C19.9959 42.4005 20.7829 43.1875 21.7537 43.1875H76.5742C77.545 43.1875 78.332 42.4005 78.332 41.4297C78.332 40.4589 77.5452 39.6719 76.5745 39.6719ZM76.5745 53.7344H56.9102C55.9394 53.7344 55.1523 54.5214 55.1523 55.4922C55.1523 56.463 55.9394 57.25 56.9102 57.25H76.5745C77.5452 57.25 78.3323 56.463 78.3323 55.4922C78.3323 54.5214 77.5452 53.7344 76.5745 53.7344ZM76.5745 46.7031H56.9102C55.9394 46.7031 55.1523 47.4902 55.1523 48.4609C55.1523 49.4317 55.9394 50.2188 56.9102 50.2188H76.5745C77.5452 50.2188 78.3323 49.4317 78.3323 48.4609C78.3323 47.4902 77.5452 46.7031 76.5745 46.7031ZM97.3281 73.5475V69.5547C97.3281 65.3029 94.2932 61.7472 90.2758 60.9388V9.78906C90.2758 4.94266 86.3331 1 81.4867 1H16.8414C11.995 1 8.05234 4.94266 8.05234 9.78906V46.8763C4.03492 47.6847 1 51.2404 1 55.4922V80.4344C1 81.4052 1.78703 82.1922 2.75781 82.1922C3.72859 82.1922 4.51562 81.4052 4.51562 80.4344V55.4922C4.51562 52.5843 6.88117 50.2188 9.78906 50.2188H44.0875C46.0804 50.2188 47.811 51.5695 48.2955 53.5016L49.5025 58.3345C50.377 61.8358 53.5089 64.2812 57.1188 64.2812H88.5391C91.447 64.2812 93.8125 66.6468 93.8125 69.5547V73.7999C82.3642 75.4804 73.5468 85.3659 73.5468 97.2733C73.5468 105.808 78.077 113.303 84.8582 117.484H9.78906C6.88117 117.484 4.51562 115.119 4.51562 112.211V88.6375C4.51562 87.6667 3.72859 86.8797 2.75781 86.8797C1.78703 86.8797 1 87.6667 1 88.6375V112.211C1 117.057 4.94266 121 9.78906 121H88.5391C89.6795 121 90.7778 120.785 91.8145 120.365C93.5678 120.779 95.3952 121 97.2735 121C110.356 121 121 110.356 121 97.2735C121 84.2087 110.386 73.5773 97.3281 73.5475ZM86.7602 60.7656H57.1188C55.1254 60.7656 53.3962 59.4156 52.9134 57.4827L51.7059 52.6485C50.8286 49.1479 47.6957 46.7031 44.0875 46.7031H11.568V9.78906C11.568 6.88117 13.9335 4.51562 16.8414 4.51562H81.4867C84.3946 4.51562 86.7602 6.88117 86.7602 9.78906V60.7656ZM97.2735 117.484C86.1292 117.484 77.0627 108.418 77.0627 97.2735C77.0627 86.1292 86.1292 77.0627 97.2735 77.0627C108.418 77.0627 117.484 86.129 117.484 97.2735C117.484 108.418 108.418 117.484 97.2735 117.484ZM105.718 100.139H103.117V86.1777C103.117 84.4776 101.734 83.0943 100.034 83.0943H94.5133C92.8131 83.0943 91.4298 84.4776 91.4298 86.1777V100.139H88.829C87.6543 100.139 86.6048 100.84 86.1552 101.926C85.7057 103.011 85.9518 104.249 86.7827 105.08L95.0934 113.39C95.6945 113.991 96.4841 114.292 97.2738 114.292C98.0634 114.292 98.853 113.991 99.4541 113.39L107.765 105.08C108.595 104.249 108.842 103.011 108.392 101.926C107.942 100.84 106.893 100.139 105.718 100.139V100.139ZM97.2735 110.599L90.3295 103.655H91.862C93.5622 103.655 94.9455 102.272 94.9455 100.571V86.6102H99.6016V100.571C99.6016 102.272 100.985 103.655 102.685 103.655H104.218L97.2735 110.599ZM68.3959 84.9002C69.3667 84.9002 70.1537 84.1131 70.1537 83.1423C70.1537 82.1716 69.3667 81.3845 68.3959 81.3845H62.0748C61.1041 81.3845 60.317 82.1716 60.317 83.1423V98.7381C60.317 99.7089 61.1041 100.496 62.0748 100.496C63.0456 100.496 63.8327 99.7089 63.8327 98.7381V92.5504H67.8939C68.8647 92.5504 69.6517 91.7634 69.6517 90.7926C69.6517 89.8218 68.8647 89.0348 67.8939 89.0348H63.8327V84.9002H68.3959ZM45.3707 100.496H45.3773C45.5078 100.496 48.5856 100.484 49.8149 100.462C54.31 100.384 57.5725 96.4527 57.5725 91.1153C57.5725 85.5044 54.3918 81.7345 49.6579 81.7345H45.3398C44.8729 81.7345 44.4255 81.9201 44.0957 82.2505C43.7659 82.581 43.581 83.0289 43.582 83.4958V83.508V98.4911C43.5864 99.4956 44.3554 100.504 45.3707 100.496V100.496ZM49.6579 85.2498C52.9012 85.2498 54.0569 88.2796 54.0569 91.1151C54.0569 95.092 51.8955 96.9098 49.7535 96.947C49.1516 96.9576 48.0644 96.966 47.1224 96.9714C47.1166 95.1684 47.1039 87.1246 47.1006 85.2496H49.6579V85.2498ZM31.69 98.7384V93.6623C32.6209 93.6573 33.7021 93.6524 34.307 93.6524C37.769 93.6524 40.5852 90.8748 40.5852 87.4609C40.5852 84.047 37.7688 81.2695 34.307 81.2695H29.9322C29.0631 81.2521 28.1378 82.0391 28.1744 83.0273V98.7381C28.1744 99.7089 28.9614 100.496 29.9322 100.496C30.903 100.496 31.69 99.7091 31.69 98.7384ZM34.3068 84.7851C35.8042 84.7851 37.0694 86.0104 37.0694 87.4609C37.0694 88.9115 35.8042 90.1368 34.3068 90.1368C33.7063 90.1368 32.6385 90.1417 31.7106 90.1464C31.7057 89.1892 31.698 85.7861 31.6952 84.7851H34.3068Z"/>
</mask>
<path d="M76.5745 32.6406H21.7537C20.7829 32.6406 19.9959 33.4277 19.9959 34.3984C19.9959 35.3692 20.7829 36.1562 21.7537 36.1562H76.5742C77.545 36.1562 78.332 35.3692 78.332 34.3984C78.332 33.4277 77.5452 32.6406 76.5745 32.6406ZM75.4026 11.5469H63.7729C62.8021 11.5469 62.0151 12.3339 62.0151 13.3047C62.0151 14.2755 62.8021 15.0625 63.7729 15.0625H74.8166V22.0938H23.5115V15.0625H55.5695C56.5403 15.0625 57.3273 14.2755 57.3273 13.3047C57.3273 12.3339 56.5403 11.5469 55.5695 11.5469H22.9255C21.31 11.5469 19.9959 12.861 19.9959 14.4766V22.6797C19.9959 24.2952 21.31 25.6094 22.9255 25.6094H75.4023C77.0179 25.6094 78.332 24.2952 78.332 22.6797V14.4766C78.3323 12.861 77.0179 11.5469 75.4026 11.5469ZM76.5745 39.6719H21.7537C20.7829 39.6719 19.9959 40.4589 19.9959 41.4297C19.9959 42.4005 20.7829 43.1875 21.7537 43.1875H76.5742C77.545 43.1875 78.332 42.4005 78.332 41.4297C78.332 40.4589 77.5452 39.6719 76.5745 39.6719ZM76.5745 53.7344H56.9102C55.9394 53.7344 55.1523 54.5214 55.1523 55.4922C55.1523 56.463 55.9394 57.25 56.9102 57.25H76.5745C77.5452 57.25 78.3323 56.463 78.3323 55.4922C78.3323 54.5214 77.5452 53.7344 76.5745 53.7344ZM76.5745 46.7031H56.9102C55.9394 46.7031 55.1523 47.4902 55.1523 48.4609C55.1523 49.4317 55.9394 50.2188 56.9102 50.2188H76.5745C77.5452 50.2188 78.3323 49.4317 78.3323 48.4609C78.3323 47.4902 77.5452 46.7031 76.5745 46.7031ZM97.3281 73.5475V69.5547C97.3281 65.3029 94.2932 61.7472 90.2758 60.9388V9.78906C90.2758 4.94266 86.3331 1 81.4867 1H16.8414C11.995 1 8.05234 4.94266 8.05234 9.78906V46.8763C4.03492 47.6847 1 51.2404 1 55.4922V80.4344C1 81.4052 1.78703 82.1922 2.75781 82.1922C3.72859 82.1922 4.51562 81.4052 4.51562 80.4344V55.4922C4.51562 52.5843 6.88117 50.2188 9.78906 50.2188H44.0875C46.0804 50.2188 47.811 51.5695 48.2955 53.5016L49.5025 58.3345C50.377 61.8358 53.5089 64.2812 57.1188 64.2812H88.5391C91.447 64.2812 93.8125 66.6468 93.8125 69.5547V73.7999C82.3642 75.4804 73.5468 85.3659 73.5468 97.2733C73.5468 105.808 78.077 113.303 84.8582 117.484H9.78906C6.88117 117.484 4.51562 115.119 4.51562 112.211V88.6375C4.51562 87.6667 3.72859 86.8797 2.75781 86.8797C1.78703 86.8797 1 87.6667 1 88.6375V112.211C1 117.057 4.94266 121 9.78906 121H88.5391C89.6795 121 90.7778 120.785 91.8145 120.365C93.5678 120.779 95.3952 121 97.2735 121C110.356 121 121 110.356 121 97.2735C121 84.2087 110.386 73.5773 97.3281 73.5475ZM86.7602 60.7656H57.1188C55.1254 60.7656 53.3962 59.4156 52.9134 57.4827L51.7059 52.6485C50.8286 49.1479 47.6957 46.7031 44.0875 46.7031H11.568V9.78906C11.568 6.88117 13.9335 4.51562 16.8414 4.51562H81.4867C84.3946 4.51562 86.7602 6.88117 86.7602 9.78906V60.7656ZM97.2735 117.484C86.1292 117.484 77.0627 108.418 77.0627 97.2735C77.0627 86.1292 86.1292 77.0627 97.2735 77.0627C108.418 77.0627 117.484 86.129 117.484 97.2735C117.484 108.418 108.418 117.484 97.2735 117.484ZM105.718 100.139H103.117V86.1777C103.117 84.4776 101.734 83.0943 100.034 83.0943H94.5133C92.8131 83.0943 91.4298 84.4776 91.4298 86.1777V100.139H88.829C87.6543 100.139 86.6048 100.84 86.1552 101.926C85.7057 103.011 85.9518 104.249 86.7827 105.08L95.0934 113.39C95.6945 113.991 96.4841 114.292 97.2738 114.292C98.0634 114.292 98.853 113.991 99.4541 113.39L107.765 105.08C108.595 104.249 108.842 103.011 108.392 101.926C107.942 100.84 106.893 100.139 105.718 100.139V100.139ZM97.2735 110.599L90.3295 103.655H91.862C93.5622 103.655 94.9455 102.272 94.9455 100.571V86.6102H99.6016V100.571C99.6016 102.272 100.985 103.655 102.685 103.655H104.218L97.2735 110.599ZM68.3959 84.9002C69.3667 84.9002 70.1537 84.1131 70.1537 83.1423C70.1537 82.1716 69.3667 81.3845 68.3959 81.3845H62.0748C61.1041 81.3845 60.317 82.1716 60.317 83.1423V98.7381C60.317 99.7089 61.1041 100.496 62.0748 100.496C63.0456 100.496 63.8327 99.7089 63.8327 98.7381V92.5504H67.8939C68.8647 92.5504 69.6517 91.7634 69.6517 90.7926C69.6517 89.8218 68.8647 89.0348 67.8939 89.0348H63.8327V84.9002H68.3959ZM45.3707 100.496H45.3773C45.5078 100.496 48.5856 100.484 49.8149 100.462C54.31 100.384 57.5725 96.4527 57.5725 91.1153C57.5725 85.5044 54.3918 81.7345 49.6579 81.7345H45.3398C44.8729 81.7345 44.4255 81.9201 44.0957 82.2505C43.7659 82.581 43.581 83.0289 43.582 83.4958V83.508V98.4911C43.5864 99.4956 44.3554 100.504 45.3707 100.496V100.496ZM49.6579 85.2498C52.9012 85.2498 54.0569 88.2796 54.0569 91.1151C54.0569 95.092 51.8955 96.9098 49.7535 96.947C49.1516 96.9576 48.0644 96.966 47.1224 96.9714C47.1166 95.1684 47.1039 87.1246 47.1006 85.2496H49.6579V85.2498ZM31.69 98.7384V93.6623C32.6209 93.6573 33.7021 93.6524 34.307 93.6524C37.769 93.6524 40.5852 90.8748 40.5852 87.4609C40.5852 84.047 37.7688 81.2695 34.307 81.2695H29.9322C29.0631 81.2521 28.1378 82.0391 28.1744 83.0273V98.7381C28.1744 99.7089 28.9614 100.496 29.9322 100.496C30.903 100.496 31.69 99.7091 31.69 98.7384ZM34.3068 84.7851C35.8042 84.7851 37.0694 86.0104 37.0694 87.4609C37.0694 88.9115 35.8042 90.1368 34.3068 90.1368C33.7063 90.1368 32.6385 90.1417 31.7106 90.1464C31.7057 89.1892 31.698 85.7861 31.6952 84.7851H34.3068Z" fill="#5991D0"/>
<path d="M76.5745 32.6406H21.7537C20.7829 32.6406 19.9959 33.4277 19.9959 34.3984C19.9959 35.3692 20.7829 36.1562 21.7537 36.1562H76.5742C77.545 36.1562 78.332 35.3692 78.332 34.3984C78.332 33.4277 77.5452 32.6406 76.5745 32.6406ZM75.4026 11.5469H63.7729C62.8021 11.5469 62.0151 12.3339 62.0151 13.3047C62.0151 14.2755 62.8021 15.0625 63.7729 15.0625H74.8166V22.0938H23.5115V15.0625H55.5695C56.5403 15.0625 57.3273 14.2755 57.3273 13.3047C57.3273 12.3339 56.5403 11.5469 55.5695 11.5469H22.9255C21.31 11.5469 19.9959 12.861 19.9959 14.4766V22.6797C19.9959 24.2952 21.31 25.6094 22.9255 25.6094H75.4023C77.0179 25.6094 78.332 24.2952 78.332 22.6797V14.4766C78.3323 12.861 77.0179 11.5469 75.4026 11.5469ZM76.5745 39.6719H21.7537C20.7829 39.6719 19.9959 40.4589 19.9959 41.4297C19.9959 42.4005 20.7829 43.1875 21.7537 43.1875H76.5742C77.545 43.1875 78.332 42.4005 78.332 41.4297C78.332 40.4589 77.5452 39.6719 76.5745 39.6719ZM76.5745 53.7344H56.9102C55.9394 53.7344 55.1523 54.5214 55.1523 55.4922C55.1523 56.463 55.9394 57.25 56.9102 57.25H76.5745C77.5452 57.25 78.3323 56.463 78.3323 55.4922C78.3323 54.5214 77.5452 53.7344 76.5745 53.7344ZM76.5745 46.7031H56.9102C55.9394 46.7031 55.1523 47.4902 55.1523 48.4609C55.1523 49.4317 55.9394 50.2188 56.9102 50.2188H76.5745C77.5452 50.2188 78.3323 49.4317 78.3323 48.4609C78.3323 47.4902 77.5452 46.7031 76.5745 46.7031ZM97.3281 73.5475V69.5547C97.3281 65.3029 94.2932 61.7472 90.2758 60.9388V9.78906C90.2758 4.94266 86.3331 1 81.4867 1H16.8414C11.995 1 8.05234 4.94266 8.05234 9.78906V46.8763C4.03492 47.6847 1 51.2404 1 55.4922V80.4344C1 81.4052 1.78703 82.1922 2.75781 82.1922C3.72859 82.1922 4.51562 81.4052 4.51562 80.4344V55.4922C4.51562 52.5843 6.88117 50.2188 9.78906 50.2188H44.0875C46.0804 50.2188 47.811 51.5695 48.2955 53.5016L49.5025 58.3345C50.377 61.8358 53.5089 64.2812 57.1188 64.2812H88.5391C91.447 64.2812 93.8125 66.6468 93.8125 69.5547V73.7999C82.3642 75.4804 73.5468 85.3659 73.5468 97.2733C73.5468 105.808 78.077 113.303 84.8582 117.484H9.78906C6.88117 117.484 4.51562 115.119 4.51562 112.211V88.6375C4.51562 87.6667 3.72859 86.8797 2.75781 86.8797C1.78703 86.8797 1 87.6667 1 88.6375V112.211C1 117.057 4.94266 121 9.78906 121H88.5391C89.6795 121 90.7778 120.785 91.8145 120.365C93.5678 120.779 95.3952 121 97.2735 121C110.356 121 121 110.356 121 97.2735C121 84.2087 110.386 73.5773 97.3281 73.5475ZM86.7602 60.7656H57.1188C55.1254 60.7656 53.3962 59.4156 52.9134 57.4827L51.7059 52.6485C50.8286 49.1479 47.6957 46.7031 44.0875 46.7031H11.568V9.78906C11.568 6.88117 13.9335 4.51562 16.8414 4.51562H81.4867C84.3946 4.51562 86.7602 6.88117 86.7602 9.78906V60.7656ZM97.2735 117.484C86.1292 117.484 77.0627 108.418 77.0627 97.2735C77.0627 86.1292 86.1292 77.0627 97.2735 77.0627C108.418 77.0627 117.484 86.129 117.484 97.2735C117.484 108.418 108.418 117.484 97.2735 117.484ZM105.718 100.139H103.117V86.1777C103.117 84.4776 101.734 83.0943 100.034 83.0943H94.5133C92.8131 83.0943 91.4298 84.4776 91.4298 86.1777V100.139H88.829C87.6543 100.139 86.6048 100.84 86.1552 101.926C85.7057 103.011 85.9518 104.249 86.7827 105.08L95.0934 113.39C95.6945 113.991 96.4841 114.292 97.2738 114.292C98.0634 114.292 98.853 113.991 99.4541 113.39L107.765 105.08C108.595 104.249 108.842 103.011 108.392 101.926C107.942 100.84 106.893 100.139 105.718 100.139V100.139ZM97.2735 110.599L90.3295 103.655H91.862C93.5622 103.655 94.9455 102.272 94.9455 100.571V86.6102H99.6016V100.571C99.6016 102.272 100.985 103.655 102.685 103.655H104.218L97.2735 110.599ZM68.3959 84.9002C69.3667 84.9002 70.1537 84.1131 70.1537 83.1423C70.1537 82.1716 69.3667 81.3845 68.3959 81.3845H62.0748C61.1041 81.3845 60.317 82.1716 60.317 83.1423V98.7381C60.317 99.7089 61.1041 100.496 62.0748 100.496C63.0456 100.496 63.8327 99.7089 63.8327 98.7381V92.5504H67.8939C68.8647 92.5504 69.6517 91.7634 69.6517 90.7926C69.6517 89.8218 68.8647 89.0348 67.8939 89.0348H63.8327V84.9002H68.3959ZM45.3707 100.496H45.3773C45.5078 100.496 48.5856 100.484 49.8149 100.462C54.31 100.384 57.5725 96.4527 57.5725 91.1153C57.5725 85.5044 54.3918 81.7345 49.6579 81.7345H45.3398C44.8729 81.7345 44.4255 81.9201 44.0957 82.2505C43.7659 82.581 43.581 83.0289 43.582 83.4958V83.508V98.4911C43.5864 99.4956 44.3554 100.504 45.3707 100.496V100.496ZM49.6579 85.2498C52.9012 85.2498 54.0569 88.2796 54.0569 91.1151C54.0569 95.092 51.8955 96.9098 49.7535 96.947C49.1516 96.9576 48.0644 96.966 47.1224 96.9714C47.1166 95.1684 47.1039 87.1246 47.1006 85.2496H49.6579V85.2498ZM31.69 98.7384V93.6623C32.6209 93.6573 33.7021 93.6524 34.307 93.6524C37.769 93.6524 40.5852 90.8748 40.5852 87.4609C40.5852 84.047 37.7688 81.2695 34.307 81.2695H29.9322C29.0631 81.2521 28.1378 82.0391 28.1744 83.0273V98.7381C28.1744 99.7089 28.9614 100.496 29.9322 100.496C30.903 100.496 31.69 99.7091 31.69 98.7384ZM34.3068 84.7851C35.8042 84.7851 37.0694 86.0104 37.0694 87.4609C37.0694 88.9115 35.8042 90.1368 34.3068 90.1368C33.7063 90.1368 32.6385 90.1417 31.7106 90.1464C31.7057 89.1892 31.698 85.7861 31.6952 84.7851H34.3068Z" stroke="#5991D0" stroke-width="2" mask="url(#path-1-outside-1)"/>
</svg>
