<svg width="120" height="120" viewBox="0 0 120 120" fill="none" xmlns="http://www.w3.org/2000/svg">
<g clip-path="url(#clip0)">
<g clip-path="url(#clip1)">
<path d="M33.7498 89.9998C32.7898 89.9998 31.8298 89.6348 31.0998 88.8998C29.6348 87.4348 29.6348 85.0598 31.0998 83.5948L44.6948 69.9998L31.0948 56.3998C29.6298 54.9348 29.6298 52.5598 31.0948 51.0948C32.5598 49.6298 34.9348 49.6298 36.3998 51.0948L52.6498 67.3448C54.1148 68.8098 54.1148 71.1848 52.6498 72.6498L36.3998 88.8998C35.6698 89.6348 34.7098 89.9998 33.7498 89.9998V89.9998Z" fill="#5991D0"/>
<path d="M86.25 90H63.75C61.68 90 60 88.32 60 86.25C60 84.18 61.68 82.5 63.75 82.5H86.25C88.32 82.5 90 84.18 90 86.25C90 88.32 88.32 90 86.25 90Z" fill="#5991D0"/>
<path d="M106.25 115H13.75C6.165 115 0 108.835 0 101.25V18.75C0 11.165 6.165 5 13.75 5H106.25C113.835 5 120 11.165 120 18.75V101.25C120 108.835 113.835 115 106.25 115ZM13.75 12.5C10.305 12.5 7.5 15.305 7.5 18.75V101.25C7.5 104.695 10.305 107.5 13.75 107.5H106.25C109.695 107.5 112.5 104.695 112.5 101.25V18.75C112.5 15.305 109.695 12.5 106.25 12.5H13.75Z" fill="#5991D0"/>
<path d="M116.25 30H3.75C1.68 30 0 28.32 0 26.25C0 24.18 1.68 22.5 3.75 22.5H116.25C118.32 22.5 120 24.18 120 26.25C120 28.32 118.32 30 116.25 30Z" fill="#5991D0"/>
</g>
<g clip-path="url(#clip2)">
<path d="M216.25 260.75H-79.75C-104.022 260.75 -123.75 241.022 -123.75 216.75V-47.25C-123.75 -71.522 -104.022 -91.25 -79.75 -91.25H216.25C240.522 -91.25 260.25 -71.522 260.25 -47.25V216.75C260.25 241.022 240.522 260.75 216.25 260.75ZM-79.75 -67.25C-90.774 -67.25 -99.75 -58.274 -99.75 -47.25V216.75C-99.75 227.774 -90.774 236.75 -79.75 236.75H216.25C227.274 236.75 236.25 227.774 236.25 216.75V-47.25C236.25 -58.274 227.274 -67.25 216.25 -67.25H-79.75Z" fill="#5991D0"/>
</g>
</g>
<defs>
<clipPath id="clip0">
<rect width="120" height="120" fill="white"/>
</clipPath>
<clipPath id="clip1">
<rect width="120" height="120" fill="white"/>
</clipPath>
<clipPath id="clip2">
<rect width="384" height="384" fill="white" transform="translate(-123.75 -107.25)"/>
</clipPath>
</defs>
</svg>
