<svg width="124" height="122" viewBox="0 0 124 122" fill="none" xmlns="http://www.w3.org/2000/svg">
<g clip-path="url(#clip0)">
<path d="M119.562 58.1869L119.562 58.1869C120.746 58.3592 121.709 59.2719 121.947 60.4432L121.457 60.5425L121.947 60.4432C122.215 61.7638 121.478 63.1145 120.244 63.625L119.562 58.1869ZM119.562 58.1869C118.378 58.0145 117.172 58.6305 116.628 59.7037L116.628 59.7038M119.562 58.1869L116.628 59.7038M116.628 59.7038C116.092 60.7616 116.264 62.07 117.082 62.9435M116.628 59.7038L117.082 62.9435M117.082 62.9435C117.886 63.8025 119.161 64.0727 120.244 63.625L117.082 62.9435Z" fill="#5991D0" stroke="#5991D0" stroke-linecap="round" stroke-linejoin="round"/>
<path d="M118.694 68.8616L118.694 68.8616C117.149 68.5736 115.665 69.5908 115.377 71.1346L115.832 71.2198L115.377 71.1346C110.539 97.022 87.8805 115.812 61.4992 115.812C31.2763 115.812 6.68744 91.2233 6.68744 61C6.68744 30.7767 31.2763 6.1875 61.4992 6.1875C87.8947 6.1875 110.555 24.9898 115.382 50.8935L115.382 50.8936C115.67 52.4372 117.155 53.4567 118.698 53.1682C120.242 52.8804 121.261 51.3957 120.973 49.8515C115.644 21.2549 90.6317 0.5 61.4992 0.5C45.3403 0.5 30.146 6.79385 18.7197 18.2201L19.0524 18.5529L18.7197 18.2201C7.29377 29.6464 1 44.8408 1 61C1 77.1592 7.29377 92.3536 18.7197 103.78L19.0732 103.426L18.7197 103.78C30.146 115.206 45.3403 121.5 61.4992 121.5C90.6164 121.5 115.626 100.758 120.967 72.1792L120.476 72.0873L120.967 72.1792C121.256 70.6356 120.238 69.15 118.694 68.8616Z" fill="#5991D0" stroke="#5991D0"/>
<path d="M29.8066 83.8096C28.697 84.0932 27.9085 84.9936 27.7135 86.0504C22.3489 78.8471 19.4489 70.1486 19.4489 61.0008C19.4492 37.8143 38.3131 18.9502 61.4988 18.9502C66.7875 18.9502 71.9409 19.9182 76.8179 21.827C78.2811 22.3997 79.9299 21.6775 80.5025 20.2155L80.5025 20.2154C81.075 18.7529 80.3535 17.1032 78.8907 16.5308C73.35 14.3624 67.498 13.2627 61.4988 13.2627C35.1759 13.2627 13.7617 34.6774 13.7617 61.0004C13.7617 71.6953 17.2558 81.8552 23.704 90.1744C22.5883 90.324 21.6222 91.1328 21.3264 92.2896L21.8109 92.4135L21.3264 92.2896C20.9374 93.8113 21.8554 95.36 23.377 95.7493L23.377 95.7493L32.0156 97.9582C32.2489 98.018 32.4854 98.047 32.7204 98.047C33.4648 98.047 34.1911 97.7542 34.7312 97.2141C35.4413 96.504 35.7243 95.4719 35.4754 94.4988L35.0784 94.6003L35.4754 94.4988L33.2662 85.86L32.7842 85.9832L33.2662 85.8599C32.877 84.3387 31.3296 83.4195 29.8066 83.8096Z" fill="#5991D0" stroke="#5991D0"/>
<path d="M105.273 41.9305L104.859 42.1111L105.273 41.9305C103.692 38.3056 101.69 34.9258 99.2914 31.8265C100.407 31.6773 101.374 30.8688 101.67 29.7115L101.67 29.7114C102.059 28.1897 101.141 26.641 99.6197 26.2517L99.6196 26.2517L90.9809 24.0427L90.9808 24.0427C90.0079 23.7942 88.9758 24.0765 88.2654 24.7873C87.5553 25.4974 87.2724 26.5293 87.5212 27.5024L87.9946 27.3814L87.5212 27.5024L89.7304 36.1413L90.2148 36.0174L89.7304 36.1413C90.0593 37.4273 91.2159 38.2811 92.484 38.2811C92.7176 38.2811 92.9545 38.252 93.1898 38.192L93.1901 38.1919C94.3019 37.9076 95.0915 37.0041 95.2843 35.9445C100.652 43.1389 103.548 51.8196 103.548 61.0009C103.548 84.1869 84.6841 103.051 61.4981 103.051C56.6225 103.051 51.8473 102.225 47.3043 100.596L47.3042 100.596C45.827 100.067 44.1979 100.834 43.6677 102.313C43.1371 103.791 43.9062 105.42 45.3845 105.95C50.5459 107.8 55.9678 108.738 61.4979 108.738C87.8208 108.738 109.235 87.3236 109.235 61.0007C109.235 54.3746 107.902 47.9577 105.273 41.9305Z" fill="#5991D0" stroke="#5991D0"/>
<path d="M58.3554 90.8908C57.3348 90.6133 56.6267 89.6868 56.6267 88.6293V68.7075H56.1267M58.3554 90.8908L42.9281 64.6768C42.5027 65.4015 42.4976 66.2985 42.915 67.0281C43.3324 67.7575 44.1087 68.2075 44.9491 68.2075H56.1267V68.7075M58.3554 90.8908C58.5598 90.9463 58.7663 90.9733 58.9707 90.9733C59.7863 90.9733 60.563 90.5455 60.9914 89.8162L80.0738 57.3238M58.3554 90.8908L80.0738 57.3238M56.1267 68.7075V88.6293C56.1267 89.9124 56.9858 91.0366 58.2243 91.3733L58.2243 91.3733C58.4716 91.4405 58.7222 91.4733 58.9707 91.4733C59.9602 91.4733 60.9026 90.9546 61.4226 90.0694L61.4226 90.0694L80.505 57.577L80.505 57.5769C81.0211 56.6977 81.0274 55.6094 80.5209 54.7242L80.5209 54.7242C80.0144 53.8391 79.0725 53.2931 78.0528 53.2931H66.8752M56.1267 68.7075H44.9491C43.9294 68.7075 42.9875 68.1615 42.481 67.2764L42.481 67.2764C41.9746 66.3912 41.9808 65.3029 42.4969 64.4237L42.497 64.4236L61.5793 31.9312L61.5794 31.9312C62.2294 30.8245 63.5397 30.2904 64.7777 30.6273L66.8752 53.2931M80.0738 57.3238C80.4992 56.5991 80.5044 55.7021 80.0869 54.9725M80.0738 57.3238L80.0869 54.9725M66.8752 53.2931V33.3713C66.8752 32.0882 66.0159 30.9641 64.7778 30.6274L66.8752 53.2931ZM80.0869 54.9725C79.6695 54.2431 78.8933 53.7931 78.0528 53.7931M80.0869 54.9725L78.0528 53.7931M78.0528 53.7931H66.8752H78.0528ZM49.9171 63.0199L61.1878 43.8289V56.1369C61.1878 57.7075 62.4612 58.9806 64.0315 58.9806H73.0848L61.8142 78.1717V65.8637C61.8142 64.2931 60.541 63.0199 58.9704 63.0199H49.9171Z" fill="#5991D0" stroke="#5991D0"/>
</g>
<defs>
<clipPath id="clip0">
<rect width="123" height="122" fill="white" transform="translate(0.5)"/>
</clipPath>
</defs>
</svg>
