<svg width="120" height="120" viewBox="0 0 120 120" fill="none" xmlns="http://www.w3.org/2000/svg">
<g clip-path="url(#clip0)">
<path d="M109.505 36.0085C108.298 33.5243 105.307 32.4886 102.823 33.6947C100.339 34.9011 99.3029 37.8926 100.509 40.3765C103.452 46.4368 105.002 53.1036 105.002 59.9975C105.002 84.8511 84.8553 104.997 60.0017 104.997C53.1411 104.997 46.3946 103.228 40.2205 99.9999H45.0001C47.7615 99.9999 50 97.7614 50 95C50 92.2386 47.7615 90 45.0001 90H25.0135C23.7905 89.9972 22.5711 90.4435 21.6127 91.3296C21.56 91.3784 21.5049 91.4248 21.4541 91.4757C21.447 91.4827 21.4393 91.4886 21.4325 91.4956C21.3823 91.5467 21.339 91.602 21.2914 91.6547C21.2345 91.718 21.1759 91.7796 21.1222 91.8457C21.0687 91.9114 21.0209 91.98 20.9712 92.0478C20.9239 92.1122 20.8754 92.1755 20.8311 92.2421C20.7847 92.3121 20.7434 92.3843 20.701 92.4563C20.6598 92.5257 20.6178 92.5943 20.5798 92.6658C20.5433 92.7352 20.5114 92.806 20.4784 92.8765C20.4413 92.955 20.4041 93.0328 20.371 93.1137C20.3445 93.1789 20.3223 93.2452 20.2986 93.3113C20.2667 93.4001 20.2346 93.4887 20.2077 93.5796C20.1898 93.6403 20.176 93.702 20.1605 93.7632C20.1357 93.8607 20.1106 93.9579 20.0916 94.0575C20.0804 94.1164 20.0736 94.1757 20.0647 94.235C20.049 94.3374 20.0326 94.4393 20.0232 94.5436C20.0178 94.6022 20.0176 94.6608 20.0143 94.7194C20.0091 94.8129 20 94.9055 20 95.0004V115C20 117.762 22.2385 120 24.9999 120C27.7613 120 29.9998 117.762 29.9998 115V105.525C38.9424 111.571 49.3034 114.998 60.0012 114.998C90.3776 114.998 115.001 90.3741 115.001 59.9977C115.002 51.582 113.105 43.4227 109.505 36.0085Z" fill="#5991D0"/>
<path d="M15.0001 59.9979C15.0001 35.1476 35.1484 14.9979 60.0001 14.9979C66.8586 14.9979 73.6072 16.7693 79.7841 19.9999H74.9991C72.2377 19.9999 69.9992 22.2384 69.9992 24.9998C69.9992 27.7612 72.2377 29.9998 74.9991 29.9998H94.9991C95.0148 29.9998 95.03 29.9977 95.0457 29.9974C95.0607 29.9972 95.0755 29.9953 95.0905 29.9951C96.2687 29.9737 97.3475 29.5481 98.1917 28.8469C98.2006 28.8394 98.2088 28.8307 98.2177 28.8232C98.3356 28.7238 98.4493 28.6198 98.5576 28.5098C98.5616 28.5059 98.566 28.5023 98.57 28.4984C98.5981 28.4695 98.6218 28.4384 98.6492 28.4091C98.7303 28.3223 98.8105 28.2349 98.8852 28.1426C98.9288 28.0889 98.9673 28.0329 99.0083 27.978C99.0641 27.903 99.1206 27.8285 99.1724 27.7502C99.2164 27.6834 99.2558 27.6145 99.2963 27.5463C99.3385 27.4755 99.3814 27.4055 99.4201 27.3323C99.4592 27.2583 99.4934 27.1823 99.5288 27.1069C99.5621 27.0352 99.5966 26.9644 99.6266 26.891C99.6589 26.8123 99.6861 26.7321 99.714 26.652C99.7395 26.5788 99.7665 26.5062 99.7888 26.4316C99.8143 26.3463 99.8342 26.2598 99.8551 26.1736C99.8722 26.1026 99.8909 26.032 99.905 25.9598C99.9245 25.8602 99.9373 25.7602 99.9507 25.6596C99.9587 25.5991 99.9692 25.5396 99.9751 25.4787C99.9873 25.3505 99.9922 25.2218 99.9945 25.0931C99.9952 25.0617 99.9992 25.0313 99.9992 24.9998V24.9689C99.9992 24.9579 99.9995 24.9469 99.9992 24.9359V4.99992C99.999 2.23852 97.7605 0 94.9991 0C92.2377 0 89.9991 2.23852 89.9991 4.99992V14.4717C81.0547 8.42602 70.6927 4.99781 60.0001 4.99781C29.6253 4.99805 5 29.625 5 59.9979C5 68.4255 6.8982 76.5907 10.5029 84.0084C11.7099 86.4921 14.7017 87.5271 17.1854 86.3201C19.6691 85.113 20.7041 82.1212 19.497 79.6376C16.5509 73.575 15.0001 66.9037 15.0001 59.9979Z" fill="#5991D0"/>
</g>
<defs>
<clipPath id="clip0">
<rect width="120" height="120" fill="white"/>
</clipPath>
</defs>
</svg>
