<svg width="120" height="120" viewBox="0 0 120 120" fill="none" xmlns="http://www.w3.org/2000/svg">
<g clip-path="url(#clip0)">
<g clip-path="url(#clip1)">
<path d="M211.923 -50.6435C183.157 -79.4081 144.913 -95.25 104.233 -95.25C63.5537 -95.25 25.3087 -79.4081 -3.4551 -50.6435C-32.2204 -21.879 -48.0616 16.3652 -48.0616 57.045C-48.0616 84.8442 -40.6589 111.504 -26.7942 134.781L-116.435 224.421C-131.126 239.113 -131.126 263.02 -116.434 277.713C-109.316 284.83 -99.8539 288.75 -89.7885 288.75C-79.7222 288.75 -70.2598 284.83 -63.1429 277.713L26.4968 188.073C49.7737 201.938 76.4335 209.341 104.233 209.341C144.912 209.341 183.157 193.499 211.922 164.734C271.302 105.354 271.302 8.73604 211.923 -50.6435V-50.6435ZM-79.0539 261.801C-81.9207 264.668 -85.7327 266.246 -89.7885 266.246C-93.8427 266.246 -97.6554 264.668 -100.522 261.801C-106.441 255.882 -106.441 246.251 -100.523 240.332L-47.9686 187.777L-26.5002 209.245L-79.0539 261.801ZM-10.5877 193.334L-32.0561 171.866L-13.6646 153.475C-10.4685 157.368 -7.06379 161.126 -3.4551 164.734C0.153594 168.343 3.91156 171.747 7.80379 174.943L-10.5877 193.334ZM196.011 148.823C171.496 173.337 138.902 186.838 104.234 186.838C69.5649 186.838 36.9711 173.337 12.4574 148.823C-12.0572 124.308 -25.5581 91.7142 -25.5581 57.0457C-25.5581 22.3772 -12.0572 -10.2165 12.4574 -34.7311C36.9704 -59.2463 69.5649 -72.7472 104.233 -72.7472C138.902 -72.7472 171.496 -59.2463 196.01 -34.7318C246.617 15.8739 246.617 98.2161 196.011 148.823Z" fill="#5991D0"/>
</g>
<path d="M106.071 13.9395C97.0814 4.95061 85.1301 0 72.4177 0C59.7052 0 47.7537 4.95061 38.765 13.9395C29.7759 22.9284 24.8255 34.8798 24.8255 47.5922C24.8255 56.2794 27.1388 64.6106 31.4715 71.8846L3.45887 99.8971C-1.13216 104.489 -1.13216 111.959 3.45911 116.551C5.68336 118.775 8.64037 120 11.7858 120C14.9315 120 17.8885 118.775 20.1126 116.551L48.125 88.5385C55.399 92.8713 63.7302 95.1846 72.4177 95.1846C85.1299 95.1846 97.0814 90.234 106.07 81.2451C124.627 62.6887 124.627 32.4956 106.071 13.9395V13.9395ZM15.1404 111.578C14.2445 112.474 13.0533 112.968 11.7858 112.968C10.5189 112.968 9.32741 112.474 8.43151 111.578C6.58183 109.729 6.58183 106.719 8.43128 104.869L24.8546 88.446L31.5634 95.1548L15.1404 111.578ZM36.5361 90.1827L29.8272 83.4738L35.5745 77.7264C36.5733 78.943 37.6373 80.1174 38.765 81.2451C39.8927 82.3728 41.0671 83.4365 42.2834 84.4353L36.5361 90.1827ZM101.098 76.2727C93.4371 83.9335 83.2516 88.1525 72.4179 88.1525C61.5838 88.1525 51.3982 83.9335 43.7377 76.2727C36.0769 68.6119 31.8578 58.4263 31.8578 47.5924C31.8578 36.7585 36.0769 26.573 43.7377 18.9122C51.398 11.2511 61.5838 7.03212 72.4177 7.03212C83.2516 7.03212 93.4371 11.2511 101.098 18.9119C116.912 34.7262 116.912 60.4581 101.098 76.2727Z" fill="#5991D0"/>
<path d="M96.4652 23.5447C90.0421 17.1216 81.502 13.584 72.4179 13.584C63.3341 13.584 54.7941 17.1214 48.3709 23.5447C41.9478 29.9681 38.4102 38.5079 38.4102 47.592C38.4102 56.6759 41.9478 65.2159 48.3709 71.639C54.7941 78.0624 63.3341 81.5998 72.4179 81.5998C81.502 81.5998 90.0421 78.0624 96.4652 71.639C102.888 65.2159 106.426 56.6759 106.426 47.592C106.426 38.5081 102.889 29.9681 96.4652 23.5447V23.5447ZM91.4928 66.6668C86.3978 71.7619 79.6235 74.5679 72.4179 74.5679C65.2126 74.5679 58.4383 71.7619 53.3433 66.6668C48.2483 61.5718 45.4423 54.7976 45.4423 47.5922C45.4423 40.3867 48.2483 33.6124 53.3433 28.5174C58.4383 23.4224 65.2126 20.6163 72.4179 20.6163C79.6235 20.6163 86.3978 23.4224 91.4928 28.5174C96.5878 33.6124 99.3938 40.3867 99.3938 47.5922C99.3938 54.7973 96.588 61.5716 91.4928 66.6668V66.6668Z" fill="#5991D0"/>
<path d="M54.9961 60.0283L59.9681 55.0563L64.9398 60.028L59.9678 65L54.9961 60.0283Z" fill="#5991D0"/>
<path d="M69.6496 32.8074L74.622 37.78C76.7199 35.6821 80.134 35.6821 82.2319 37.78C83.2483 38.7962 83.808 40.1477 83.808 41.5849C83.808 43.0222 83.2483 44.3736 82.2319 45.39C80.134 47.4876 76.7204 47.4881 74.622 45.39L72.1359 42.9039L63.7344 51.3054L68.7068 56.2778L72.4943 52.4903C77.2025 55.0486 83.2279 54.3393 87.2043 50.3626C89.5488 48.0181 90.8401 44.9008 90.8401 41.5851C90.8401 38.2695 89.5488 35.1524 87.2043 32.8079C82.3648 27.9679 74.4898 27.9677 69.6496 32.8074V32.8074Z" fill="#5991D0"/>
<g clip-path="url(#clip2)">
<path d="M217.173 -41.6435C188.407 -70.4081 150.163 -86.25 109.483 -86.25C68.8037 -86.25 30.5587 -70.4081 1.7949 -41.6435C-26.9704 -12.879 -42.8116 25.3652 -42.8116 66.045C-42.8116 93.8442 -35.4089 120.504 -21.5442 143.781L-111.185 233.421C-125.876 248.113 -125.876 272.02 -111.184 286.713C-104.066 293.83 -94.6039 297.75 -84.5385 297.75C-74.4722 297.75 -65.0098 293.83 -57.8929 286.713L31.7468 197.073C55.0237 210.938 81.6835 218.341 109.483 218.341C150.162 218.341 188.407 202.499 217.172 173.734C276.552 114.354 276.552 17.736 217.173 -41.6435V-41.6435ZM-73.8039 270.801C-76.6707 273.668 -80.4827 275.246 -84.5385 275.246C-88.5927 275.246 -92.4054 273.668 -95.2723 270.801C-101.191 264.882 -101.191 255.251 -95.273 249.332L-42.7186 196.777L-21.2502 218.245L-73.8039 270.801ZM-5.33773 202.334L-26.8061 180.866L-8.4146 162.475C-5.21846 166.368 -1.81379 170.126 1.7949 173.734C5.40359 177.343 9.16156 180.747 13.0538 183.943L-5.33773 202.334ZM201.261 157.823C176.746 182.337 144.152 195.838 109.484 195.838C74.8149 195.838 42.2211 182.337 17.7074 157.823C-6.80715 133.308 -20.3081 100.714 -20.3081 66.0457C-20.3081 31.3772 -6.80715 -1.21654 17.7074 -25.7311C42.2204 -50.2463 74.8149 -63.7472 109.483 -63.7472C144.152 -63.7472 176.746 -50.2463 201.26 -25.7318C251.867 24.8739 251.867 107.216 201.261 157.823Z" fill="#5991D0"/>
</g>
</g>
<defs>
<clipPath id="clip0">
<rect width="120" height="120" fill="white"/>
</clipPath>
<clipPath id="clip1">
<rect width="384" height="384" fill="white" transform="translate(-127.5 -95.25)"/>
</clipPath>
<clipPath id="clip2">
<rect width="384" height="384" fill="white" transform="translate(-122.25 -86.25)"/>
</clipPath>
</defs>
</svg>
