<svg width="26" height="26" viewBox="0 0 26 26" fill="none" xmlns="http://www.w3.org/2000/svg">
<path d="M23.918 18.4824L20.3591 15.4562C20.3427 15.4423 20.3253 15.4294 20.3071 15.4179C19.3735 14.8235 18.1747 14.9552 17.3919 15.7378L15.4516 17.678C15.3172 17.8126 15.1167 17.8523 14.9409 17.7798C12.7498 16.8734 10.9499 15.5089 9.59108 13.7246C8.55489 12.3639 8.18135 11.2827 8.1321 11.1303C8.12624 11.0977 8.1169 11.0653 8.10372 11.0336C8.03102 10.8579 8.07076 10.6577 8.20552 10.5233L10.1457 8.58259C10.9285 7.79981 11.06 6.60102 10.4656 5.66736C10.4608 5.65986 10.4559 5.65253 10.4508 5.64521L7.88069 2.07374C7.0721 0.819281 5.31081 0.629767 4.25374 1.68665L3.86519 2.0752C3.86501 2.07557 3.86464 2.07593 3.86427 2.07612L2.47707 3.46332C0.822893 5.11768 0.552263 7.60352 1.69466 10.6526C2.67317 13.2644 4.63204 16.1229 7.21034 18.7012C9.84963 21.3405 12.7854 23.3356 15.4766 24.319C18.1405 25.2922 20.974 25.4122 22.9796 23.4064L24.2879 22.0983C25.3402 21.0458 25.1565 19.2961 23.918 18.4824V18.4824ZM19.7783 16.1926L23.3341 19.2162C23.3504 19.2302 23.3678 19.243 23.3859 19.2545C24.1454 19.7381 24.2604 20.8001 23.6248 21.4355L23.5278 21.5327L17.4632 16.9921L18.0548 16.4006C18.5171 15.9381 19.2217 15.8544 19.7783 16.1926V16.1926ZM7.09755 2.58881C7.10231 2.59632 7.10726 2.60383 7.11238 2.61097L9.68135 6.18116C10.0304 6.73981 9.9496 7.45301 9.48287 7.91974L8.90956 8.49323L4.80654 2.45954L4.91658 2.34949C5.5547 1.71137 6.6158 1.83204 7.09755 2.58881ZM15.7982 23.4385C13.2325 22.501 10.418 20.5831 7.87319 18.0383C5.38735 15.5527 3.50484 12.8129 2.57228 10.3237C1.87227 8.45533 1.4026 5.86347 3.13991 4.12635L4.13179 3.13428L8.23482 9.16797L7.54286 9.86029C7.14919 10.2532 7.02541 10.8348 7.22188 11.3526C7.36983 11.9598 8.05061 13.2201 8.73744 14.1488C9.74819 15.5155 11.5827 17.405 14.5825 18.6461C15.1097 18.8641 15.7108 18.7444 16.1144 18.341L16.7935 17.6617L22.8582 22.2023L22.3167 22.7436C20.4544 24.6061 17.744 24.1495 15.7982 23.4385Z" fill="#5991D0" stroke="#5991D0"/>
</svg>
